<svg width="26" height="28" viewBox="0 0 26 28" fill="none" xmlns="http://www.w3.org/2000/svg">
<g id="Group 1000005837">
<path id="Vector (Stroke)" fill-rule="evenodd" clip-rule="evenodd" d="M13.0002 2.48025C10.4879 2.48025 8.45129 4.51688 8.45129 7.02917C8.45129 9.54147 10.4879 11.5781 13.0002 11.5781C15.5126 11.5781 17.5492 9.54147 17.5492 7.02917C17.5492 4.51688 15.5126 2.48025 13.0002 2.48025ZM6.22168 7.02917C6.22168 3.28549 9.25655 0.250641 13.0002 0.250641C16.7439 0.250641 19.7788 3.28549 19.7788 7.02917C19.7788 10.7729 16.7439 13.8077 13.0002 13.8077C9.25655 13.8077 6.22168 10.7729 6.22168 7.02917Z" fill="#6D758F"/>
<path id="Vector (Stroke)_2" fill-rule="evenodd" clip-rule="evenodd" d="M4.49665 18.3967C6.53389 17.1807 9.29022 16.3706 13.0003 16.3706C16.7103 16.3706 19.4667 17.1807 21.5039 18.3967C23.542 19.6133 24.7953 21.1975 25.5589 22.6432L25.5589 22.6432C26.2422 23.9371 26.0186 25.2796 25.2431 26.2535C24.4971 27.1902 23.2829 27.7493 21.9795 27.7493H4.02105C2.71762 27.7493 1.5034 27.1902 0.757434 26.2535C-0.0181209 25.2796 -0.24166 23.9371 0.441701 22.6432C1.20523 21.1975 2.45853 19.6133 4.49665 18.3967ZM5.63943 20.3112C4.00521 21.2867 3.01674 22.5417 2.41325 23.6844L2.41324 23.6844C2.16728 24.1501 2.24553 24.543 2.50159 24.8646C2.78724 25.2233 3.33447 25.5197 4.02105 25.5197H21.9795C22.666 25.5197 23.2133 25.2233 23.4989 24.8646C23.755 24.543 23.8333 24.1501 23.5874 23.6845C22.9838 22.5417 21.9953 21.2867 20.3611 20.3112C18.726 19.3352 16.3795 18.6002 13.0003 18.6002C9.62108 18.6002 7.27452 19.3352 5.63943 20.3112Z" fill="#6D758F"/>
</g>
</svg>
