<svg xmlns="http://www.w3.org/2000/svg" xmlns:xlink="http://www.w3.org/1999/xlink" width="500" zoomAndPan="magnify" viewBox="0 0 375 374.999991" height="500" preserveAspectRatio="xMidYMid meet" version="1.2"><defs><clipPath id="2fad44cbe8"><path d="M 23.261719 57 L 351.761719 57 L 351.761719 317.933594 L 23.261719 317.933594 Z M 23.261719 57 "/></clipPath><clipPath id="11965c0a41"><path d="M 113.699219 193.132812 L 121.089844 193.132812 L 121.089844 200.523438 L 113.699219 200.523438 Z M 113.699219 193.132812 "/></clipPath><clipPath id="620c55e35c"><path d="M 117.394531 193.132812 C 115.355469 193.132812 113.699219 194.789062 113.699219 196.828125 C 113.699219 198.871094 115.355469 200.523438 117.394531 200.523438 C 119.4375 200.523438 121.089844 198.871094 121.089844 196.828125 C 121.089844 194.789062 119.4375 193.132812 117.394531 193.132812 Z M 117.394531 193.132812 "/></clipPath><clipPath id="6de2aad6f6"><path d="M 0.699219 0.132812 L 8.089844 0.132812 L 8.089844 7.523438 L 0.699219 7.523438 Z M 0.699219 0.132812 "/></clipPath><clipPath id="d09fcfd22d"><path d="M 4.394531 0.132812 C 2.355469 0.132812 0.699219 1.789062 0.699219 3.828125 C 0.699219 5.871094 2.355469 7.523438 4.394531 7.523438 C 6.4375 7.523438 8.089844 5.871094 8.089844 3.828125 C 8.089844 1.789062 6.4375 0.132812 4.394531 0.132812 Z M 4.394531 0.132812 "/></clipPath><clipPath id="2ffa2d52f8"><rect x="0" width="9" y="0" height="8"/></clipPath></defs><g id="a654c6d545"><g clip-rule="nonzero" clip-path="url(#2fad44cbe8)"><path style=" stroke:none;fill-rule:nonzero;fill:#000000;fill-opacity:1;" d="M 351.511719 154.292969 C 350.207031 156.910156 349.707031 159.925781 346.878906 161.753906 C 342.109375 164.828125 337.550781 168.230469 332.914062 171.496094 C 331.105469 172.765625 329.320312 174.015625 327.222656 175.476562 C 327.320312 177.28125 327.394531 178.878906 327.492188 180.492188 C 327.894531 187.316406 328.335938 194.140625 328.683594 200.964844 C 329.125 210.113281 329.53125 219.242188 329.855469 228.394531 C 330.105469 235.695312 330.222656 242.980469 330.339844 250.285156 C 330.355469 251.671875 330.203125 253.054688 330.144531 254.457031 C 330.03125 257.550781 328.820312 260.011719 326.222656 261.820312 C 322.433594 264.472656 318.742188 267.277344 314.914062 269.910156 C 295.410156 283.289062 275.253906 295.628906 254.40625 306.777344 C 248.886719 309.71875 243.230469 312.390625 237.617188 315.160156 C 236.789062 315.5625 235.921875 315.925781 235.058594 316.253906 C 232.421875 317.234375 229.75 317.714844 226.902344 317.273438 C 223.941406 316.8125 220.921875 316.640625 217.921875 316.351562 C 212.152344 315.8125 206.382812 315.371094 200.628906 314.734375 C 194.070312 314.003906 187.53125 313.160156 180.992188 312.257812 C 174.453125 311.351562 167.933594 310.351562 161.414062 309.316406 C 153.992188 308.125 146.546875 306.96875 139.160156 305.546875 C 127.007812 303.183594 114.871094 300.722656 102.773438 298.109375 C 90.886719 295.554688 79.097656 292.648438 67.480469 289.074219 C 65.382812 288.421875 63.324219 287.710938 61.554688 286.269531 C 59.710938 284.789062 58.730469 283 58.691406 280.617188 C 58.632812 277.714844 58.363281 274.832031 58.285156 271.929688 C 57.980469 261.050781 57.710938 250.152344 57.421875 239.273438 C 57.152344 228.625 56.902344 217.957031 56.613281 207.308594 C 56.574219 205.941406 56.671875 204.519531 55.941406 203.097656 C 52.054688 201.886719 48.074219 200.695312 44.113281 199.40625 C 39.917969 198.0625 35.746094 196.695312 31.609375 195.214844 C 29.667969 194.503906 27.820312 193.523438 25.957031 192.582031 C 25.015625 192.101562 24.265625 191.371094 23.839844 190.371094 C 23.457031 189.488281 23.300781 188.644531 23.746094 187.699219 C 25.015625 185.105469 26.070312 182.375 27.496094 179.878906 C 33.667969 169 39.898438 158.136719 47.09375 147.894531 C 48.691406 145.625 50.34375 143.375 51.960938 141.128906 C 52.421875 140.472656 52.882812 139.800781 53.304688 139.167969 C 53.132812 137.246094 51.996094 135.878906 51.035156 134.457031 C 46.726562 128.152344 42.363281 121.867188 38.015625 115.5625 C 36.109375 112.796875 34.167969 110.046875 32.339844 107.222656 C 31.589844 106.066406 31.070312 104.761719 30.535156 103.492188 C 30.035156 102.394531 30.4375 101.414062 31.359375 100.761719 C 32.476562 99.957031 33.667969 99.207031 34.859375 98.53125 C 41.898438 94.496094 49.246094 91.074219 56.613281 87.671875 C 75.960938 78.734375 95.808594 71.046875 115.871094 63.894531 C 120.21875 62.339844 124.71875 61.222656 129.140625 59.859375 C 130.757812 59.359375 132.140625 59.722656 133.296875 60.878906 C 134.101562 61.683594 134.871094 62.570312 135.546875 63.511719 C 141.449219 71.679688 147.335938 79.867188 153.222656 88.039062 C 153.546875 88.5 153.894531 88.960938 154.277344 89.5 C 155.472656 88.632812 155.914062 87.421875 156.511719 86.347656 C 159.375 81.042969 162.183594 75.71875 165.03125 70.410156 C 166.722656 67.257812 168.492188 64.125 170.222656 60.972656 C 170.609375 60.261719 171.03125 59.570312 171.472656 58.898438 C 172.011719 58.089844 172.761719 57.570312 173.761719 57.496094 C 175.28125 57.359375 176.78125 57.1875 178.28125 57.207031 C 185.707031 57.339844 193.128906 57.457031 200.535156 57.746094 C 207.246094 57.996094 213.957031 58.4375 220.671875 58.839844 C 225.421875 59.109375 230.152344 59.398438 234.882812 59.761719 C 239.039062 60.070312 243.191406 60.472656 247.347656 60.859375 C 250.234375 61.128906 253.117188 61.359375 256.003906 61.664062 C 264.867188 62.644531 273.734375 63.53125 282.582031 64.703125 C 290.832031 65.796875 299.066406 67.222656 307.277344 68.566406 C 312.875 69.488281 318.453125 70.449219 324.03125 71.527344 C 326.625 72.027344 329.203125 72.757812 331.742188 73.542969 C 334.300781 74.351562 335.128906 76.140625 334.339844 78.675781 C 334.089844 79.445312 333.78125 80.195312 333.433594 80.925781 C 329.894531 88.59375 326.375 96.285156 322.761719 103.914062 C 321.375 106.835938 319.761719 109.625 318.183594 112.621094 C 318.816406 113.238281 319.433594 113.929688 320.125 114.488281 C 324.296875 117.851562 327.992188 121.65625 331.28125 125.886719 C 336.894531 133.113281 342.550781 140.300781 348.109375 147.585938 C 349.300781 149.144531 350.207031 150.910156 351.167969 152.621094 C 351.457031 153.121094 351.726562 153.890625 351.511719 154.292969 Z M 351.511719 154.292969 "/></g><path style=" stroke:none;fill-rule:nonzero;fill:#996d42;fill-opacity:1;" d="M 310.027344 112.988281 C 310.738281 113.179688 311.449219 113.351562 312.203125 113.527344 C 312.125 113.5625 312.046875 113.601562 311.96875 113.640625 C 292.988281 122.789062 274.390625 132.726562 255.828125 142.722656 C 246.867188 147.566406 237.867188 152.351562 228.882812 157.160156 C 227.460938 157.925781 226.019531 158.714844 224.519531 159.292969 C 222.480469 160.078125 220.402344 160.386719 218.132812 159.90625 C 213.941406 159.023438 209.6875 158.464844 205.457031 157.773438 C 198.84375 156.695312 192.207031 155.601562 185.570312 154.542969 C 180.4375 153.71875 175.28125 152.949219 170.125 152.160156 C 165.105469 151.390625 160.085938 150.621094 154.894531 149.816406 C 154.796875 149.046875 154.625 148.394531 154.644531 147.738281 C 154.796875 139.050781 154.933594 130.363281 155.144531 121.675781 C 155.296875 115.0625 155.585938 108.46875 154.777344 101.878906 C 154.664062 100.972656 154.722656 99.992188 153.722656 99.472656 C 152.992188 99.628906 152.835938 100.167969 152.914062 100.78125 C 153.742188 106.894531 153.375 113.046875 153.242188 119.175781 C 153.105469 125.539062 152.816406 131.921875 152.644531 138.28125 C 152.566406 141.183594 152.566406 144.070312 152.507812 146.972656 C 152.492188 147.644531 152.433594 148.316406 152.375 149.179688 C 151.683594 149.199219 151.125 149.316406 150.585938 149.238281 C 142.796875 148.125 135.007812 146.933594 127.21875 145.855469 C 120.5625 144.933594 113.910156 144.070312 107.234375 143.300781 C 101.601562 142.664062 95.925781 142.242188 90.289062 141.683594 C 84.636719 141.128906 79 140.511719 73.367188 139.878906 C 69.230469 139.417969 65.09375 138.859375 60.960938 138.359375 C 60.730469 138.339844 60.460938 138.261719 60.269531 138.359375 C 60.152344 138.417969 60.039062 138.496094 59.921875 138.550781 C 60 137.226562 61 135.824219 62 134.59375 C 62.671875 134.667969 63.058594 134.785156 63.382812 134.667969 C 64.269531 134.378906 65.09375 133.957031 65.941406 133.59375 C 74.710938 129.671875 83.464844 125.75 92.214844 121.808594 C 107.832031 114.8125 123.410156 107.71875 139.410156 101.609375 C 142.546875 100.417969 145.664062 99.1875 148.777344 97.9375 C 149.71875 97.550781 150.605469 97.015625 151.488281 96.496094 C 153.453125 96.839844 155.394531 97.265625 157.355469 97.515625 C 157.242188 97.570312 157.125 97.628906 156.992188 97.6875 C 158.855469 98.089844 159.855469 98.378906 160.855469 98.53125 C 169.472656 99.722656 178.148438 99.992188 186.820312 100.628906 C 191.785156 100.992188 196.765625 101.222656 201.726562 101.550781 C 204.957031 101.761719 208.1875 102.050781 211.421875 102.339844 C 215.226562 102.683594 219.015625 103.050781 222.824219 103.433594 C 228.34375 103.972656 233.882812 104.492188 239.40625 105.085938 C 244.347656 105.625 249.289062 106.277344 254.214844 106.875 C 260.40625 107.644531 266.617188 108.414062 272.8125 109.21875 C 279.464844 110.085938 286.121094 110.96875 292.777344 111.871094 C 297.027344 112.449219 301.257812 113.0625 305.488281 113.621094 C 306.507812 113.757812 307.566406 113.792969 308.605469 113.8125 C 308.949219 113.832031 309.335938 113.792969 309.605469 113.621094 C 309.777344 113.488281 309.933594 113.238281 310.027344 112.988281 Z M 310.027344 112.988281 "/><path style=" stroke:none;fill-rule:nonzero;fill:#ca8b58;fill-opacity:1;" d="M 62.902344 282.558594 C 62.519531 273.890625 62.152344 265.433594 61.789062 256.996094 C 61.710938 255.265625 61.652344 253.515625 61.613281 251.785156 C 61.324219 241.714844 61.132812 231.621094 60.730469 221.550781 C 60.539062 216.457031 59.980469 211.382812 59.59375 206.308594 C 59.554688 205.75 59.535156 205.191406 59.5 204.769531 C 60.171875 204.058594 60.710938 204.40625 61.230469 204.539062 C 79.558594 209.882812 98.042969 214.6875 116.621094 219.128906 C 130.007812 222.339844 143.46875 225.277344 156.992188 227.894531 C 164.03125 229.257812 171.089844 230.585938 178.167969 231.796875 C 181.128906 232.292969 184.148438 232.449219 187.148438 232.757812 C 187.496094 232.792969 187.839844 232.777344 188.1875 232.777344 C 192.628906 232.890625 195.878906 231.21875 198.015625 227.066406 C 201.515625 220.261719 204.824219 213.382812 207.632812 206.269531 C 212.441406 194.101562 216.882812 181.800781 220.785156 169.304688 C 221.015625 168.554688 221.34375 167.824219 221.769531 166.730469 C 222.304688 167.558594 222.710938 168.058594 223 168.613281 C 224.519531 171.476562 225.980469 174.363281 227.5 177.246094 C 232.5 186.777344 237.441406 196.351562 242.578125 205.828125 C 244.558594 209.480469 246.925781 212.9375 249.269531 216.378906 C 250.15625 217.707031 251.386719 218.820312 252.597656 219.878906 C 253.925781 221.011719 255.558594 221.28125 257.175781 220.570312 C 259.195312 219.6875 261.214844 218.78125 263.0625 217.628906 C 270.851562 212.824219 278.679688 208.058594 286.3125 203.039062 C 297.929688 195.390625 309.394531 187.527344 320.914062 179.761719 C 321.835938 179.148438 322.816406 178.570312 323.742188 177.996094 C 323.992188 178.378906 324.222656 178.550781 324.222656 178.742188 C 324.335938 181.53125 324.472656 184.300781 324.511719 187.085938 C 324.800781 210.480469 325.855469 233.851562 325.972656 257.261719 C 325.105469 257.9375 324.414062 258.53125 323.664062 259.050781 C 300.335938 275.042969 276.351562 289.980469 251.328125 303.183594 C 246.117188 305.933594 240.75 308.429688 235.480469 311.066406 C 233.828125 311.890625 232.25 312.832031 230.210938 313.96875 C 229 313.832031 227.289062 313.640625 225.574219 313.449219 C 220.632812 312.851562 215.691406 312.238281 210.746094 311.640625 C 206.382812 311.101562 202.015625 310.582031 197.648438 310.007812 C 191.339844 309.179688 185.03125 308.335938 178.722656 307.414062 C 172.550781 306.507812 166.375 305.527344 160.203125 304.492188 C 151.644531 303.050781 143.085938 301.625 134.546875 300.03125 C 120.792969 297.4375 107.101562 294.496094 93.484375 291.1875 C 83.214844 288.75 72.980469 286.269531 62.902344 282.558594 Z M 221.765625 177.648438 C 221.035156 178.359375 220.960938 178.898438 220.980469 179.472656 C 221.054688 182.261719 221.113281 185.03125 221.25 187.816406 C 221.554688 194.179688 221.921875 200.542969 222.25 206.902344 C 222.574219 213.265625 222.863281 219.628906 223.171875 225.992188 C 223.402344 230.621094 223.652344 235.234375 223.882812 239.867188 C 224.25 247.152344 224.730469 254.4375 224.960938 261.742188 C 225.289062 272.046875 225.421875 282.367188 225.691406 292.667969 C 225.789062 296.265625 226.039062 299.839844 226.230469 303.433594 C 226.269531 304.011719 226.382812 304.585938 226.59375 305.125 C 226.710938 305.394531 227.132812 305.722656 227.382812 305.683594 C 227.789062 305.625 228.34375 305.375 228.460938 305.066406 C 228.730469 304.316406 228.902344 303.511719 228.921875 302.703125 C 228.980469 298.761719 229.09375 294.824219 228.960938 290.882812 C 228.652344 281.734375 228.230469 272.601562 227.824219 263.453125 C 227.558594 257.320312 227.25 251.191406 226.921875 245.058594 C 226.710938 240.886719 226.441406 236.734375 226.171875 232.5625 C 225.59375 223.550781 224.980469 214.535156 224.382812 205.519531 C 223.84375 197.542969 223.324219 189.566406 222.769531 181.609375 C 222.710938 180.339844 222.75 179.050781 221.765625 177.648438 Z M 221.765625 177.648438 "/><path style=" stroke:none;fill-rule:nonzero;fill:#cb915a;fill-opacity:1;" d="M 329.070312 80.15625 C 324.78125 89.652344 320.433594 99.128906 316.125 108.605469 C 315.605469 109.757812 315.105469 110.929688 314.472656 112.390625 C 313.875 112.699219 313.046875 113.121094 312.203125 113.527344 C 311.46875 113.351562 310.738281 113.160156 310.027344 112.988281 C 310.046875 112.929688 310.066406 112.871094 310.085938 112.796875 C 310.125 112.660156 309.894531 112.351562 309.699219 112.257812 C 309.296875 112.066406 308.855469 111.910156 308.414062 111.851562 C 305.085938 111.371094 301.777344 110.910156 298.449219 110.46875 C 294.082031 109.894531 289.738281 109.355469 285.371094 108.777344 C 281.003906 108.199219 276.660156 107.585938 272.3125 107.007812 C 267.832031 106.433594 263.347656 105.875 258.886719 105.335938 C 254.058594 104.742188 249.25 104.085938 244.425781 103.589844 C 238.558594 102.972656 232.671875 102.492188 226.789062 101.953125 C 220.34375 101.359375 213.882812 100.667969 207.4375 100.148438 C 200.398438 99.589844 193.339844 99.128906 186.300781 98.78125 C 177.050781 98.320312 167.800781 97.898438 158.585938 96.917969 C 158.355469 96.898438 158.105469 97.089844 157.335938 97.496094 C 155.375 97.246094 153.433594 96.820312 151.472656 96.476562 C 151.488281 96.476562 151.488281 96.457031 151.507812 96.457031 C 151.664062 96.378906 151.796875 95.976562 151.722656 95.878906 C 151.546875 95.628906 151.203125 95.265625 151.007812 95.324219 C 149.21875 95.746094 147.375 96.074219 145.683594 96.765625 C 137.527344 100.03125 129.332031 103.222656 121.3125 106.796875 C 103.464844 114.753906 85.714844 122.925781 67.921875 131.015625 C 66.34375 131.726562 64.769531 132.4375 63.210938 133.226562 C 63.152344 133.246094 63.09375 133.285156 63.058594 133.324219 C 63.074219 133.304688 63.074219 133.304688 63.09375 133.285156 C 63.074219 133.304688 63.074219 133.304688 63.058594 133.324219 C 62.671875 133.574219 62.304688 133.976562 61.632812 134.554688 C 61.769531 134.574219 61.882812 134.574219 62.019531 134.59375 C 61.019531 135.839844 60.019531 137.226562 59.941406 138.550781 C 59.554688 138.761719 59.191406 138.976562 58.960938 139.300781 C 58.59375 139.839844 58.941406 140.703125 59.59375 141.070312 C 60.09375 141.359375 60.613281 141.609375 61.171875 141.761719 C 62.730469 142.183594 64.308594 142.664062 65.902344 142.894531 C 69.902344 143.492188 73.941406 143.972656 77.960938 144.472656 C 83.25 145.105469 88.539062 145.703125 93.847656 146.296875 C 98.5625 146.835938 103.292969 147.335938 108.003906 147.933594 C 114.542969 148.757812 121.101562 149.605469 127.640625 150.507812 C 133.027344 151.238281 138.410156 152.046875 143.796875 152.832031 C 148.953125 153.601562 154.105469 154.390625 159.242188 155.179688 C 164.394531 155.984375 169.53125 156.8125 174.683594 157.621094 C 179.722656 158.40625 184.742188 159.214844 189.78125 160.003906 C 195.035156 160.828125 200.304688 161.675781 205.554688 162.484375 C 208.304688 162.90625 211.054688 163.328125 213.804688 163.675781 C 215.402344 163.886719 217.015625 163.945312 218.824219 164.097656 C 218.785156 164.597656 218.824219 165.039062 218.691406 165.421875 C 213.671875 178.628906 208.707031 191.851562 203.59375 205 C 201.074219 211.476562 198.089844 217.761719 194.804688 223.875 C 193.707031 225.914062 192.570312 227.933594 190.628906 229.429688 C 190.050781 229.375 189.476562 229.375 188.917969 229.257812 C 183.128906 228.164062 177.320312 227.046875 171.53125 225.933594 C 162.550781 224.203125 153.546875 222.605469 144.605469 220.722656 C 123.660156 216.339844 102.851562 211.285156 82.175781 205.710938 C 66.191406 201.40625 50.285156 196.890625 34.535156 191.796875 C 31.917969 190.949219 29.226562 190.21875 26.859375 188.585938 C 27.035156 188.199219 27.109375 187.835938 27.320312 187.605469 C 29.9375 184.761719 31.839844 181.453125 33.667969 178.089844 C 40.265625 165.960938 47.421875 154.179688 55.441406 142.953125 C 57.382812 140.242188 57.191406 137.550781 56.265625 134.726562 C 55.863281 133.535156 55.25 132.382812 54.554688 131.324219 C 52.265625 127.828125 50.015625 124.308594 47.554688 120.964844 C 43.167969 114.984375 38.648438 109.105469 34.167969 103.164062 C 34.535156 102.011719 35.6875 101.859375 36.554688 101.414062 C 48.402344 95.324219 60.554688 89.882812 72.847656 84.75 C 87.15625 78.773438 101.714844 73.390625 116.292969 68.105469 C 120.640625 66.527344 124.96875 64.914062 129.449219 63.261719 C 133.066406 68.085938 136.679688 72.910156 140.257812 77.734375 C 143.507812 82.097656 146.71875 86.5 149.972656 90.882812 C 150.316406 91.34375 150.644531 91.824219 150.988281 92.285156 C 152.777344 94.554688 153.546875 94.667969 155.953125 93.246094 C 157.183594 92.515625 158.125 91.515625 158.855469 90.304688 C 160.011719 88.421875 161.125 86.539062 162.203125 84.617188 C 166.453125 77.042969 170.664062 69.449219 174.914062 61.859375 C 175.128906 61.472656 175.398438 61.109375 175.683594 60.667969 C 180.261719 60.898438 184.761719 61.109375 189.265625 61.339844 C 190.53125 61.398438 191.800781 61.53125 193.070312 61.589844 C 199.667969 61.898438 206.285156 62.128906 212.882812 62.511719 C 217.515625 62.78125 222.113281 63.242188 226.75 63.605469 C 230.789062 63.914062 234.847656 64.164062 238.886719 64.511719 C 242.808594 64.835938 246.730469 65.242188 250.65625 65.625 C 253.425781 65.894531 256.195312 66.144531 258.945312 66.492188 C 266.425781 67.394531 273.890625 68.296875 281.351562 69.238281 C 294.332031 70.855469 307.21875 73.121094 320.085938 75.46875 C 323.375 76.0625 326.683594 76.5625 329.992188 77.121094 C 330.144531 78.386719 329.472656 79.253906 329.070312 80.15625 Z M 347.03125 153.679688 C 343.722656 149.21875 340.472656 144.703125 337.050781 140.300781 C 332.800781 134.804688 328.472656 129.363281 324.046875 124 C 321.625 121.058594 318.894531 118.371094 316.066406 116.042969 C 315.738281 116.042969 315.605469 116.003906 315.527344 116.042969 C 291.257812 128.863281 267.003906 141.703125 242.710938 154.46875 C 236.980469 157.484375 231.078125 160.175781 225.25 163.019531 C 225.152344 163.078125 225.039062 163.136719 224.960938 163.214844 C 224.863281 163.289062 224.789062 163.367188 224.730469 163.460938 C 224.671875 163.539062 224.671875 163.65625 224.652344 163.695312 C 234.617188 181.628906 243.808594 199.925781 254.519531 217.570312 C 255.523438 217.148438 256.386719 216.859375 257.15625 216.417969 C 258.867188 215.4375 260.5625 214.4375 262.214844 213.363281 C 273.042969 206.210938 283.910156 199.117188 294.640625 191.816406 C 312.453125 179.703125 330.144531 167.441406 347.976562 155.199219 C 347.648438 154.640625 347.378906 154.140625 347.03125 153.679688 Z M 347.03125 153.679688 "/><g clip-rule="nonzero" clip-path="url(#11965c0a41)"><g clip-rule="nonzero" clip-path="url(#620c55e35c)"><g transform="matrix(1,0,0,1,113,193)"><g clip-path="url(#2ffa2d52f8)"><g clip-rule="nonzero" clip-path="url(#6de2aad6f6)"><g clip-rule="nonzero" clip-path="url(#d09fcfd22d)"><path style=" stroke:none;fill-rule:nonzero;fill:#996d42;fill-opacity:1;" d="M 0.699219 0.132812 L 8.089844 0.132812 L 8.089844 7.523438 L 0.699219 7.523438 Z M 0.699219 0.132812 "/></g></g></g></g></g></g></g></svg>