<svg width="161" height="86" viewBox="0 0 161 86" fill="none" xmlns="http://www.w3.org/2000/svg">
<path id=" " d="M2.06131 6.87167C2.83033 5.52143 4.23405 4.35643 5.90288 2.80104M1.96209 7.04938C3.01674 5.91241 3.81722 4.74543 5.87299 2.58586M1.73528 11.7339C4.62954 9.1471 6.56422 6.23887 10.2212 3.04324M1.55648 11.6606C5.01432 8.09745 7.63758 4.98071 9.43286 2.64252M1.01137 15.926C4.96263 11.4902 9.1474 7.30172 14.0976 2.52611M1.37509 16.18C4.15175 13.2665 7.39491 10.0511 14.4671 1.64342M1.60767 21.427C5.17899 15.7415 9.2849 12.2605 17.4746 1.49488M1.6834 20.8527C6.86763 14.5812 12.3512 9.3522 17.8658 1.77086M2.11676 23.682C6.79463 19.3854 11.4487 14.2233 21.521 1.86262M2.45984 24.7848C9.66843 17.1823 16.6538 8.72385 22.4188 2.11541M2.95317 28.957C11.237 19.9165 19.905 9.18935 26.4453 1.73581M2.59725 29.3142C8.07021 22.3034 14.0984 15.1081 26.1639 2.38812M3.0309 34.6518C10.1522 25.6723 17.1091 15.5779 30.223 3.14803M1.7667 34.4473C8.91936 25.3738 16.4539 17.2881 29.6263 2.45432M2.19289 37.7338C13.3724 24.8597 24.9466 12.4433 34.9702 1.83853M1.42785 38.7185C9.30495 30.3929 15.5006 23.0466 33.6937 2.76599M2.58714 42.3125C12.1002 31.6608 22.5291 20.1435 39.7113 1.89771M1.88503 43.0761C14.418 28.8883 27.3177 14.3989 39.0536 2.25479M1.33336 46.9863C16.7071 31.8969 32.3986 14.67 43.0316 2.56798M1.68843 47.7379C10.4267 38.2326 18.3841 29.0957 42.0108 2.58148M2.79881 52.5493C12.1369 40.5414 24.0251 26.1078 46.5255 2.9065M1.21024 52.7859C11.4974 42.4949 20.9804 30.7984 45.7263 2.91395M1.85197 58.1851C19.7914 35.2178 38.8452 13.4134 49.634 3.63502M1 57.8598C19.8773 36.8407 39.0486 15.8251 50.659 2.68725M2.33947 60.3212C19.4179 42.0572 36.7294 22.367 54.3744 2.02331M1.69798 61.225C18.6259 43.1379 34.932 24.2246 53.6358 3.21139M1.37518 66.0491C17.4217 48.0633 33.482 31.5772 56.9836 3.05837M2.35219 66.0692C19.6477 45.1767 38.1878 25.3088 57.5228 2.94266M3.04806 69.759C25.7139 44.9865 48.5211 16.8163 62.5299 2.28082M2.25729 69.9437C16.1495 53.9921 30.9229 38.4448 63.2075 1.95226M1.51592 75.5229C25.9619 47.4323 51.735 20.2416 66.0687 2.86161M2.42412 75.4924C15.9318 58.3662 30.5897 42.655 66.5291 2.4317M1.94379 79.1838C17.2952 62.5374 31.0745 46.6162 71.5219 2.63599M1.62324 79.4115C17.5594 61.082 34.6418 42.4474 69.9259 2.58381M1.41008 83.0905C29.015 54.9525 53.6021 26.1462 74.4165 1.52107M2.40765 83.7561C29.5004 52.0498 57.1958 21.4545 74.7985 2.47148M7.17659 83.5963C27.2778 59.6064 47.4224 36.6595 78.0497 3.35127M5.86365 83.7542C33.1217 53.3037 59.4207 24.5542 77.6419 3.16748M11.2378 84.2701C27.2161 63.8682 45.7048 43.9046 81.6797 3.47109M10.0123 83.9632C25.6343 67.6451 40.7153 50.2655 82.6563 2.96361M14.1694 83.365C42.1604 52.2074 71.6276 21.2831 86.3785 1.64282M14.6235 83.5765C39.6883 55.679 64.2017 27.0969 87.2372 1.7097M18.3463 83.8306C38.1354 61.2121 60.7006 36.1568 91.279 1.11706M17.9957 84.1122C43.9355 55.3772 70.3326 25.8586 91.2385 1.98317M23.5887 83.844C40.4896 64.4018 58.022 44.7778 95.5893 2.34883M23.3751 83.7011C49.6481 53.7142 76.6617 23.249 94.9606 2.96328M26.6948 83.797C48.5411 59.96 70.2301 34.4148 99.3082 2.24864M26.5006 83.1257C51.4309 55.5389 77.7559 27.0733 98.5339 2.50488M29.3755 83.7039C54.5331 55.7421 81.5329 25.9302 103.255 1.88558M30.9196 83.1758C49.1158 63.1152 68.0845 41.4904 102.688 3.10317M35.2494 83.5966C55.8782 61.1351 75.6761 36.0437 107.886 3.04237M34.7395 83.8497C55.646 60.6969 76.255 37.185 107.014 2.34107M37.6515 83.7553C55.6225 61.7045 76.2133 41.5847 109.789 2.11753M38.8847 84.2835C56.0307 64.5305 73.6345 44.2908 110.892 2.38383M42.7741 84.452C58.2999 64.5618 75.5563 45.3067 115.125 1.89886M42.8481 83.7406C58.3001 64.7902 75.9117 46.2609 115.202 2.34786M48.0065 82.7405C65.5519 61.1575 84.4876 40.3967 119.599 2.82899M47.4314 83.7344C64.7248 64.354 81.827 45.7328 119.17 2.65214M50.1334 83.4676C67.4398 64.1307 84.4547 47.5747 123.811 2.04962M50.8159 83.6684C69.5673 62.9703 88.2256 41.632 122.746 2.54541M54.778 83.7811C71.1224 65.7628 84.9417 49.2257 125.42 2.27177M55.0466 83.682C77.226 59.7127 98.8853 35.3195 126.836 3.29929M57.4522 84.9358C83.2898 55.3127 107.16 28.5977 131.889 1M58.6104 84.1505C74.7736 65.4171 91.2919 46.9589 130.967 1.95527M62.0695 83.1725C86.1773 59.8783 107.734 33.9575 135.763 1.84109M62.5952 83.3731C80.4494 63.2699 98.6242 43.964 135.201 2.70893M65.9372 84.6964C88.6044 58.8584 110.038 34.9491 139.933 3.34072M66.5206 83.4975C92.7644 54.586 118.646 26.0837 139.12 2.21369M71.0846 83.0701C90.9194 60.1641 113.05 35.9909 142.856 2.09419M70.9301 83.8033C88.3911 64.175 106.463 44.9028 142.855 2.69061M75.0962 84.6388C102.246 52.1471 129.883 21.7742 146.05 3.77966M74.7727 83.1866C101.971 53.3553 128.154 22.6878 146.898 2.93818M78.5676 83.3389C100.281 59.3358 120.167 35.2243 150.078 3.2302M78.7367 83.1996C105.642 52.5965 133.33 21.9921 150.467 2.742M83.6736 83.6442C105.637 57.6098 128.567 31.1615 154.992 2.86023M83.0793 83.6749C111.163 52.3986 140.18 19.6871 154.996 2.54591M86.7294 85C106.245 63.3317 123.197 41.6695 158.305 1.74411M87.0269 83.4195C112.729 52.9468 140.101 23.8054 158.687 2.79526M89.9379 84.5113C115.92 57.4522 139.28 27.4978 158.526 7.36681M89.9908 84.006C104.426 68.1807 119.001 51.9286 159.432 6.68958M96.1772 82.9459C114.914 60.0507 137.049 37.9447 160 11.3202M95.4259 83.81C117.057 58.4827 138.137 34.0785 159.513 11.0903M98.2473 82.9403C117.006 63.1057 135.235 43.1305 159.674 15.7363M99.3901 83.5975C120.204 60.3782 140.01 37.6285 159.526 16.3483M101.854 83.263C116.84 68.0139 130.399 53.9094 159.599 20.3797M102.956 83.0858C124.561 58.3693 147.742 33.2847 159.038 21.0234M107.781 84.1724C119.16 69.8512 132.264 56.0437 158.232 25.3135M106.826 83.7384C121.951 67.5961 135.745 50.9621 158.345 24.9972M111.247 84.924C125.612 65.8211 141.597 49.6548 158.748 30.5201M110.844 84.2287C121.375 72.8489 130.8 60.9013 159.091 29.645M116.605 82.7436C133.025 64.0143 148.284 45.5838 158.186 33.1891M115.477 83.2549C128.683 68.4198 141.279 53.6047 159.22 34.336M120.507 83.4127C130.221 70.5436 144.542 55.842 159.632 39.5713M119.858 83.4081C130.258 70.6723 141.825 57.081 159.791 38.7904M123.033 82.7364C134.142 69.8607 145.518 57.2179 159.798 43.1684M123.518 83.8475C135.748 69.7159 147.282 56.7121 159.296 42.716M126.629 83.0149C135.926 74.9851 143.611 66.1607 158.143 47.8214M127.448 84.0366C134.869 74.6442 143.022 65.4427 159.404 47.8962M130.44 83.3744C140.951 71.9858 151.528 60.1999 159.593 51.3965M130.49 83.6399C139.657 74.4591 147.444 65.3579 159.465 52.4191M133.779 83.292C140.975 76.98 146.538 70.7484 159.589 56.9581M134.458 84.0013C142.001 75.8377 148.844 68.8741 158.722 56.6343M140.049 84.2556C142.918 77.5196 148.691 74.2009 158.166 61.3736M139.611 83.2648C143.665 78.6499 148.299 74.0141 158.945 62.0813M142.883 83.2022C147.411 77.8999 152.815 73.9775 159.77 65.7818M143.958 83.0198C146.849 80.4672 149.439 76.4953 158.587 66.1625M146.599 83.2166C151.206 80.5516 153.564 76.5787 158.011 70.8393M147.487 83.2199C149.609 80.4967 152.653 78.1398 158.37 70.7361M151.388 83.5189C154.155 80.6575 155.93 78.1473 158.957 74.41M151.194 83.6124C153.048 81.9234 154.805 79.6044 159.42 74.9885M155.015 83.989C156.257 82.3198 157.382 81.0003 158.857 79.6869M155.172 83.9149C156.645 82.3688 157.931 80.7008 159.081 79.5138M1.92459 2.4445V2.4445Z" stroke="#43766C" stroke-width="0.5"/>
</svg>
