<svg xmlns="http://www.w3.org/2000/svg" xmlns:xlink="http://www.w3.org/1999/xlink" width="500" zoomAndPan="magnify" viewBox="0 0 375 374.999991" height="500" preserveAspectRatio="xMidYMid meet" version="1.2"><defs><clipPath id="0f6e5a7c02"><path d="M 19 34 L 356.8125 34 L 356.8125 341.355469 L 19 341.355469 Z M 19 34 "/></clipPath><clipPath id="9edc883464"><path d="M 19 34 L 356.8125 34 L 356.8125 341.355469 L 19 341.355469 Z M 19 34 "/></clipPath></defs><g id="ca41270760"><g clip-rule="nonzero" clip-path="url(#0f6e5a7c02)"><path style=" stroke:none;fill-rule:nonzero;fill:#000000;fill-opacity:1;" d="M 356.707031 256.105469 C 356.695312 256.320312 356.683594 256.433594 356.683594 256.433594 C 355.78125 268.472656 350.234375 277.222656 342.214844 279.261719 C 341.019531 279.566406 339.804688 279.714844 338.578125 279.714844 C 333.785156 279.714844 328.8125 277.421875 324.261719 273.042969 C 322.074219 270.9375 320.085938 268.4375 318.335938 265.640625 C 317.183594 266.347656 315.957031 266.867188 314.671875 267.191406 C 313.304688 267.542969 311.90625 267.65625 310.5 267.558594 C 310.488281 267.558594 310.480469 267.558594 310.46875 267.554688 C 310.277344 267.542969 310.082031 267.527344 309.886719 267.503906 C 309.707031 267.484375 309.53125 267.464844 309.351562 267.4375 C 309.335938 267.4375 309.324219 267.433594 309.308594 267.429688 C 308.875 267.367188 308.441406 267.289062 308.007812 267.1875 C 300.574219 265.390625 295.472656 258.964844 292.5 253.890625 C 292.285156 253.523438 292.078125 253.148438 291.871094 252.773438 C 289.75 254.589844 287.027344 255.59375 284.207031 255.59375 C 283.179688 255.59375 282.136719 255.460938 281.109375 255.1875 C 281.089844 255.179688 281.066406 255.175781 281.042969 255.167969 C 280.296875 254.929688 279.566406 254.648438 278.859375 254.339844 C 278.296875 254.101562 277.738281 253.828125 277.1875 253.519531 C 271.96875 250.703125 267.886719 245.875 265.21875 239.515625 C 263.632812 241.304688 261.722656 242.515625 259.589844 243.058594 C 257.464844 243.597656 255.261719 243.425781 253.109375 242.65625 C 252.191406 242.351562 251.269531 241.933594 250.371094 241.398438 C 248.324219 240.175781 246.605469 238.613281 245.15625 236.917969 C 244.226562 238.832031 243.300781 240.742188 242.382812 242.636719 C 241.449219 244.570312 240.511719 246.503906 239.574219 248.4375 C 221.539062 285.546875 203.925781 318.019531 170.867188 339.558594 C 168.921875 340.722656 166.515625 341.292969 164.105469 341.292969 C 161.15625 341.292969 158.203125 340.4375 156.09375 338.777344 L 130.023438 318.273438 C 111.964844 304.074219 93.90625 289.871094 75.851562 275.667969 C 74.046875 274.25 73.121094 272.394531 73.246094 270.449219 C 73.363281 268.566406 74.484375 266.757812 76.351562 265.371094 L 74.414062 263.847656 C 72.605469 262.425781 71.679688 260.574219 71.804688 258.628906 C 71.921875 256.742188 73.042969 254.933594 74.910156 253.546875 L 72.972656 252.023438 C 71.167969 250.605469 70.238281 248.75 70.363281 246.804688 C 70.484375 244.921875 71.601562 243.109375 73.46875 241.726562 L 71.535156 240.203125 C 69.726562 238.78125 68.800781 236.925781 68.925781 234.980469 C 69.0625 232.808594 70.523438 230.738281 72.929688 229.300781 C 100.191406 211.542969 116.226562 186.191406 128.300781 163.703125 C 125.425781 164.785156 121.574219 165.839844 117.46875 165.839844 C 116.261719 165.839844 115.035156 165.734375 113.804688 165.523438 C 113.671875 165.503906 113.546875 165.480469 113.417969 165.457031 C 113.207031 165.417969 112.992188 165.382812 112.78125 165.335938 C 112.296875 165.230469 111.832031 165.105469 111.378906 164.96875 C 111.371094 164.964844 111.359375 164.964844 111.351562 164.960938 C 111.34375 164.957031 111.335938 164.953125 111.328125 164.953125 C 107.941406 163.914062 105.378906 161.957031 103.933594 159.226562 C 102.902344 157.277344 102.519531 155.042969 102.777344 152.664062 C 99.257812 153.902344 95.789062 154.542969 92.460938 154.542969 C 89.679688 154.542969 87 154.097656 84.46875 153.207031 C 83.738281 152.960938 83.039062 152.675781 82.375 152.351562 C 81.765625 152.066406 81.164062 151.761719 80.574219 151.421875 C 80.554688 151.410156 80.535156 151.398438 80.515625 151.386719 C 77.1875 149.21875 75.179688 145.589844 75.066406 141.777344 C 74.65625 141.875 74.242188 141.972656 73.832031 142.058594 C 73.597656 142.105469 73.34375 142.148438 73.105469 142.191406 C 72.996094 142.214844 72.890625 142.234375 72.78125 142.253906 C 70.738281 142.628906 68.460938 142.90625 66.082031 142.90625 C 61.867188 142.90625 57.386719 142.058594 53.585938 139.460938 C 53.023438 139.078125 52.5 138.65625 52.007812 138.203125 C 51.957031 138.160156 51.910156 138.117188 51.863281 138.074219 C 51.601562 137.828125 51.351562 137.574219 51.109375 137.308594 C 50.328125 136.464844 49.648438 135.539062 49.105469 134.515625 C 48.488281 133.347656 48.050781 132.085938 47.796875 130.757812 C 45.40625 131.183594 43.046875 131.402344 40.761719 131.402344 C 39.945312 131.402344 39.140625 131.375 38.34375 131.320312 C 31.1875 130.816406 25.675781 128.097656 22.589844 123.621094 C 22.539062 123.546875 22.488281 123.472656 22.441406 123.398438 C 22.175781 123 21.921875 122.589844 21.695312 122.160156 C 17.820312 114.835938 20.574219 104.84375 28.882812 96.085938 L 28.886719 96.089844 C 28.964844 96 29.042969 95.921875 29.105469 95.855469 C 30.558594 94.34375 32.167969 92.890625 33.886719 91.527344 C 46.953125 80.773438 81.625 59.316406 120.839844 92.605469 C 133.6875 103.511719 142.519531 114.628906 147.203125 125.761719 C 163.613281 92.105469 181.597656 58.320312 214.980469 36.574219 C 219.3125 33.984375 225.917969 34.347656 229.75 37.359375 L 309.988281 100.460938 C 311.796875 101.882812 312.722656 103.734375 312.601562 105.679688 C 312.480469 107.566406 311.363281 109.375 309.492188 110.761719 L 311.429688 112.285156 C 313.238281 113.707031 314.164062 115.558594 314.039062 117.503906 C 313.921875 119.390625 312.800781 121.199219 310.933594 122.585938 L 312.871094 124.109375 C 314.675781 125.527344 315.601562 127.382812 315.480469 129.328125 C 315.359375 131.214844 314.242188 133.023438 312.371094 134.410156 L 314.308594 135.933594 C 316.113281 137.351562 317.042969 139.203125 316.921875 141.148438 C 316.785156 143.3125 315.332031 145.378906 312.9375 146.820312 C 296.480469 157.542969 284.164062 170.96875 274.339844 184.816406 C 281.417969 184.359375 289.15625 184.675781 297.546875 185.792969 C 348.503906 192.578125 355.890625 232.730469 356.703125 249.675781 C 356.847656 251.839844 356.851562 254.011719 356.707031 256.105469 Z M 356.707031 256.105469 "/></g><path style=" stroke:none;fill-rule:nonzero;fill:#6ec565;fill-opacity:1;" d="M 169.453125 337.285156 C 166.148438 339.265625 160.675781 338.976562 157.742188 336.671875 L 131.671875 316.167969 C 113.617188 301.96875 95.558594 287.769531 77.503906 273.5625 C 76.730469 272.957031 75.828125 271.953125 75.914062 270.621094 C 75.992188 269.375 76.945312 268.109375 78.558594 267.109375 L 154.65625 326.953125 C 156.765625 328.613281 159.714844 329.46875 162.667969 329.46875 C 165.074219 329.46875 167.480469 328.898438 169.425781 327.734375 C 201.515625 306.832031 219.371094 274.804688 235.28125 242.457031 C 235.890625 244.191406 236.449219 245.960938 236.945312 247.730469 C 219.167969 284.28125 201.753906 316.242188 169.453125 337.285156 Z M 314.253906 140.976562 C 314.335938 139.648438 313.433594 138.648438 312.660156 138.039062 L 310.039062 135.980469 C 290.378906 149.1875 276.179688 166.789062 264.433594 186.050781 C 266.527344 185.652344 268.695312 185.335938 270.933594 185.101562 C 281.058594 170.542969 294.101562 155.894531 311.5 144.5625 C 311.511719 144.550781 311.527344 144.542969 311.542969 144.53125 C 313.183594 143.550781 314.171875 142.257812 314.253906 140.976562 Z M 312.8125 129.15625 C 312.898438 127.824219 311.992188 126.820312 311.21875 126.214844 L 308.601562 124.152344 C 284.117188 140.605469 268.097656 163.871094 254.734375 188.671875 C 256.679688 187.964844 258.71875 187.359375 260.828125 186.835938 C 273.285156 165.957031 288.441406 146.820312 310.0625 132.734375 C 310.078125 132.726562 310.089844 132.71875 310.105469 132.707031 C 311.746094 131.726562 312.730469 130.433594 312.8125 129.15625 Z M 74.472656 258.800781 C 74.386719 260.128906 75.292969 261.136719 76.066406 261.742188 L 156.304688 324.847656 C 159.234375 327.152344 164.707031 327.441406 168.011719 325.464844 C 200.207031 304.488281 217.949219 271.808594 233.980469 239.035156 C 233.792969 238.570312 233.609375 238.097656 233.414062 237.644531 C 232.941406 236.539062 232.449219 235.480469 231.945312 234.460938 C 216.5 265.488281 198.808594 295.835938 167.988281 315.914062 C 166.039062 317.078125 163.632812 317.648438 161.226562 317.648438 C 158.277344 317.648438 155.324219 316.792969 153.214844 315.132812 L 77.121094 255.289062 C 75.503906 256.285156 74.550781 257.550781 74.472656 258.800781 Z M 311.375 117.332031 C 311.457031 116.003906 310.554688 115 309.78125 114.390625 L 307.152344 112.320312 C 302.695312 115.316406 298.371094 118.628906 294.28125 122.199219 C 292.203125 124.003906 290.167969 125.890625 288.230469 127.808594 C 268.703125 147.03125 255.492188 171.71875 244.675781 193.621094 C 245.449219 193.121094 246.246094 192.628906 247.089844 192.152344 C 248.296875 191.476562 249.558594 190.859375 250.847656 190.273438 C 264.949219 163.589844 281.820312 138.371094 308.621094 120.914062 C 308.636719 120.902344 308.652344 120.894531 308.667969 120.886719 C 310.304688 119.90625 311.292969 118.609375 311.375 117.332031 Z M 73.03125 246.976562 C 72.949219 248.308594 73.851562 249.3125 74.625 249.921875 L 154.867188 313.027344 C 157.796875 315.332031 163.265625 315.617188 166.574219 313.640625 C 197.34375 293.59375 214.914062 262.851562 230.40625 231.554688 C 230.222656 231.234375 230.039062 230.910156 229.855469 230.601562 C 229.839844 230.574219 229.824219 230.542969 229.808594 230.515625 C 229.1875 229.496094 228.566406 228.582031 227.945312 227.742188 C 211.328125 260.4375 194.359375 285.972656 166.550781 304.089844 C 164.621094 305.246094 162.214844 305.820312 159.796875 305.820312 C 157.484375 305.820312 155.15625 305.296875 153.207031 304.242188 C 153.113281 304.195312 153.019531 304.144531 152.925781 304.085938 C 152.554688 303.878906 152.148438 303.605469 151.773438 303.3125 C 148.851562 301.015625 145.933594 298.71875 143.015625 296.425781 C 139.808594 293.898438 136.597656 291.375 133.394531 288.855469 L 106.984375 268.085938 C 104.445312 266.085938 101.910156 264.09375 99.375 262.101562 L 98.609375 261.5 C 96.277344 259.664062 93.945312 257.828125 91.617188 255.996094 L 75.679688 243.464844 C 74.0625 244.460938 73.113281 245.726562 73.03125 246.976562 Z M 145.910156 134.550781 C 147.636719 135.117188 149.34375 135.695312 151.023438 136.289062 C 165.304688 106.421875 180.316406 75.777344 206.019531 52.648438 C 206.328125 52.375 206.746094 52.253906 207.152344 52.328125 C 207.558594 52.402344 207.90625 52.660156 208.097656 53.027344 C 208.773438 54.324219 209.75 55.476562 210.917969 56.363281 C 216.292969 60.449219 224.457031 60.394531 230.773438 56.230469 C 232.128906 55.332031 233.300781 54.238281 234.164062 53.058594 C 234.375 52.765625 234.699219 52.574219 235.058594 52.523438 C 235.417969 52.472656 235.78125 52.574219 236.066406 52.796875 L 288.0625 93.691406 C 288.464844 94.007812 288.652344 94.527344 288.542969 95.03125 C 288.433594 95.53125 288.050781 95.925781 287.550781 96.046875 C 285.769531 96.476562 284.082031 97.195312 282.667969 98.128906 C 280.214844 99.738281 278.75 102.253906 278.640625 105.019531 C 278.527344 107.878906 279.839844 110.589844 282.246094 112.460938 C 283.515625 113.449219 284.972656 114.203125 286.578125 114.707031 C 287.035156 114.851562 287.382812 115.230469 287.484375 115.699219 C 287.585938 116.171875 287.425781 116.660156 287.070312 116.980469 C 264.996094 136.839844 250.847656 162.5 238.191406 188.390625 C 239.570312 189.691406 240.941406 191.035156 242.296875 192.394531 C 253.210938 170.304688 266.546875 145.402344 286.355469 125.902344 C 288.332031 123.945312 290.410156 122.019531 292.527344 120.179688 C 297.164062 116.132812 302.09375 112.402344 307.183594 109.089844 C 307.195312 109.078125 307.210938 109.070312 307.226562 109.0625 C 308.867188 108.082031 309.851562 106.789062 309.933594 105.511719 C 310.019531 104.179688 309.113281 103.175781 308.339844 102.566406 L 228.101562 39.464844 C 226.480469 38.191406 224.085938 37.53125 221.707031 37.53125 C 219.785156 37.53125 217.871094 37.960938 216.394531 38.847656 C 181.160156 61.800781 163.230469 98.777344 145.910156 134.550781 Z M 71.59375 235.152344 C 71.507812 236.484375 72.414062 237.488281 73.1875 238.097656 L 93.265625 253.890625 C 95.597656 255.722656 97.929688 257.554688 100.261719 259.394531 L 101.027344 259.996094 C 103.5625 261.988281 106.097656 263.980469 108.636719 265.976562 L 135.042969 286.75 C 138.25 289.269531 141.460938 291.792969 144.664062 294.320312 C 147.585938 296.613281 150.503906 298.90625 153.425781 301.207031 C 153.691406 301.414062 153.984375 301.609375 154.289062 301.78125 C 154.316406 301.792969 154.425781 301.855469 154.453125 301.871094 C 157.609375 303.59375 162.203125 303.570312 165.136719 301.820312 C 192.703125 283.855469 209.5 258.292969 226.101562 225.472656 C 226.050781 225.417969 226.003906 225.359375 225.953125 225.304688 L 225.785156 225.109375 C 224.636719 223.792969 223.464844 222.511719 222.296875 221.257812 C 210.191406 245.503906 196.375 269.238281 175.507812 288.011719 C 175.257812 288.234375 174.941406 288.355469 174.613281 288.355469 C 174.535156 288.355469 174.453125 288.347656 174.375 288.332031 C 173.96875 288.261719 173.621094 288.003906 173.429688 287.636719 C 172.753906 286.339844 171.777344 285.1875 170.609375 284.300781 C 165.234375 280.214844 157.066406 280.269531 150.753906 284.433594 C 149.394531 285.332031 148.222656 286.425781 147.363281 287.605469 C 147.148438 287.898438 146.824219 288.089844 146.464844 288.140625 C 146.105469 288.191406 145.742188 288.089844 145.460938 287.867188 L 93.460938 246.972656 C 93.058594 246.65625 92.875 246.136719 92.980469 245.632812 C 93.089844 245.132812 93.476562 244.738281 93.972656 244.617188 C 95.753906 244.1875 97.441406 243.46875 98.859375 242.535156 C 101.308594 240.921875 102.777344 238.410156 102.886719 235.640625 C 103 232.78125 101.6875 230.070312 99.28125 228.203125 C 98.011719 227.214844 96.550781 226.460938 94.949219 225.957031 C 94.492188 225.8125 94.144531 225.433594 94.042969 224.964844 C 93.941406 224.492188 94.097656 224.003906 94.457031 223.683594 C 112.1875 207.730469 124.800781 188.035156 135.640625 167.488281 C 133.839844 166.886719 132.035156 166.308594 130.230469 165.761719 C 118.042969 188.351562 101.832031 213.667969 74.34375 231.574219 C 72.664062 232.582031 71.675781 233.875 71.59375 235.152344 Z M 147.925781 171.949219 C 148.765625 172.28125 149.625 172.632812 150.480469 172.984375 C 145.25 193.542969 144.347656 217.140625 159.269531 228.917969 C 164.242188 232.839844 169.582031 234.8125 175.199219 234.8125 C 177.113281 234.8125 179.058594 234.585938 181.03125 234.128906 C 192.972656 231.363281 203.6875 220.890625 211.40625 210.546875 C 212.347656 211.390625 213.292969 212.261719 214.230469 213.140625 C 214.746094 213.621094 215.261719 214.117188 215.789062 214.625 C 215.921875 214.75 216.058594 214.882812 216.195312 215.015625 L 216.25 215.066406 C 217.625 216.394531 218.992188 217.78125 220.339844 219.1875 C 208.476562 243.042969 195.019531 266.417969 174.90625 284.941406 C 174.160156 283.886719 173.253906 282.945312 172.226562 282.164062 C 165.960938 277.40625 156.527344 277.417969 149.285156 282.199219 C 148.058594 283.007812 146.984375 283.929688 146.078125 284.945312 L 97.105469 246.433594 C 98.257812 245.980469 99.347656 245.421875 100.328125 244.777344 C 103.511719 242.683594 105.417969 239.390625 105.5625 235.746094 C 105.707031 232.011719 104.019531 228.492188 100.925781 226.089844 C 99.976562 225.351562 98.949219 224.726562 97.847656 224.210938 C 115.15625 208.152344 127.542969 188.640625 138.210938 168.351562 C 141.386719 169.449219 144.648438 170.65625 147.925781 171.949219 Z M 146.34375 270.277344 C 146.609375 270.589844 146.984375 270.75 147.363281 270.75 C 147.667969 270.75 147.976562 270.644531 148.226562 270.433594 C 155.292969 264.449219 161.75 258.042969 167.96875 250.851562 C 168.453125 250.292969 168.390625 249.445312 167.832031 248.960938 C 167.273438 248.476562 166.429688 248.539062 165.949219 249.097656 C 159.820312 256.1875 153.457031 262.496094 146.5 268.386719 C 145.9375 268.867188 145.867188 269.710938 146.34375 270.277344 Z M 132.070312 239.734375 C 129.292969 242.445312 127.832031 246.121094 128.0625 249.816406 C 128.273438 253.179688 129.882812 256.164062 132.597656 258.21875 C 135.609375 260.5 139.269531 261.625 142.871094 261.625 C 146.949219 261.625 150.953125 260.183594 153.875 257.335938 C 156.394531 254.878906 157.667969 251.519531 157.46875 247.878906 C 157.25 244.003906 155.394531 240.429688 152.367188 238.078125 C 146.46875 233.488281 137.742188 234.199219 132.070312 239.734375 Z M 236.148438 186.480469 C 235.027344 185.445312 233.902344 184.421875 232.792969 183.445312 C 232.652344 183.316406 232.515625 183.195312 232.359375 183.0625 C 230.847656 181.726562 229.296875 180.40625 227.652344 179.039062 C 235.355469 156.582031 240.035156 125.773438 222.257812 111.746094 C 215.574219 106.472656 208.238281 104.710938 200.457031 106.511719 C 184.261719 110.265625 170.300781 128.277344 163.042969 140.84375 C 159.941406 139.582031 156.757812 138.359375 153.554688 137.195312 C 167.464844 108.109375 182.09375 78.308594 206.621094 55.722656 C 207.367188 56.773438 208.273438 57.71875 209.300781 58.496094 C 215.566406 63.253906 225 63.242188 232.242188 58.464844 C 233.46875 57.65625 234.542969 56.734375 235.449219 55.71875 L 284.421875 94.230469 C 283.269531 94.683594 282.179688 95.242188 281.199219 95.886719 C 278.019531 97.980469 276.109375 101.269531 275.964844 104.914062 C 275.820312 108.648438 277.511719 112.167969 280.605469 114.574219 C 281.550781 115.308594 282.578125 115.9375 283.679688 116.449219 C 262.367188 136.226562 248.519531 161.230469 236.148438 186.480469 Z M 264.5625 95.503906 C 265.128906 95.027344 265.199219 94.183594 264.722656 93.617188 C 264.246094 93.054688 263.402344 92.984375 262.839844 93.460938 C 255.773438 99.445312 249.316406 105.851562 243.097656 113.042969 C 242.613281 113.601562 242.675781 114.449219 243.230469 114.933594 C 243.484375 115.152344 243.796875 115.261719 244.105469 115.261719 C 244.480469 115.261719 244.855469 115.101562 245.117188 114.796875 C 251.246094 107.710938 257.605469 101.398438 264.5625 95.503906 Z M 229.160156 102.585938 C 231.765625 104.613281 234.921875 105.605469 238.121094 105.605469 C 242.167969 105.605469 246.289062 104.019531 249.457031 100.929688 C 252.234375 98.21875 253.695312 94.542969 253.464844 90.847656 C 253.253906 87.484375 251.644531 84.5 248.929688 82.445312 C 242.5 77.578125 233.152344 77.96875 227.652344 83.328125 C 225.132812 85.785156 223.855469 89.144531 224.058594 92.785156 C 224.273438 96.660156 226.132812 100.234375 229.160156 102.585938 Z M 155.316406 175.023438 C 155.023438 174.894531 154.734375 174.765625 154.445312 174.644531 C 153.960938 174.433594 153.484375 174.234375 153.003906 174.03125 C 151.808594 178.773438 150.847656 183.660156 150.277344 188.484375 C 148.800781 200.972656 149.453125 217.761719 160.925781 226.8125 C 166.917969 231.542969 173.480469 233.128906 180.429688 231.519531 C 191.261719 229.007812 201.667969 219.078125 209.386719 208.761719 C 206.882812 206.582031 204.28125 204.425781 201.625 202.347656 C 200.546875 201.503906 199.464844 200.679688 198.386719 199.871094 C 193.546875 196.253906 188.375 192.75 183.023438 189.457031 C 181.964844 188.804688 180.910156 188.171875 179.867188 187.554688 C 175.621094 185.042969 171.1875 182.621094 166.691406 180.351562 C 162.949219 178.472656 159.121094 176.679688 155.316406 175.023438 Z M 225.417969 177.226562 C 228.011719 169.46875 230.242188 160.71875 231.25 152.179688 C 232.722656 139.691406 232.074219 122.902344 220.601562 113.847656 C 216.105469 110.300781 211.289062 108.515625 206.242188 108.515625 C 204.539062 108.515625 202.8125 108.714844 201.058594 109.121094 C 186.722656 112.441406 173.117188 128.835938 165.53125 141.875 C 167.269531 142.601562 168.914062 143.308594 170.519531 144.019531 C 173.171875 145.195312 175.90625 146.460938 178.652344 147.785156 C 178.832031 147.875 179.019531 147.96875 179.199219 148.058594 C 180.546875 147.054688 181.960938 146.402344 183.449219 146.109375 C 184.117188 145.941406 184.714844 146.0625 185.238281 146.476562 C 185.601562 146.761719 185.855469 147.136719 186 147.597656 C 186.144531 148.058594 186.140625 148.4375 185.992188 148.75 C 185.777344 149.21875 185.398438 149.535156 184.871094 149.707031 C 184.414062 149.871094 183.984375 150.046875 183.566406 150.230469 C 184.886719 150.90625 186.269531 151.625 187.691406 152.378906 C 191.871094 154.605469 196.035156 156.976562 200.0625 159.429688 C 200.597656 159.753906 201.128906 160.082031 201.660156 160.414062 C 202.953125 160.589844 204.304688 161.230469 205.722656 162.347656 C 206.441406 162.910156 207.074219 163.546875 207.648438 164.234375 C 208.503906 164.800781 209.351562 165.367188 210.191406 165.9375 C 215.453125 169.503906 220.558594 173.304688 225.417969 177.226562 Z M 226.730469 92.636719 C 226.902344 95.738281 228.386719 98.59375 230.800781 100.472656 C 235.648438 104.246094 242.867188 103.617188 247.589844 99.011719 C 249.808594 96.84375 250.980469 93.929688 250.796875 91.015625 C 250.636719 88.445312 249.402344 86.160156 247.320312 84.582031 C 244.816406 82.6875 241.714844 81.75 238.667969 81.75 C 235.25 81.75 231.898438 82.929688 229.515625 85.25 C 227.558594 87.15625 226.570312 89.777344 226.730469 92.636719 Z M 150.726562 240.191406 C 148.605469 238.539062 146.027344 237.730469 143.402344 237.730469 C 140.035156 237.730469 136.589844 239.0625 133.9375 241.652344 C 131.71875 243.816406 130.546875 246.734375 130.730469 249.648438 C 130.890625 252.21875 132.125 254.503906 134.207031 256.078125 C 139.519531 260.101562 147.507812 259.804688 152.011719 255.414062 C 153.96875 253.507812 154.957031 250.882812 154.796875 248.027344 C 154.625 244.925781 153.140625 242.070312 150.726562 240.191406 Z M 150.726562 240.191406 "/><path style=" stroke:none;fill-rule:nonzero;fill:#e4e13e;fill-opacity:1;" d="M 239.980469 241.472656 C 239.542969 242.367188 239.109375 243.265625 238.675781 244.164062 C 237.847656 241.554688 236.894531 238.984375 235.871094 236.589844 C 234.722656 233.898438 233.472656 231.429688 232.164062 229.246094 C 232.125 229.179688 232.089844 229.121094 232.066406 229.085938 C 231.015625 227.351562 229.925781 225.824219 228.855469 224.574219 C 228.824219 224.53125 228.789062 224.492188 228.714844 224.410156 C 228.46875 224.121094 228.222656 223.835938 227.976562 223.550781 L 227.800781 223.351562 C 226.195312 221.511719 224.554688 219.714844 222.933594 218.015625 C 221.355469 216.351562 219.730469 214.710938 218.105469 213.140625 L 218.054688 213.089844 C 217.910156 212.949219 217.761719 212.804688 217.632812 212.683594 C 217.105469 212.175781 216.582031 211.671875 216.054688 211.183594 C 215.070312 210.257812 214.070312 209.339844 213.089844 208.460938 C 212.835938 208.230469 212.582031 208.003906 212.328125 207.777344 L 212.089844 207.566406 C 209.265625 205.070312 206.300781 202.605469 203.269531 200.234375 C 202.179688 199.382812 201.082031 198.546875 199.988281 197.726562 C 195.082031 194.058594 189.84375 190.507812 184.425781 187.171875 C 183.355469 186.515625 182.285156 185.875 181.230469 185.25 C 176.929688 182.707031 172.445312 180.253906 167.890625 177.957031 C 164.101562 176.058594 160.234375 174.242188 156.390625 172.566406 C 156.089844 172.4375 155.792969 172.304688 155.5 172.179688 C 154.523438 171.757812 153.554688 171.351562 152.597656 170.953125 C 151.347656 170.433594 150.117188 169.933594 148.90625 169.457031 C 145.222656 168 141.554688 166.652344 138.003906 165.445312 C 137.984375 165.4375 137.964844 165.433594 137.945312 165.425781 C 135.820312 164.703125 133.667969 164.007812 131.527344 163.347656 C 136.320312 154.328125 140.929688 144.839844 144.738281 136.972656 C 146.945312 137.695312 149.136719 138.445312 151.265625 139.207031 C 154.933594 140.519531 158.59375 141.917969 162.132812 143.363281 L 162.535156 143.527344 C 162.722656 143.605469 162.910156 143.679688 163.109375 143.765625 C 165.359375 144.695312 167.429688 145.578125 169.4375 146.46875 C 172.066406 147.632812 174.773438 148.886719 177.492188 150.195312 C 178.804688 150.832031 180.125 151.488281 181.460938 152.164062 C 183.035156 152.957031 184.710938 153.824219 186.441406 154.742188 C 190.574219 156.945312 194.691406 159.292969 198.679688 161.714844 C 202.097656 163.792969 205.46875 165.960938 208.695312 168.152344 C 214.429688 172.042969 219.992188 176.199219 225.226562 180.5 C 227.125 182.066406 228.882812 183.5625 230.625 185.097656 C 230.742188 185.199219 230.859375 185.296875 231 185.429688 C 232.550781 186.796875 234.113281 188.21875 235.648438 189.660156 L 235.847656 189.847656 C 237.839844 191.714844 239.8125 193.648438 241.71875 195.597656 C 241.734375 195.613281 241.753906 195.628906 241.769531 195.648438 C 234.839844 200.945312 231.144531 207.101562 229.203125 211.726562 C 227.621094 215.488281 229.382812 219.878906 233.125 221.519531 L 238.578125 223.90625 C 238.582031 223.921875 238.589844 223.941406 238.59375 223.957031 C 238.648438 224.160156 238.710938 224.359375 238.769531 224.5625 C 238.847656 224.828125 238.925781 225.097656 239.007812 225.363281 C 239.042969 225.464844 239.070312 225.566406 239.101562 225.667969 C 239.847656 227.972656 241.179688 231.320312 243.347656 234.527344 C 242.214844 236.855469 241.09375 239.171875 239.980469 241.472656 Z M 239.980469 241.472656 "/><path style=" stroke:none;fill-rule:nonzero;fill:#ffffff;fill-opacity:1;" d="M 24.722656 121.996094 C 24.765625 122.066406 24.816406 122.132812 24.863281 122.203125 C 27.265625 125.585938 31.464844 127.742188 36.726562 128.457031 C 36.753906 128.460938 36.78125 128.464844 36.8125 128.46875 C 37.949219 128.621094 39.140625 128.703125 40.371094 128.71875 C 40.449219 128.71875 40.53125 128.71875 40.609375 128.71875 C 43.140625 128.730469 45.84375 128.449219 48.65625 127.859375 C 48.671875 127.855469 48.6875 127.855469 48.703125 127.855469 C 48.714844 127.851562 48.726562 127.851562 48.738281 127.847656 C 53.007812 126.941406 57.371094 125.339844 61.585938 123.105469 C 65.738281 120.902344 69.457031 118.238281 72.636719 115.191406 C 73.171875 114.675781 74.019531 114.695312 74.527344 115.234375 C 75.039062 115.765625 75.019531 116.613281 74.484375 117.125 C 71.125 120.34375 67.207031 123.152344 62.835938 125.472656 C 58.777344 127.625 54.570312 129.222656 50.421875 130.210938 C 50.425781 130.222656 50.425781 130.234375 50.425781 130.246094 C 50.433594 130.292969 50.449219 130.335938 50.457031 130.382812 C 50.988281 132.902344 52.40625 135.152344 54.480469 136.78125 C 54.695312 136.945312 54.902344 137.117188 55.128906 137.273438 C 55.269531 137.367188 55.410156 137.445312 55.550781 137.53125 C 55.8125 137.695312 56.074219 137.859375 56.351562 138.011719 C 56.457031 138.066406 56.5625 138.117188 56.667969 138.167969 C 57.023438 138.347656 57.378906 138.523438 57.757812 138.675781 C 57.792969 138.691406 57.828125 138.707031 57.867188 138.722656 C 60.65625 139.855469 64.058594 140.347656 67.824219 140.152344 C 67.921875 140.148438 68.015625 140.144531 68.113281 140.140625 C 68.65625 140.105469 69.207031 140.054688 69.765625 139.996094 C 69.894531 139.980469 70.023438 139.964844 70.148438 139.949219 C 70.722656 139.878906 71.300781 139.796875 71.882812 139.699219 C 71.9375 139.6875 71.992188 139.679688 72.042969 139.667969 C 72.671875 139.558594 73.304688 139.429688 73.941406 139.285156 C 73.996094 139.273438 74.050781 139.261719 74.109375 139.25 C 74.777344 139.09375 75.453125 138.921875 76.136719 138.726562 C 76.164062 138.71875 76.195312 138.71875 76.226562 138.710938 C 83.046875 136.769531 89.5 133.109375 94.65625 128.222656 C 95.191406 127.710938 96.035156 127.734375 96.542969 128.273438 C 97.050781 128.808594 97.027344 129.65625 96.492188 130.164062 C 91.246094 135.144531 84.722656 138.917969 77.800781 141.03125 C 77.800781 142.707031 78.160156 144.246094 78.882812 145.617188 C 79.734375 147.222656 81.023438 148.519531 82.652344 149.5 C 83.898438 150.15625 85.15625 150.667969 86.417969 151.039062 C 91.242188 152.300781 97.574219 151.730469 104.109375 149.140625 C 104.128906 149.132812 104.152344 149.128906 104.171875 149.125 C 104.195312 149.113281 104.21875 149.109375 104.246094 149.101562 C 104.304688 149.085938 104.367188 149.070312 104.429688 149.0625 C 104.445312 149.058594 104.464844 149.058594 104.484375 149.058594 C 104.492188 149.058594 104.496094 149.054688 104.5 149.054688 C 110.082031 146.566406 114.550781 143.074219 116.632812 141.289062 C 117.195312 140.808594 118.039062 140.875 118.519531 141.4375 C 119 141.996094 118.933594 142.84375 118.371094 143.324219 C 114.203125 146.894531 109.929688 149.628906 105.699219 151.507812 C 104.582031 156.453125 107.144531 160.871094 112.136719 162.402344 C 112.484375 162.507812 112.832031 162.597656 113.179688 162.679688 C 114.035156 162.875 114.945312 163.011719 115.914062 163.078125 C 119.238281 163.308594 122.882812 162.757812 126.519531 161.503906 C 126.574219 161.484375 126.632812 161.464844 126.683594 161.445312 C 126.929688 161.359375 127.171875 161.269531 127.414062 161.179688 C 127.519531 161.140625 127.625 161.101562 127.726562 161.0625 C 127.945312 160.976562 128.167969 160.886719 128.386719 160.796875 C 128.472656 160.757812 128.5625 160.722656 128.648438 160.6875 C 128.9375 160.566406 129.226562 160.441406 129.519531 160.308594 C 129.78125 160.1875 130.042969 160.058594 130.304688 159.933594 C 131.949219 156.792969 133.570312 153.617188 135.136719 150.484375 C 135.445312 149.867188 135.753906 149.25 136.058594 148.636719 C 136.667969 147.410156 137.269531 146.191406 137.859375 144.992188 C 139.632812 141.386719 141.304688 137.925781 142.839844 134.757812 L 143.453125 133.492188 C 144.167969 132.011719 144.890625 130.527344 145.609375 129.039062 C 141.386719 117.5625 132.511719 106.023438 119.113281 94.652344 C 81.433594 62.664062 48.132812 83.269531 35.5625 93.613281 C 33.917969 94.917969 32.398438 96.292969 31.027344 97.71875 L 31.019531 97.722656 L 30.824219 97.925781 C 23.332031 105.828125 20.738281 114.632812 24.058594 120.90625 C 24.257812 121.285156 24.480469 121.644531 24.722656 121.996094 Z M 67.132812 93.4375 C 67.871094 93.367188 68.515625 93.921875 68.578125 94.660156 C 68.972656 99.285156 73.539062 101.652344 77.890625 101.945312 C 80.40625 102.117188 83.109375 101.78125 85.839844 101.011719 C 85.898438 100.988281 85.960938 100.972656 86.023438 100.957031 C 88.035156 100.375 90.058594 99.566406 92.019531 98.511719 C 92.671875 98.164062 93.480469 98.410156 93.828125 99.058594 C 94.179688 99.710938 93.933594 100.523438 93.28125 100.875 C 91.410156 101.878906 89.480469 102.683594 87.542969 103.296875 C 87.515625 107.5 92.082031 109.40625 94.945312 109.878906 C 97.941406 110.371094 101.3125 109.875 104.78125 108.449219 C 105 108.246094 105.28125 108.117188 105.585938 108.09375 C 105.839844 107.976562 106.09375 107.871094 106.351562 107.746094 C 107.015625 107.421875 107.816406 107.699219 108.140625 108.363281 C 108.464844 109.027344 108.1875 109.832031 107.523438 110.15625 C 107.285156 110.269531 107.046875 110.375 106.808594 110.484375 C 106.21875 113.574219 107.953125 116.398438 111.128906 117.359375 C 114.507812 118.378906 118.792969 117.78125 123.195312 115.679688 C 123.863281 115.359375 124.660156 115.644531 124.976562 116.308594 C 125.296875 116.976562 125.011719 117.777344 124.347656 118.09375 C 121.792969 119.316406 118.320312 120.535156 114.648438 120.535156 C 113.234375 120.535156 111.789062 120.355469 110.355469 119.921875 C 106.414062 118.730469 103.988281 115.371094 104.023438 111.578125 C 101.714844 112.34375 99.4375 112.738281 97.269531 112.738281 C 96.328125 112.738281 95.410156 112.667969 94.511719 112.519531 C 89.902344 111.761719 85.296875 108.816406 84.90625 104.011719 C 82.972656 104.4375 81.058594 104.667969 79.214844 104.667969 C 78.707031 104.667969 78.207031 104.652344 77.710938 104.617188 C 72.21875 104.246094 66.441406 101.09375 65.917969 94.886719 C 65.851562 94.148438 66.398438 93.5 67.132812 93.4375 Z M 297.195312 188.445312 C 276.796875 185.730469 260.378906 187.765625 248.398438 194.492188 C 238.601562 199.992188 233.890625 207.464844 231.664062 212.765625 C 230.648438 215.1875 231.785156 218.011719 234.195312 219.066406 L 237.84375 220.664062 C 237.398438 218.210938 237.203125 215.757812 237.269531 213.332031 C 237.289062 212.605469 237.882812 212.027344 238.601562 212.027344 C 238.617188 212.027344 238.628906 212.027344 238.640625 212.027344 C 239.378906 212.050781 239.960938 212.664062 239.941406 213.402344 C 239.851562 216.5625 240.246094 219.773438 241.097656 222.972656 C 241.152344 223.175781 241.203125 223.378906 241.261719 223.582031 C 241.378906 223.988281 241.5 224.398438 241.628906 224.804688 C 241.722656 225.097656 241.820312 225.382812 241.921875 225.667969 C 241.964844 225.796875 242.015625 225.929688 242.0625 226.058594 C 242.125 226.234375 242.1875 226.40625 242.253906 226.578125 C 242.308594 226.722656 242.367188 226.867188 242.425781 227.015625 C 242.496094 227.199219 242.570312 227.378906 242.644531 227.558594 C 242.691406 227.671875 242.742188 227.785156 242.789062 227.898438 C 242.898438 228.15625 243.011719 228.410156 243.125 228.660156 C 243.140625 228.6875 243.152344 228.71875 243.167969 228.75 C 244.570312 231.78125 246.335938 234.371094 248.285156 236.363281 C 248.382812 236.460938 248.480469 236.5625 248.578125 236.660156 C 248.65625 236.734375 248.734375 236.808594 248.808594 236.878906 C 249.695312 237.703125 250.667969 238.457031 251.738281 239.097656 C 256.222656 241.777344 261.207031 240.71875 264.121094 236.574219 C 262.667969 232.167969 261.828125 227.15625 261.671875 221.664062 C 261.652344 220.921875 262.234375 220.308594 262.972656 220.289062 C 263.714844 220.238281 264.324219 220.847656 264.34375 221.589844 C 264.421875 224.332031 264.835938 229.988281 266.738281 235.804688 C 266.75 235.820312 266.757812 235.835938 266.769531 235.847656 C 266.828125 235.933594 266.875 236.023438 266.914062 236.117188 C 266.921875 236.132812 266.933594 236.140625 266.9375 236.15625 C 269.40625 242.753906 273.238281 247.84375 277.414062 250.578125 C 278.535156 251.261719 279.753906 251.851562 281.074219 252.335938 C 282.890625 252.890625 284.71875 252.976562 286.476562 252.53125 C 287.976562 252.148438 289.359375 251.382812 290.597656 250.253906 C 287.519531 243.699219 285.929688 236.320312 286.09375 229.082031 C 286.109375 228.355469 286.707031 227.773438 287.429688 227.773438 C 287.441406 227.773438 287.449219 227.773438 287.460938 227.773438 C 288.199219 227.789062 288.785156 228.402344 288.765625 229.140625 C 288.605469 236.25 290.230469 243.5 293.371094 249.867188 C 293.386719 249.894531 293.40625 249.917969 293.421875 249.945312 C 293.726562 250.566406 294.042969 251.171875 294.371094 251.757812 C 294.421875 251.851562 294.472656 251.941406 294.523438 252.035156 C 294.820312 252.5625 295.125 253.074219 295.4375 253.574219 C 295.488281 253.65625 295.542969 253.738281 295.597656 253.824219 C 295.699219 253.984375 295.800781 254.140625 295.90625 254.296875 C 296.007812 254.457031 296.117188 254.613281 296.226562 254.777344 C 296.289062 254.871094 296.355469 254.964844 296.417969 255.054688 C 296.558594 255.257812 296.703125 255.457031 296.851562 255.660156 C 296.910156 255.742188 296.964844 255.820312 297.023438 255.898438 C 297.171875 256.09375 297.320312 256.292969 297.476562 256.492188 C 297.554688 256.59375 297.632812 256.695312 297.710938 256.792969 C 297.832031 256.945312 297.957031 257.101562 298.085938 257.253906 C 300.414062 260.074219 302.992188 262.199219 305.628906 263.484375 C 305.691406 263.515625 305.75 263.546875 305.808594 263.574219 C 305.996094 263.660156 306.179688 263.746094 306.367188 263.824219 C 306.660156 263.949219 306.960938 264.066406 307.269531 264.175781 C 307.34375 264.203125 307.421875 264.226562 307.496094 264.25 C 307.863281 264.371094 308.234375 264.484375 308.613281 264.574219 C 308.636719 264.582031 308.660156 264.585938 308.683594 264.589844 C 311.5 265.261719 314.394531 264.832031 316.816406 263.421875 C 316.859375 263.394531 316.90625 263.375 316.953125 263.347656 C 316.960938 263.339844 316.96875 263.335938 316.976562 263.332031 C 314.925781 259.582031 313.285156 255.390625 312.152344 250.929688 C 310.9375 246.128906 310.386719 241.332031 310.511719 236.675781 C 310.53125 235.949219 311.128906 235.371094 311.847656 235.371094 C 311.859375 235.371094 311.871094 235.371094 311.886719 235.371094 C 312.621094 235.394531 313.203125 236.007812 313.183594 236.746094 C 313.066406 241.15625 313.589844 245.707031 314.746094 250.269531 C 315.921875 254.910156 317.671875 259.234375 319.875 263.023438 C 319.882812 263.035156 319.894531 263.046875 319.902344 263.0625 C 320.8125 264.617188 321.78125 266.0625 322.796875 267.382812 C 322.835938 267.433594 322.875 267.480469 322.910156 267.53125 C 323.429688 268.199219 323.964844 268.832031 324.503906 269.433594 C 324.648438 269.59375 324.789062 269.75 324.9375 269.90625 C 325.058594 270.039062 325.183594 270.167969 325.308594 270.296875 C 325.511719 270.507812 325.714844 270.714844 325.921875 270.917969 C 326.09375 271.085938 326.269531 271.25 326.441406 271.414062 C 326.574219 271.535156 326.703125 271.65625 326.835938 271.773438 C 327.007812 271.929688 327.183594 272.085938 327.359375 272.234375 C 327.417969 272.28125 327.472656 272.328125 327.53125 272.375 C 331.324219 275.558594 335.421875 277.214844 339.296875 277.003906 C 339.371094 277 339.445312 276.996094 339.519531 276.992188 C 339.660156 276.980469 339.800781 276.964844 339.941406 276.949219 C 340.101562 276.933594 340.261719 276.914062 340.421875 276.886719 C 340.527344 276.871094 340.632812 276.855469 340.738281 276.835938 C 341.011719 276.789062 341.285156 276.734375 341.554688 276.664062 C 348.429688 274.917969 353.203125 267.085938 354.019531 256.222656 C 354.019531 256.214844 354.019531 256.210938 354.019531 256.207031 L 354.039062 255.933594 C 354.039062 255.933594 354.039062 255.929688 354.039062 255.925781 C 354.175781 253.949219 354.171875 251.898438 354.035156 249.828125 C 353.253906 233.527344 346.15625 194.96875 297.195312 188.445312 Z M 332.722656 228.117188 C 330.914062 229.496094 328.9375 230.082031 326.964844 230.082031 C 323.535156 230.082031 320.117188 228.316406 317.605469 225.890625 C 315.949219 224.289062 314.480469 222.332031 313.234375 220.144531 C 311.769531 221.269531 310.089844 221.75 308.367188 221.75 C 305.601562 221.75 302.734375 220.507812 300.480469 218.710938 C 298.132812 216.835938 296.199219 214.210938 294.789062 211.011719 C 293.199219 212.476562 291.183594 213.261719 289.085938 213.261719 C 287.503906 213.261719 285.886719 212.824219 284.371094 211.910156 C 279.765625 209.128906 277.457031 204.058594 276.332031 200.296875 C 276.121094 199.585938 276.523438 198.839844 277.230469 198.628906 C 277.9375 198.414062 278.683594 198.820312 278.894531 199.527344 C 280.292969 204.207031 282.726562 207.792969 285.75 209.617188 C 288.59375 211.335938 291.851562 210.722656 293.742188 208.207031 C 293.664062 207.957031 293.574219 207.714844 293.5 207.460938 C 293.296875 206.75 293.703125 206.007812 294.414062 205.800781 C 295.121094 205.597656 295.863281 206.003906 296.070312 206.714844 C 296.148438 206.988281 296.242188 207.25 296.328125 207.519531 C 296.511719 207.757812 296.605469 208.054688 296.601562 208.351562 C 297.875 211.882812 299.773438 214.71875 302.144531 216.613281 C 304.414062 218.425781 308.886719 220.535156 311.976562 217.703125 C 311.132812 215.851562 310.4375 213.875 309.925781 211.808594 C 309.746094 211.089844 310.183594 210.363281 310.898438 210.183594 C 311.617188 210.003906 312.339844 210.445312 312.519531 211.160156 C 313.058594 213.324219 313.8125 215.367188 314.730469 217.25 C 314.765625 217.308594 314.796875 217.371094 314.824219 217.433594 C 316.082031 219.976562 317.648438 222.207031 319.460938 223.960938 C 322.601562 226.996094 327.414062 228.796875 331.101562 225.984375 C 331.6875 225.535156 332.527344 225.652344 332.976562 226.238281 C 333.421875 226.828125 333.308594 227.667969 332.722656 228.117188 Z M 332.722656 228.117188 "/><g clip-rule="nonzero" clip-path="url(#9edc883464)"><path style=" stroke:none;fill-rule:nonzero;fill:#000000;fill-opacity:1;" d="M 65.914062 94.886719 C 65.851562 94.148438 66.398438 93.5 67.132812 93.4375 C 67.871094 93.367188 68.515625 93.921875 68.578125 94.660156 C 68.972656 99.285156 73.539062 101.652344 77.890625 101.945312 C 80.40625 102.117188 83.109375 101.78125 85.839844 101.011719 C 85.898438 100.988281 85.960938 100.972656 86.023438 100.960938 C 88.035156 100.375 90.058594 99.566406 92.019531 98.511719 C 92.671875 98.164062 93.480469 98.410156 93.828125 99.058594 C 94.179688 99.710938 93.933594 100.523438 93.28125 100.875 C 91.410156 101.878906 89.480469 102.683594 87.542969 103.296875 C 87.515625 107.5 92.082031 109.40625 94.945312 109.878906 C 97.941406 110.371094 101.3125 109.875 104.78125 108.449219 C 105 108.246094 105.28125 108.117188 105.585938 108.09375 C 105.839844 107.976562 106.09375 107.871094 106.351562 107.746094 C 107.015625 107.421875 107.816406 107.699219 108.140625 108.363281 C 108.464844 109.027344 108.1875 109.832031 107.523438 110.15625 C 107.285156 110.269531 107.046875 110.375 106.808594 110.484375 C 106.21875 113.574219 107.953125 116.398438 111.128906 117.359375 C 114.507812 118.378906 118.792969 117.78125 123.195312 115.679688 C 123.863281 115.359375 124.660156 115.644531 124.976562 116.308594 C 125.296875 116.976562 125.011719 117.777344 124.347656 118.09375 C 121.792969 119.316406 118.320312 120.535156 114.648438 120.535156 C 113.234375 120.535156 111.789062 120.355469 110.355469 119.921875 C 106.414062 118.730469 103.988281 115.371094 104.023438 111.578125 C 101.714844 112.34375 99.4375 112.738281 97.269531 112.738281 C 96.328125 112.738281 95.410156 112.667969 94.511719 112.519531 C 89.902344 111.761719 85.296875 108.816406 84.90625 104.011719 C 82.972656 104.4375 81.058594 104.667969 79.214844 104.667969 C 78.707031 104.667969 78.207031 104.652344 77.710938 104.617188 C 72.21875 104.246094 66.441406 101.09375 65.914062 94.886719 Z M 224.058594 92.785156 C 223.855469 89.140625 225.132812 85.785156 227.652344 83.328125 C 233.152344 77.96875 242.5 77.578125 248.929688 82.445312 C 251.644531 84.5 253.253906 87.484375 253.464844 90.847656 C 253.695312 94.542969 252.234375 98.21875 249.457031 100.929688 C 246.289062 104.019531 242.167969 105.605469 238.121094 105.605469 C 234.921875 105.605469 231.765625 104.613281 229.160156 102.585938 C 226.132812 100.234375 224.273438 96.660156 224.058594 92.785156 Z M 229.515625 85.25 C 227.558594 87.15625 226.570312 89.777344 226.730469 92.636719 C 226.902344 95.738281 228.386719 98.59375 230.800781 100.472656 C 235.652344 104.246094 242.867188 103.617188 247.589844 99.011719 C 249.8125 96.84375 250.980469 93.929688 250.796875 91.015625 C 250.636719 88.445312 249.402344 86.160156 247.320312 84.582031 C 244.816406 82.6875 241.71875 81.75 238.667969 81.75 C 235.25 81.75 231.898438 82.929688 229.515625 85.25 Z M 152.367188 238.078125 C 155.394531 240.429688 157.25 244.003906 157.46875 247.878906 C 157.667969 251.519531 156.394531 254.878906 153.875 257.335938 C 150.953125 260.183594 146.949219 261.625 142.871094 261.625 C 139.269531 261.625 135.613281 260.5 132.597656 258.21875 C 129.882812 256.164062 128.273438 253.179688 128.0625 249.816406 C 127.832031 246.121094 129.292969 242.445312 132.070312 239.734375 C 137.742188 234.199219 146.46875 233.488281 152.367188 238.078125 Z M 150.726562 240.191406 C 148.605469 238.539062 146.027344 237.730469 143.402344 237.730469 C 140.035156 237.730469 136.589844 239.0625 133.9375 241.652344 C 131.71875 243.816406 130.546875 246.734375 130.730469 249.648438 C 130.890625 252.21875 132.125 254.503906 134.207031 256.078125 C 139.519531 260.101562 147.507812 259.804688 152.011719 255.414062 C 153.96875 253.507812 154.957031 250.882812 154.796875 248.027344 C 154.625 244.925781 153.140625 242.070312 150.726562 240.191406 Z M 264.722656 93.617188 C 264.246094 93.054688 263.402344 92.984375 262.839844 93.460938 C 255.773438 99.445312 249.316406 105.851562 243.097656 113.042969 C 242.613281 113.601562 242.675781 114.449219 243.234375 114.933594 C 243.484375 115.152344 243.796875 115.261719 244.105469 115.261719 C 244.480469 115.261719 244.855469 115.101562 245.117188 114.796875 C 251.246094 107.710938 257.605469 101.398438 264.566406 95.503906 C 265.128906 95.027344 265.199219 94.183594 264.722656 93.617188 Z M 147.363281 270.75 C 147.667969 270.75 147.976562 270.644531 148.226562 270.433594 C 155.292969 264.449219 161.75 258.042969 167.96875 250.851562 C 168.453125 250.292969 168.390625 249.445312 167.832031 248.960938 C 167.273438 248.476562 166.429688 248.539062 165.949219 249.097656 C 159.820312 256.1875 153.457031 262.496094 146.5 268.386719 C 145.9375 268.867188 145.867188 269.710938 146.34375 270.277344 C 146.609375 270.589844 146.984375 270.75 147.363281 270.75 Z M 356.707031 256.105469 C 356.695312 256.320312 356.683594 256.433594 356.683594 256.433594 C 355.78125 268.472656 350.234375 277.222656 342.214844 279.261719 C 341.019531 279.566406 339.804688 279.714844 338.578125 279.714844 C 333.785156 279.714844 328.8125 277.421875 324.261719 273.042969 C 322.074219 270.9375 320.085938 268.4375 318.335938 265.640625 C 317.183594 266.347656 315.957031 266.867188 314.671875 267.191406 C 313.304688 267.542969 311.90625 267.65625 310.5 267.558594 C 310.488281 267.558594 310.480469 267.558594 310.46875 267.554688 C 310.277344 267.542969 310.082031 267.527344 309.886719 267.503906 C 309.707031 267.484375 309.53125 267.464844 309.351562 267.4375 C 309.335938 267.4375 309.324219 267.433594 309.308594 267.429688 C 308.875 267.367188 308.441406 267.289062 308.007812 267.1875 C 300.574219 265.390625 295.472656 258.964844 292.5 253.890625 C 292.285156 253.523438 292.078125 253.148438 291.871094 252.773438 C 289.75 254.589844 287.027344 255.59375 284.207031 255.59375 C 283.179688 255.59375 282.136719 255.460938 281.109375 255.1875 C 281.089844 255.179688 281.066406 255.175781 281.042969 255.167969 C 280.296875 254.929688 279.566406 254.648438 278.859375 254.339844 C 278.296875 254.101562 277.738281 253.828125 277.1875 253.519531 C 271.96875 250.703125 267.886719 245.875 265.21875 239.515625 C 263.632812 241.304688 261.722656 242.515625 259.589844 243.058594 C 257.464844 243.597656 255.261719 243.425781 253.109375 242.65625 C 252.191406 242.351562 251.269531 241.933594 250.371094 241.398438 C 248.324219 240.175781 246.605469 238.613281 245.15625 236.917969 C 244.226562 238.832031 243.300781 240.742188 242.382812 242.636719 C 241.449219 244.570312 240.511719 246.503906 239.574219 248.4375 C 221.539062 285.546875 203.925781 318.019531 170.867188 339.558594 C 168.921875 340.722656 166.515625 341.292969 164.105469 341.292969 C 161.15625 341.292969 158.203125 340.4375 156.09375 338.777344 L 130.023438 318.273438 C 111.964844 304.074219 93.90625 289.871094 75.851562 275.667969 C 74.046875 274.25 73.121094 272.394531 73.246094 270.449219 C 73.363281 268.566406 74.484375 266.757812 76.351562 265.371094 L 74.414062 263.847656 C 72.605469 262.425781 71.679688 260.574219 71.804688 258.628906 C 71.921875 256.742188 73.042969 254.933594 74.910156 253.546875 L 72.972656 252.023438 C 71.167969 250.605469 70.238281 248.75 70.363281 246.804688 C 70.484375 244.921875 71.601562 243.109375 73.46875 241.726562 L 71.535156 240.203125 C 69.726562 238.78125 68.800781 236.925781 68.925781 234.980469 C 69.0625 232.808594 70.523438 230.738281 72.929688 229.300781 C 100.191406 211.542969 116.226562 186.191406 128.300781 163.703125 C 125.425781 164.785156 121.574219 165.839844 117.46875 165.839844 C 116.261719 165.839844 115.035156 165.734375 113.804688 165.523438 C 113.671875 165.503906 113.546875 165.480469 113.417969 165.457031 C 113.207031 165.417969 112.992188 165.382812 112.78125 165.335938 C 112.296875 165.230469 111.832031 165.105469 111.378906 164.96875 C 111.371094 164.964844 111.359375 164.964844 111.351562 164.960938 C 111.34375 164.957031 111.335938 164.953125 111.328125 164.953125 C 107.941406 163.914062 105.378906 161.957031 103.933594 159.226562 C 102.902344 157.277344 102.519531 155.042969 102.777344 152.664062 C 99.257812 153.902344 95.789062 154.542969 92.460938 154.542969 C 89.679688 154.542969 87 154.097656 84.46875 153.207031 C 83.738281 152.960938 83.039062 152.675781 82.375 152.351562 C 81.765625 152.066406 81.164062 151.761719 80.574219 151.421875 C 80.554688 151.410156 80.535156 151.398438 80.515625 151.386719 C 77.1875 149.21875 75.179688 145.589844 75.066406 141.777344 C 74.65625 141.875 74.242188 141.972656 73.832031 142.058594 C 73.597656 142.105469 73.34375 142.148438 73.105469 142.191406 C 72.996094 142.214844 72.890625 142.234375 72.78125 142.253906 C 70.738281 142.628906 68.460938 142.90625 66.082031 142.90625 C 61.867188 142.90625 57.386719 142.058594 53.585938 139.460938 C 53.023438 139.078125 52.5 138.65625 52.007812 138.203125 C 51.957031 138.160156 51.910156 138.117188 51.863281 138.074219 C 51.601562 137.828125 51.351562 137.574219 51.109375 137.308594 C 50.328125 136.464844 49.648438 135.539062 49.105469 134.515625 C 48.488281 133.347656 48.050781 132.085938 47.796875 130.757812 C 45.40625 131.183594 43.046875 131.402344 40.761719 131.402344 C 39.945312 131.402344 39.140625 131.375 38.34375 131.320312 C 31.1875 130.816406 25.675781 128.097656 22.589844 123.621094 C 22.539062 123.546875 22.488281 123.472656 22.441406 123.398438 C 22.175781 123 21.921875 122.589844 21.695312 122.160156 C 17.820312 114.835938 20.574219 104.84375 28.882812 96.085938 L 28.886719 96.089844 C 28.964844 96 29.042969 95.921875 29.105469 95.855469 C 30.558594 94.34375 32.167969 92.890625 33.886719 91.527344 C 46.953125 80.773438 81.625 59.316406 120.839844 92.605469 C 133.6875 103.511719 142.519531 114.628906 147.203125 125.761719 C 163.613281 92.105469 181.597656 58.320312 214.980469 36.574219 C 219.3125 33.984375 225.917969 34.347656 229.75 37.359375 L 309.988281 100.460938 C 311.796875 101.882812 312.722656 103.734375 312.601562 105.679688 C 312.480469 107.566406 311.363281 109.375 309.492188 110.761719 L 311.429688 112.285156 C 313.238281 113.707031 314.164062 115.558594 314.039062 117.503906 C 313.921875 119.390625 312.800781 121.199219 310.933594 122.585938 L 312.871094 124.109375 C 314.675781 125.527344 315.601562 127.382812 315.480469 129.328125 C 315.359375 131.214844 314.242188 133.023438 312.371094 134.410156 L 314.308594 135.933594 C 316.113281 137.351562 317.042969 139.203125 316.921875 141.148438 C 316.785156 143.3125 315.332031 145.378906 312.9375 146.820312 C 296.480469 157.542969 284.164062 170.96875 274.339844 184.816406 C 281.417969 184.359375 289.15625 184.675781 297.546875 185.792969 C 348.503906 192.578125 355.890625 232.730469 356.703125 249.675781 C 356.847656 251.839844 356.851562 254.011719 356.707031 256.105469 Z M 354.035156 249.832031 C 353.253906 233.527344 346.15625 194.96875 297.195312 188.445312 C 276.796875 185.730469 260.378906 187.765625 248.398438 194.492188 C 238.601562 199.992188 233.890625 207.464844 231.664062 212.765625 C 230.648438 215.1875 231.785156 218.011719 234.195312 219.066406 L 237.84375 220.664062 C 237.398438 218.210938 237.203125 215.757812 237.269531 213.332031 C 237.289062 212.605469 237.882812 212.027344 238.601562 212.027344 C 238.617188 212.027344 238.628906 212.027344 238.640625 212.027344 C 239.378906 212.050781 239.960938 212.664062 239.941406 213.402344 C 239.851562 216.5625 240.246094 219.773438 241.097656 222.972656 C 241.152344 223.175781 241.203125 223.378906 241.261719 223.582031 C 241.378906 223.988281 241.5 224.398438 241.628906 224.804688 C 241.722656 225.097656 241.820312 225.382812 241.921875 225.667969 C 241.964844 225.796875 242.015625 225.929688 242.0625 226.058594 C 242.125 226.234375 242.1875 226.40625 242.253906 226.578125 C 242.308594 226.722656 242.367188 226.867188 242.425781 227.015625 C 242.496094 227.199219 242.570312 227.378906 242.644531 227.558594 C 242.691406 227.671875 242.742188 227.785156 242.789062 227.898438 C 242.898438 228.15625 243.011719 228.410156 243.125 228.660156 C 243.140625 228.6875 243.152344 228.71875 243.167969 228.75 C 244.570312 231.78125 246.335938 234.371094 248.285156 236.363281 C 248.382812 236.460938 248.480469 236.5625 248.578125 236.660156 C 248.65625 236.734375 248.734375 236.808594 248.808594 236.878906 C 249.695312 237.703125 250.667969 238.457031 251.738281 239.097656 C 256.222656 241.777344 261.207031 240.71875 264.121094 236.574219 C 262.667969 232.167969 261.828125 227.15625 261.671875 221.664062 C 261.652344 220.921875 262.234375 220.308594 262.972656 220.289062 C 263.714844 220.238281 264.324219 220.847656 264.34375 221.589844 C 264.421875 224.332031 264.835938 229.988281 266.738281 235.804688 C 266.75 235.820312 266.757812 235.835938 266.769531 235.847656 C 266.828125 235.933594 266.875 236.023438 266.914062 236.117188 C 266.921875 236.132812 266.933594 236.144531 266.9375 236.15625 C 269.40625 242.753906 273.238281 247.84375 277.414062 250.578125 C 278.535156 251.261719 279.753906 251.851562 281.074219 252.335938 C 282.890625 252.890625 284.71875 252.976562 286.476562 252.53125 C 287.976562 252.148438 289.359375 251.382812 290.597656 250.253906 C 287.519531 243.699219 285.929688 236.320312 286.09375 229.082031 C 286.109375 228.355469 286.707031 227.773438 287.429688 227.773438 C 287.441406 227.773438 287.449219 227.773438 287.460938 227.773438 C 288.199219 227.789062 288.785156 228.402344 288.765625 229.140625 C 288.605469 236.25 290.230469 243.5 293.371094 249.867188 C 293.386719 249.894531 293.40625 249.917969 293.421875 249.945312 C 293.726562 250.566406 294.042969 251.171875 294.371094 251.757812 C 294.421875 251.851562 294.472656 251.941406 294.523438 252.035156 C 294.820312 252.5625 295.125 253.074219 295.4375 253.574219 C 295.492188 253.65625 295.542969 253.738281 295.597656 253.824219 C 295.699219 253.984375 295.800781 254.140625 295.90625 254.296875 C 296.007812 254.457031 296.117188 254.613281 296.226562 254.777344 C 296.289062 254.871094 296.355469 254.964844 296.417969 255.058594 C 296.558594 255.257812 296.703125 255.457031 296.851562 255.660156 C 296.910156 255.742188 296.964844 255.820312 297.023438 255.898438 C 297.171875 256.09375 297.320312 256.292969 297.476562 256.492188 C 297.554688 256.59375 297.632812 256.695312 297.710938 256.792969 C 297.832031 256.945312 297.957031 257.101562 298.085938 257.253906 C 300.414062 260.074219 302.992188 262.199219 305.628906 263.484375 C 305.691406 263.515625 305.75 263.546875 305.808594 263.574219 C 305.996094 263.660156 306.179688 263.746094 306.367188 263.824219 C 306.660156 263.949219 306.960938 264.066406 307.269531 264.175781 C 307.34375 264.203125 307.421875 264.226562 307.496094 264.25 C 307.863281 264.371094 308.234375 264.484375 308.613281 264.574219 C 308.636719 264.582031 308.660156 264.585938 308.683594 264.589844 C 311.5 265.261719 314.394531 264.832031 316.816406 263.421875 C 316.859375 263.394531 316.90625 263.375 316.953125 263.347656 C 316.960938 263.339844 316.96875 263.335938 316.976562 263.332031 C 314.925781 259.582031 313.285156 255.390625 312.152344 250.929688 C 310.9375 246.128906 310.386719 241.332031 310.511719 236.675781 C 310.53125 235.949219 311.128906 235.371094 311.847656 235.371094 C 311.859375 235.371094 311.871094 235.371094 311.886719 235.371094 C 312.621094 235.394531 313.203125 236.007812 313.183594 236.746094 C 313.066406 241.15625 313.589844 245.707031 314.746094 250.269531 C 315.921875 254.910156 317.671875 259.234375 319.875 263.023438 C 319.882812 263.035156 319.894531 263.046875 319.902344 263.0625 C 320.8125 264.617188 321.78125 266.0625 322.796875 267.382812 C 322.835938 267.433594 322.875 267.480469 322.910156 267.53125 C 323.429688 268.199219 323.964844 268.832031 324.503906 269.433594 C 324.648438 269.59375 324.789062 269.75 324.9375 269.90625 C 325.058594 270.039062 325.183594 270.167969 325.308594 270.296875 C 325.511719 270.507812 325.714844 270.714844 325.921875 270.917969 C 326.09375 271.085938 326.269531 271.25 326.441406 271.414062 C 326.574219 271.535156 326.703125 271.65625 326.835938 271.773438 C 327.007812 271.929688 327.183594 272.085938 327.359375 272.234375 C 327.417969 272.28125 327.472656 272.328125 327.53125 272.375 C 331.324219 275.558594 335.421875 277.214844 339.300781 277.003906 C 339.371094 277 339.445312 276.996094 339.519531 276.992188 C 339.660156 276.980469 339.800781 276.964844 339.941406 276.949219 C 340.101562 276.933594 340.261719 276.914062 340.421875 276.886719 C 340.527344 276.871094 340.636719 276.855469 340.738281 276.835938 C 341.011719 276.789062 341.285156 276.734375 341.554688 276.664062 C 348.429688 274.917969 353.203125 267.085938 354.019531 256.222656 C 354.019531 256.214844 354.019531 256.210938 354.019531 256.207031 L 354.039062 255.933594 C 354.039062 255.933594 354.039062 255.929688 354.039062 255.925781 C 354.175781 253.953125 354.171875 251.898438 354.035156 249.832031 Z M 243.347656 234.53125 C 241.175781 231.324219 239.84375 227.976562 239.101562 225.671875 C 239.066406 225.570312 239.039062 225.46875 239.007812 225.363281 C 238.925781 225.101562 238.84375 224.832031 238.765625 224.5625 C 238.707031 224.363281 238.648438 224.164062 238.59375 223.960938 C 238.585938 223.941406 238.582031 223.925781 238.578125 223.90625 L 233.125 221.519531 C 229.378906 219.882812 227.621094 215.488281 229.199219 211.730469 C 231.140625 207.105469 234.835938 200.945312 241.765625 195.648438 C 241.75 195.632812 241.734375 195.617188 241.71875 195.597656 C 239.8125 193.652344 237.835938 191.71875 235.847656 189.847656 L 235.648438 189.664062 C 234.113281 188.222656 232.550781 186.800781 231 185.433594 C 230.855469 185.300781 230.742188 185.203125 230.625 185.097656 C 228.878906 183.5625 227.125 182.070312 225.226562 180.503906 C 219.992188 176.199219 214.429688 172.046875 208.691406 168.15625 C 205.464844 165.960938 202.097656 163.796875 198.679688 161.71875 C 194.691406 159.292969 190.574219 156.949219 186.4375 154.746094 C 184.707031 153.828125 183.03125 152.957031 181.457031 152.164062 C 180.125 151.488281 178.800781 150.835938 177.488281 150.199219 C 174.773438 148.886719 172.0625 147.632812 169.4375 146.472656 C 167.429688 145.582031 165.359375 144.695312 163.109375 143.765625 C 162.910156 143.683594 162.722656 143.609375 162.535156 143.53125 L 162.132812 143.367188 C 158.59375 141.921875 154.933594 140.523438 151.261719 139.210938 C 149.132812 138.449219 146.941406 137.695312 144.738281 136.976562 C 140.929688 144.839844 136.320312 154.328125 131.527344 163.351562 C 133.667969 164.007812 135.820312 164.707031 137.945312 165.429688 C 137.964844 165.433594 137.984375 165.441406 138 165.449219 C 141.554688 166.65625 145.222656 168.003906 148.90625 169.460938 C 150.117188 169.9375 151.347656 170.4375 152.597656 170.957031 C 153.554688 171.355469 154.519531 171.761719 155.5 172.183594 C 155.792969 172.308594 156.089844 172.4375 156.386719 172.570312 C 160.230469 174.246094 164.101562 176.058594 167.890625 177.960938 C 172.441406 180.257812 176.929688 182.710938 181.230469 185.25 C 182.285156 185.878906 183.355469 186.515625 184.421875 187.175781 C 189.84375 190.507812 195.082031 194.058594 199.984375 197.726562 C 201.082031 198.550781 202.175781 199.386719 203.269531 200.238281 C 206.300781 202.609375 209.265625 205.074219 212.085938 207.566406 L 212.328125 207.78125 C 212.582031 208.007812 212.835938 208.234375 213.089844 208.464844 C 214.070312 209.339844 215.070312 210.261719 216.054688 211.183594 C 216.578125 211.675781 217.105469 212.175781 217.628906 212.683594 C 217.761719 212.808594 217.910156 212.953125 218.054688 213.09375 L 218.105469 213.144531 C 219.730469 214.714844 221.355469 216.355469 222.933594 218.019531 C 224.554688 219.71875 226.195312 221.515625 227.800781 223.355469 L 227.972656 223.554688 C 228.21875 223.835938 228.46875 224.125 228.714844 224.414062 C 228.785156 224.496094 228.820312 224.535156 228.855469 224.578125 C 229.925781 225.828125 231.011719 227.355469 232.0625 229.089844 C 232.089844 229.125 232.125 229.183594 232.160156 229.25 C 233.472656 231.433594 234.722656 233.902344 235.871094 236.589844 C 236.894531 238.988281 237.84375 241.558594 238.671875 244.167969 C 239.109375 243.269531 239.542969 242.371094 239.976562 241.472656 C 241.09375 239.171875 242.214844 236.855469 243.347656 234.53125 Z M 169.453125 337.285156 C 201.757812 316.242188 219.167969 284.28125 236.941406 247.730469 C 236.449219 245.964844 235.890625 244.195312 235.28125 242.457031 C 219.371094 274.804688 201.515625 306.832031 169.425781 327.734375 C 167.480469 328.902344 165.074219 329.46875 162.664062 329.46875 C 159.714844 329.46875 156.761719 328.617188 154.65625 326.957031 L 78.558594 267.109375 C 76.941406 268.109375 75.992188 269.375 75.914062 270.625 C 75.828125 271.953125 76.730469 272.957031 77.503906 273.566406 C 95.558594 287.769531 113.617188 301.96875 131.671875 316.167969 L 157.742188 336.671875 C 160.675781 338.976562 166.148438 339.261719 169.453125 337.285156 Z M 24.058594 120.90625 C 24.257812 121.285156 24.480469 121.644531 24.722656 121.996094 C 24.765625 122.066406 24.816406 122.132812 24.863281 122.203125 C 27.265625 125.585938 31.464844 127.742188 36.726562 128.457031 C 36.753906 128.460938 36.78125 128.464844 36.8125 128.46875 C 37.949219 128.621094 39.140625 128.703125 40.371094 128.71875 C 40.449219 128.71875 40.53125 128.71875 40.609375 128.71875 C 43.140625 128.730469 45.84375 128.453125 48.65625 127.859375 C 48.671875 127.855469 48.6875 127.859375 48.703125 127.855469 C 48.714844 127.851562 48.726562 127.851562 48.738281 127.847656 C 53.007812 126.941406 57.371094 125.34375 61.585938 123.105469 C 65.738281 120.902344 69.457031 118.238281 72.636719 115.191406 C 73.171875 114.679688 74.019531 114.699219 74.527344 115.234375 C 75.039062 115.769531 75.019531 116.617188 74.484375 117.125 C 71.125 120.34375 67.207031 123.152344 62.835938 125.472656 C 58.777344 127.625 54.570312 129.222656 50.421875 130.214844 C 50.425781 130.226562 50.425781 130.234375 50.425781 130.246094 C 50.433594 130.292969 50.449219 130.335938 50.457031 130.382812 C 50.988281 132.902344 52.40625 135.152344 54.480469 136.78125 C 54.695312 136.949219 54.902344 137.117188 55.128906 137.273438 C 55.269531 137.367188 55.410156 137.445312 55.550781 137.53125 C 55.8125 137.695312 56.074219 137.863281 56.351562 138.011719 C 56.457031 138.066406 56.5625 138.117188 56.667969 138.171875 C 57.023438 138.347656 57.378906 138.523438 57.757812 138.679688 C 57.792969 138.695312 57.828125 138.707031 57.867188 138.722656 C 60.65625 139.855469 64.058594 140.347656 67.824219 140.15625 C 67.921875 140.148438 68.015625 140.144531 68.113281 140.140625 C 68.65625 140.105469 69.207031 140.058594 69.765625 139.996094 C 69.894531 139.980469 70.023438 139.964844 70.148438 139.949219 C 70.722656 139.878906 71.300781 139.796875 71.882812 139.699219 C 71.9375 139.6875 71.992188 139.679688 72.042969 139.671875 C 72.671875 139.558594 73.304688 139.433594 73.941406 139.289062 C 73.996094 139.273438 74.050781 139.261719 74.109375 139.25 C 74.777344 139.09375 75.453125 138.921875 76.136719 138.726562 C 76.164062 138.71875 76.195312 138.71875 76.226562 138.710938 C 83.046875 136.773438 89.5 133.109375 94.65625 128.222656 C 95.191406 127.710938 96.035156 127.734375 96.542969 128.273438 C 97.050781 128.808594 97.027344 129.65625 96.492188 130.167969 C 91.246094 135.144531 84.722656 138.917969 77.800781 141.03125 C 77.800781 142.707031 78.160156 144.25 78.882812 145.617188 C 79.734375 147.226562 81.023438 148.523438 82.652344 149.5 C 83.898438 150.160156 85.15625 150.667969 86.417969 151.042969 C 91.242188 152.300781 97.574219 151.730469 104.109375 149.140625 C 104.128906 149.132812 104.152344 149.128906 104.171875 149.125 C 104.195312 149.117188 104.21875 149.109375 104.246094 149.101562 C 104.304688 149.085938 104.367188 149.070312 104.429688 149.0625 C 104.445312 149.0625 104.464844 149.058594 104.484375 149.058594 C 104.492188 149.058594 104.496094 149.058594 104.5 149.058594 C 110.082031 146.566406 114.550781 143.074219 116.632812 141.289062 C 117.195312 140.808594 118.039062 140.875 118.519531 141.4375 C 119 142 118.933594 142.84375 118.371094 143.324219 C 114.203125 146.894531 109.929688 149.628906 105.699219 151.507812 C 104.582031 156.453125 107.144531 160.871094 112.136719 162.402344 C 112.484375 162.511719 112.832031 162.597656 113.179688 162.679688 C 114.035156 162.875 114.945312 163.011719 115.914062 163.078125 C 119.238281 163.3125 122.882812 162.757812 126.519531 161.503906 C 126.574219 161.484375 126.632812 161.464844 126.683594 161.445312 C 126.929688 161.359375 127.171875 161.269531 127.414062 161.179688 C 127.519531 161.140625 127.625 161.101562 127.726562 161.0625 C 127.945312 160.976562 128.167969 160.886719 128.386719 160.796875 C 128.472656 160.761719 128.5625 160.726562 128.648438 160.691406 C 128.9375 160.566406 129.226562 160.441406 129.519531 160.308594 C 129.78125 160.1875 130.042969 160.0625 130.304688 159.9375 C 131.949219 156.792969 133.570312 153.617188 135.136719 150.484375 C 135.445312 149.867188 135.753906 149.25 136.058594 148.636719 C 136.667969 147.410156 137.269531 146.191406 137.859375 144.992188 C 139.632812 141.386719 141.304688 137.929688 142.839844 134.757812 L 143.453125 133.492188 C 144.167969 132.011719 144.890625 130.527344 145.609375 129.039062 C 141.386719 117.5625 132.511719 106.023438 119.113281 94.652344 C 81.433594 62.664062 48.132812 83.269531 35.5625 93.613281 C 33.917969 94.917969 32.398438 96.292969 31.027344 97.71875 L 31.019531 97.722656 L 30.824219 97.925781 C 23.332031 105.828125 20.738281 114.632812 24.058594 120.90625 Z M 221.707031 37.53125 C 219.785156 37.53125 217.871094 37.960938 216.394531 38.847656 C 181.160156 61.800781 163.230469 98.777344 145.910156 134.550781 C 147.636719 135.117188 149.34375 135.695312 151.023438 136.289062 C 165.304688 106.421875 180.316406 75.777344 206.019531 52.652344 C 206.328125 52.375 206.746094 52.253906 207.152344 52.328125 C 207.558594 52.402344 207.90625 52.660156 208.097656 53.027344 C 208.773438 54.324219 209.75 55.476562 210.917969 56.363281 C 216.292969 60.449219 224.457031 60.394531 230.773438 56.230469 C 232.128906 55.332031 233.300781 54.238281 234.164062 53.058594 C 234.375 52.765625 234.699219 52.574219 235.058594 52.523438 C 235.417969 52.472656 235.78125 52.574219 236.066406 52.796875 L 288.0625 93.691406 C 288.464844 94.007812 288.652344 94.527344 288.542969 95.03125 C 288.433594 95.53125 288.050781 95.925781 287.550781 96.046875 C 285.769531 96.476562 284.082031 97.195312 282.667969 98.128906 C 280.214844 99.738281 278.75 102.253906 278.640625 105.019531 C 278.527344 107.878906 279.839844 110.589844 282.246094 112.460938 C 283.515625 113.449219 284.972656 114.203125 286.578125 114.707031 C 287.035156 114.851562 287.382812 115.230469 287.484375 115.699219 C 287.585938 116.171875 287.425781 116.660156 287.070312 116.980469 C 264.996094 136.839844 250.847656 162.5 238.191406 188.390625 C 239.570312 189.695312 240.941406 191.035156 242.296875 192.394531 C 253.210938 170.304688 266.546875 145.402344 286.355469 125.902344 C 288.332031 123.945312 290.410156 122.019531 292.527344 120.179688 C 297.164062 116.132812 302.09375 112.402344 307.183594 109.089844 C 307.195312 109.078125 307.210938 109.070312 307.226562 109.0625 C 308.867188 108.082031 309.851562 106.789062 309.933594 105.511719 C 310.019531 104.179688 309.113281 103.175781 308.339844 102.566406 L 228.101562 39.464844 C 226.480469 38.191406 224.082031 37.53125 221.707031 37.53125 Z M 311.542969 144.53125 C 313.183594 143.550781 314.171875 142.257812 314.253906 140.976562 C 314.335938 139.648438 313.433594 138.644531 312.660156 138.039062 L 310.039062 135.976562 C 290.378906 149.1875 276.183594 166.785156 264.433594 186.050781 C 266.527344 185.652344 268.695312 185.335938 270.933594 185.101562 C 281.058594 170.542969 294.101562 155.894531 311.5 144.558594 C 311.511719 144.550781 311.527344 144.542969 311.542969 144.53125 Z M 138.210938 168.351562 C 127.539062 188.640625 115.15625 208.152344 97.84375 224.210938 C 98.945312 224.726562 99.976562 225.351562 100.921875 226.089844 C 104.015625 228.492188 105.707031 232.011719 105.5625 235.746094 C 105.417969 239.390625 103.511719 242.683594 100.328125 244.777344 C 99.347656 245.421875 98.257812 245.980469 97.105469 246.433594 L 146.078125 284.945312 C 146.984375 283.929688 148.058594 283.007812 149.285156 282.199219 C 156.527344 277.417969 165.960938 277.40625 172.226562 282.164062 C 173.25 282.945312 174.160156 283.886719 174.90625 284.941406 C 195.019531 266.417969 208.476562 243.042969 220.339844 219.1875 C 218.992188 217.78125 217.621094 216.394531 216.246094 215.066406 L 216.195312 215.015625 C 216.058594 214.882812 215.921875 214.75 215.785156 214.625 C 215.261719 214.113281 214.746094 213.621094 214.226562 213.140625 C 213.292969 212.261719 212.34375 211.390625 211.40625 210.546875 C 203.683594 220.890625 192.972656 231.363281 181.027344 234.128906 C 179.054688 234.585938 177.109375 234.8125 175.199219 234.8125 C 169.578125 234.8125 164.242188 232.839844 159.269531 228.917969 C 144.34375 217.140625 145.25 193.542969 150.480469 172.984375 C 149.625 172.632812 148.765625 172.277344 147.925781 171.949219 C 144.648438 170.65625 141.386719 169.449219 138.210938 168.351562 Z M 155.316406 175.023438 C 155.023438 174.894531 154.734375 174.765625 154.445312 174.644531 C 153.960938 174.433594 153.484375 174.234375 153.003906 174.03125 C 151.808594 178.773438 150.847656 183.660156 150.277344 188.484375 C 148.800781 200.972656 149.453125 217.761719 160.925781 226.8125 C 166.917969 231.542969 173.480469 233.128906 180.429688 231.519531 C 191.261719 229.007812 201.667969 219.078125 209.386719 208.761719 C 206.882812 206.582031 204.28125 204.425781 201.625 202.347656 C 200.546875 201.503906 199.464844 200.679688 198.386719 199.871094 C 193.546875 196.253906 188.375 192.75 183.023438 189.457031 C 181.964844 188.804688 180.910156 188.171875 179.867188 187.554688 C 175.621094 185.042969 171.1875 182.621094 166.691406 180.351562 C 162.949219 178.472656 159.121094 176.679688 155.316406 175.023438 Z M 236.148438 186.480469 C 248.519531 161.230469 262.367188 136.226562 283.679688 116.453125 C 282.578125 115.9375 281.550781 115.3125 280.605469 114.574219 C 277.507812 112.171875 275.820312 108.648438 275.964844 104.914062 C 276.109375 101.269531 278.015625 97.980469 281.199219 95.886719 C 282.179688 95.242188 283.269531 94.683594 284.421875 94.230469 L 235.449219 55.71875 C 234.542969 56.734375 233.46875 57.65625 232.242188 58.464844 C 225 63.242188 215.566406 63.257812 209.300781 58.496094 C 208.273438 57.71875 207.367188 56.777344 206.621094 55.722656 C 182.09375 78.308594 167.464844 108.109375 153.554688 137.195312 C 156.757812 138.359375 159.941406 139.582031 163.042969 140.84375 C 170.296875 128.277344 184.257812 110.265625 200.457031 106.515625 C 208.238281 104.710938 215.574219 106.472656 222.257812 111.746094 C 240.035156 125.773438 235.355469 156.582031 227.652344 179.039062 C 229.296875 180.40625 230.847656 181.730469 232.359375 183.0625 C 232.515625 183.195312 232.65625 183.316406 232.792969 183.445312 C 233.902344 184.421875 235.027344 185.445312 236.148438 186.480469 Z M 207.648438 164.234375 C 208.503906 164.796875 209.355469 165.367188 210.191406 165.9375 C 215.453125 169.503906 220.558594 173.304688 225.417969 177.226562 C 228.011719 169.46875 230.242188 160.71875 231.25 152.179688 C 232.722656 139.691406 232.074219 122.902344 220.605469 113.847656 C 216.105469 110.300781 211.292969 108.515625 206.242188 108.515625 C 204.539062 108.515625 202.8125 108.714844 201.058594 109.121094 C 186.722656 112.441406 173.117188 128.835938 165.53125 141.875 C 167.269531 142.601562 168.914062 143.308594 170.519531 144.019531 C 173.171875 145.195312 175.90625 146.460938 178.652344 147.785156 C 178.832031 147.875 179.019531 147.96875 179.199219 148.058594 C 180.546875 147.054688 181.960938 146.402344 183.453125 146.109375 C 184.117188 145.941406 184.714844 146.0625 185.242188 146.476562 C 185.605469 146.761719 185.855469 147.136719 186 147.597656 C 186.144531 148.058594 186.140625 148.4375 185.996094 148.75 C 185.777344 149.21875 185.402344 149.535156 184.871094 149.707031 C 184.417969 149.871094 183.984375 150.046875 183.566406 150.230469 C 184.890625 150.90625 186.269531 151.625 187.691406 152.378906 C 191.875 154.605469 196.035156 156.976562 200.066406 159.429688 C 200.601562 159.753906 201.128906 160.082031 201.664062 160.414062 C 202.953125 160.589844 204.304688 161.230469 205.722656 162.347656 C 206.441406 162.910156 207.074219 163.546875 207.648438 164.234375 Z M 312.8125 129.15625 C 312.898438 127.824219 311.992188 126.820312 311.21875 126.214844 L 308.601562 124.152344 C 284.117188 140.605469 268.097656 163.871094 254.734375 188.671875 C 256.679688 187.964844 258.71875 187.359375 260.828125 186.835938 C 273.285156 165.957031 288.441406 146.820312 310.0625 132.734375 C 310.078125 132.726562 310.089844 132.71875 310.105469 132.707031 C 311.746094 131.726562 312.730469 130.433594 312.8125 129.15625 Z M 311.375 117.332031 C 311.457031 116.003906 310.554688 115 309.78125 114.390625 L 307.152344 112.320312 C 302.695312 115.316406 298.371094 118.628906 294.28125 122.199219 C 292.203125 124.003906 290.167969 125.890625 288.230469 127.808594 C 268.703125 147.03125 255.492188 171.71875 244.675781 193.621094 C 245.449219 193.121094 246.246094 192.628906 247.089844 192.152344 C 248.296875 191.476562 249.558594 190.859375 250.847656 190.273438 C 264.949219 163.589844 281.820312 138.371094 308.621094 120.914062 C 308.636719 120.902344 308.652344 120.894531 308.667969 120.886719 C 310.304688 119.90625 311.292969 118.609375 311.375 117.332031 Z M 74.34375 231.574219 C 72.664062 232.582031 71.675781 233.875 71.59375 235.152344 C 71.507812 236.484375 72.414062 237.488281 73.1875 238.097656 L 93.265625 253.890625 C 95.597656 255.722656 97.929688 257.554688 100.261719 259.394531 L 101.027344 259.996094 C 103.5625 261.988281 106.097656 263.980469 108.636719 265.976562 L 135.042969 286.75 C 138.25 289.269531 141.460938 291.792969 144.664062 294.320312 C 147.585938 296.613281 150.503906 298.90625 153.425781 301.207031 C 153.691406 301.414062 153.984375 301.609375 154.289062 301.78125 C 154.316406 301.792969 154.425781 301.855469 154.453125 301.871094 C 157.609375 303.59375 162.203125 303.570312 165.136719 301.820312 C 192.703125 283.855469 209.5 258.292969 226.101562 225.472656 C 226.050781 225.417969 226.003906 225.359375 225.953125 225.304688 L 225.785156 225.109375 C 224.636719 223.792969 223.464844 222.511719 222.296875 221.257812 C 210.191406 245.503906 196.375 269.238281 175.507812 288.011719 C 175.257812 288.234375 174.941406 288.355469 174.613281 288.355469 C 174.535156 288.355469 174.453125 288.347656 174.375 288.332031 C 173.96875 288.261719 173.621094 288.003906 173.429688 287.636719 C 172.753906 286.339844 171.777344 285.1875 170.609375 284.300781 C 165.234375 280.214844 157.066406 280.269531 150.753906 284.433594 C 149.394531 285.332031 148.222656 286.425781 147.363281 287.605469 C 147.148438 287.898438 146.824219 288.089844 146.464844 288.140625 C 146.105469 288.191406 145.742188 288.089844 145.460938 287.867188 L 93.460938 246.972656 C 93.058594 246.65625 92.875 246.136719 92.980469 245.632812 C 93.089844 245.132812 93.476562 244.738281 93.972656 244.617188 C 95.753906 244.1875 97.441406 243.46875 98.859375 242.535156 C 101.308594 240.921875 102.777344 238.410156 102.886719 235.640625 C 103 232.78125 101.6875 230.070312 99.28125 228.203125 C 98.011719 227.214844 96.550781 226.460938 94.949219 225.957031 C 94.492188 225.8125 94.144531 225.433594 94.042969 224.964844 C 93.941406 224.492188 94.097656 224.003906 94.457031 223.683594 C 112.1875 207.730469 124.800781 188.035156 135.640625 167.488281 C 133.839844 166.886719 132.035156 166.308594 130.230469 165.761719 C 118.042969 188.351562 101.835938 213.667969 74.34375 231.574219 Z M 75.679688 243.464844 C 74.0625 244.460938 73.113281 245.726562 73.03125 246.976562 C 72.949219 248.308594 73.851562 249.3125 74.625 249.921875 L 154.867188 313.027344 C 157.796875 315.332031 163.265625 315.617188 166.574219 313.640625 C 197.34375 293.59375 214.914062 262.851562 230.40625 231.554688 C 230.222656 231.234375 230.039062 230.910156 229.855469 230.601562 C 229.839844 230.574219 229.824219 230.542969 229.808594 230.515625 C 229.1875 229.496094 228.566406 228.582031 227.945312 227.742188 C 211.328125 260.4375 194.359375 285.972656 166.550781 304.089844 C 164.621094 305.246094 162.214844 305.820312 159.796875 305.820312 C 157.484375 305.820312 155.15625 305.296875 153.207031 304.242188 C 153.113281 304.195312 153.019531 304.144531 152.925781 304.085938 C 152.554688 303.878906 152.148438 303.605469 151.773438 303.3125 C 148.851562 301.015625 145.933594 298.71875 143.015625 296.425781 C 139.808594 293.898438 136.597656 291.375 133.394531 288.855469 L 106.984375 268.085938 C 104.445312 266.085938 101.910156 264.09375 99.375 262.101562 L 98.609375 261.5 C 96.277344 259.664062 93.945312 257.828125 91.617188 255.996094 Z M 77.121094 255.289062 C 75.503906 256.285156 74.550781 257.550781 74.472656 258.800781 C 74.386719 260.128906 75.292969 261.136719 76.066406 261.742188 L 156.304688 324.847656 C 159.234375 327.152344 164.707031 327.441406 168.011719 325.464844 C 200.207031 304.488281 217.949219 271.808594 233.980469 239.035156 C 233.792969 238.570312 233.609375 238.097656 233.414062 237.644531 C 232.941406 236.539062 232.449219 235.480469 231.945312 234.460938 C 216.5 265.488281 198.808594 295.835938 167.988281 315.914062 C 166.039062 317.078125 163.632812 317.648438 161.226562 317.648438 C 158.277344 317.648438 155.324219 316.792969 153.214844 315.132812 Z M 331.101562 225.984375 C 327.417969 228.796875 322.601562 226.996094 319.460938 223.960938 C 317.648438 222.210938 316.082031 219.976562 314.824219 217.4375 C 314.796875 217.371094 314.765625 217.3125 314.730469 217.25 C 313.8125 215.367188 313.058594 213.324219 312.519531 211.160156 C 312.34375 210.445312 311.617188 210.003906 310.898438 210.1875 C 310.183594 210.363281 309.746094 211.089844 309.925781 211.808594 C 310.4375 213.878906 311.132812 215.855469 311.976562 217.703125 C 308.886719 220.539062 304.414062 218.425781 302.144531 216.617188 C 299.769531 214.722656 297.875 211.886719 296.601562 208.355469 C 296.605469 208.054688 296.511719 207.761719 296.328125 207.519531 C 296.242188 207.253906 296.148438 206.992188 296.070312 206.714844 C 295.863281 206.003906 295.121094 205.597656 294.414062 205.800781 C 293.703125 206.007812 293.296875 206.75 293.5 207.460938 C 293.574219 207.714844 293.664062 207.957031 293.742188 208.207031 C 291.851562 210.722656 288.59375 211.335938 285.75 209.617188 C 282.726562 207.792969 280.292969 204.210938 278.894531 199.527344 C 278.683594 198.820312 277.9375 198.414062 277.230469 198.628906 C 276.523438 198.839844 276.121094 199.585938 276.332031 200.296875 C 277.457031 204.0625 279.765625 209.132812 284.371094 211.914062 C 285.886719 212.828125 287.503906 213.265625 289.085938 213.265625 C 291.183594 213.265625 293.199219 212.476562 294.789062 211.011719 C 296.203125 214.210938 298.132812 216.839844 300.480469 218.710938 C 302.734375 220.511719 305.601562 221.753906 308.367188 221.753906 C 310.085938 221.753906 311.769531 221.273438 313.234375 220.144531 C 314.480469 222.335938 315.949219 224.289062 317.605469 225.890625 C 320.117188 228.320312 323.535156 230.082031 326.964844 230.082031 C 328.9375 230.082031 330.914062 229.496094 332.722656 228.117188 C 333.308594 227.667969 333.421875 226.828125 332.976562 226.242188 C 332.527344 225.652344 331.6875 225.539062 331.101562 225.984375 Z M 331.101562 225.984375 "/></g></g></svg>