<svg width="275" height="160" viewBox="0 0 275 160" fill="none" xmlns="http://www.w3.org/2000/svg">
<g clip-path="url(#clip0_13502_154318)">
<path d="M121.387 159.464C145.315 159.464 164.712 126.989 164.712 86.9295C164.712 46.8699 145.315 14.3953 121.387 14.3953C97.4598 14.3953 78.0625 46.8699 78.0625 86.9295C78.0625 126.989 97.4598 159.464 121.387 159.464Z" fill="white"/>
<path d="M213.197 130.46C218.105 120.911 214.335 109.194 204.779 104.291C195.222 99.387 183.497 103.153 178.59 112.703C173.683 122.252 177.452 133.969 187.008 138.873C196.565 143.776 208.29 140.01 213.197 130.46Z" fill="white"/>
<path fill-rule="evenodd" clip-rule="evenodd" d="M214.849 117.276C215.127 117.22 215.399 117.4 215.455 117.678C216.314 121.95 215.785 126.531 213.648 130.714C213.519 130.967 213.209 131.067 212.956 130.938C212.703 130.809 212.603 130.499 212.732 130.246C214.76 126.277 215.262 121.933 214.446 117.881C214.39 117.603 214.571 117.332 214.849 117.276Z" fill="black"/>
<path d="M195.742 128.3C196.484 126.856 195.914 125.084 194.469 124.343C193.024 123.601 191.251 124.171 190.509 125.615C189.767 127.059 190.337 128.83 191.782 129.572C193.227 130.313 195 129.744 195.742 128.3Z" fill="black"/>
<path fill-rule="evenodd" clip-rule="evenodd" d="M190.966 125.849C190.354 127.041 190.824 128.503 192.017 129.115C193.209 129.727 194.672 129.256 195.284 128.065C195.897 126.874 195.426 125.412 194.234 124.8C193.041 124.188 191.578 124.658 190.966 125.849ZM191.547 130.029C189.849 129.158 189.179 127.077 190.051 125.38C190.923 123.683 193.006 123.014 194.704 123.885C196.401 124.756 197.071 126.838 196.199 128.535C195.327 130.231 193.244 130.9 191.547 130.029Z" fill="black"/>
<path fill-rule="evenodd" clip-rule="evenodd" d="M187.588 111.41C187.871 111.427 188.086 111.672 188.069 111.955C187.974 113.473 188.771 114.972 190.216 115.713C191.661 116.454 193.352 116.226 194.529 115.259C194.748 115.078 195.072 115.11 195.252 115.329C195.432 115.549 195.401 115.873 195.181 116.053C193.696 117.274 191.565 117.561 189.747 116.628C187.928 115.696 186.923 113.806 187.042 111.891C187.06 111.607 187.304 111.392 187.588 111.41Z" fill="black"/>
<path fill-rule="evenodd" clip-rule="evenodd" d="M201.328 118.446C201.612 118.464 201.827 118.708 201.809 118.992C201.714 120.509 202.512 122.009 203.957 122.75C205.402 123.491 207.092 123.262 208.269 122.295C208.489 122.115 208.813 122.147 208.993 122.366C209.173 122.585 209.142 122.909 208.922 123.09C207.437 124.311 205.306 124.597 203.488 123.665C201.669 122.732 200.663 120.842 200.783 118.927C200.801 118.644 201.045 118.429 201.328 118.446Z" fill="black"/>
<path d="M192 86.9295C192 126.983 172.591 159.464 148.653 159.464H121.387C145.325 159.464 164.734 126.983 164.734 86.9295C164.734 46.8758 145.325 14.3953 121.387 14.3953H148.653C172.591 14.3953 192 46.8544 192 86.9295Z" fill="#E6E6E6"/>
<path d="M154.708 86.9296C154.708 117.737 142.943 143.374 127.399 148.716C111.855 143.374 100.09 117.737 100.09 86.9296C100.09 56.1224 111.876 30.464 127.399 25.1436C142.943 30.464 154.708 56.1009 154.708 86.9296Z" fill="#E6E6E6"/>
<path fill-rule="evenodd" clip-rule="evenodd" d="M103.11 21.1531C103.288 21.3746 103.252 21.6982 103.031 21.8759C101.526 23.0831 100.084 24.4185 98.682 25.9039C98.4872 26.1104 98.1618 26.1198 97.9552 25.925C97.7487 25.7301 97.7393 25.4047 97.9341 25.1982C99.3665 23.6801 100.844 22.3122 102.388 21.0738C102.609 20.8961 102.933 20.9316 103.11 21.1531Z" fill="black"/>
<path fill-rule="evenodd" clip-rule="evenodd" d="M106.372 18.2673C111.058 15.436 116.109 13.8811 121.388 13.8811C121.672 13.8811 121.902 14.1113 121.902 14.3952C121.902 14.6792 121.672 14.9094 121.388 14.9094C116.318 14.9094 111.45 16.4009 106.904 19.1474C106.661 19.2943 106.345 19.2163 106.198 18.9733C106.051 18.7302 106.129 18.4142 106.372 18.2673Z" fill="black"/>
<path fill-rule="evenodd" clip-rule="evenodd" d="M103.115 152.717C103.287 152.491 103.61 152.446 103.836 152.618C109.215 156.702 115.141 158.949 121.387 158.949C121.671 158.949 121.901 159.18 121.901 159.464C121.901 159.748 121.671 159.978 121.387 159.978C114.881 159.978 108.741 157.634 103.214 153.437C102.988 153.265 102.944 152.943 103.115 152.717Z" fill="black"/>
<path fill-rule="evenodd" clip-rule="evenodd" d="M80.2152 109.595C80.4936 109.539 80.7646 109.72 80.8205 109.998C84.0488 126.063 90.5624 139.566 98.9994 148.294C99.1968 148.498 99.1913 148.823 98.9871 149.021C98.7829 149.218 98.4575 149.213 98.2601 149.008C89.6506 140.102 83.0679 126.401 79.8124 110.2C79.7565 109.922 79.9368 109.651 80.2152 109.595Z" fill="black"/>
<path fill-rule="evenodd" clip-rule="evenodd" d="M90.6449 35.8123C90.8902 35.9554 90.973 36.2702 90.8299 36.5155C83.2613 49.4898 78.5766 67.2896 78.5766 86.9295C78.5766 91.4384 78.8118 95.839 79.282 100.11C79.3131 100.392 79.1095 100.646 78.8272 100.677C78.545 100.708 78.291 100.505 78.2599 100.223C77.7854 95.9123 77.5483 91.474 77.5483 86.9295C77.5483 67.138 82.2672 49.1533 89.9417 35.9973C90.0848 35.7521 90.3996 35.6692 90.6449 35.8123Z" fill="black"/>
<path fill-rule="evenodd" clip-rule="evenodd" d="M98.2816 42.7617C92.298 54.0441 88.581 69.6621 88.581 86.9295C88.581 104.197 92.298 119.809 98.2815 131.087C104.277 142.386 112.471 149.21 121.387 149.21C123.39 149.21 125.33 148.876 127.233 148.229C127.502 148.137 127.794 148.281 127.885 148.55C127.977 148.819 127.833 149.111 127.564 149.202C125.559 149.885 123.507 150.238 121.387 150.238C111.904 150.238 103.438 142.999 97.3732 131.568C91.2963 120.116 87.5527 104.331 87.5527 86.9295C87.5527 69.5282 91.2963 53.7382 97.3731 42.2799C103.438 30.8446 111.904 23.5996 121.387 23.5996C123.507 23.5996 125.559 23.9528 127.564 24.6353C127.833 24.7269 127.977 25.0189 127.885 25.2877C127.794 25.5565 127.502 25.7003 127.233 25.6088C125.33 24.9612 123.39 24.6279 121.387 24.6279C112.472 24.6279 104.277 31.4564 98.2816 42.7617Z" fill="black"/>
<path d="M127.399 148.716C125.445 149.381 123.448 149.724 121.387 149.724C102.988 149.724 88.0669 121.598 88.0669 86.9295C88.0669 52.2607 102.988 24.1138 121.387 24.1138C123.448 24.1138 125.445 24.457 127.399 25.1221C111.855 30.464 100.09 56.1009 100.09 86.9081C100.09 117.715 111.876 143.374 127.399 148.716Z" fill="black"/>
<path fill-rule="evenodd" clip-rule="evenodd" d="M98.2816 42.7617C92.298 54.0441 88.581 69.6621 88.581 86.9295C88.581 104.197 92.298 119.809 98.2815 131.087C104.277 142.386 112.471 149.21 121.387 149.21C122.893 149.21 124.363 149.021 125.809 148.653C118.453 145.503 112.072 137.902 107.454 127.571C102.533 116.562 99.5755 102.373 99.5755 86.9081C99.5755 71.4433 102.528 57.2591 107.446 46.2558C112.061 35.9294 118.442 28.3333 125.808 25.1846C124.362 24.8161 122.892 24.6279 121.387 24.6279C112.472 24.6279 104.277 31.4564 98.2816 42.7617ZM97.3731 42.2799C103.438 30.8446 111.904 23.5996 121.387 23.5996C123.507 23.5996 125.559 23.9528 127.564 24.6353C127.772 24.7062 127.912 24.9015 127.913 25.1213C127.913 25.3411 127.774 25.5368 127.566 25.6083C119.988 28.2125 113.243 35.806 108.385 46.6754C103.534 57.5278 100.604 71.5657 100.604 86.9081C100.604 102.25 103.539 116.294 108.393 127.151C113.254 138.027 119.999 145.625 127.566 148.229C127.774 148.301 127.913 148.497 127.913 148.716C127.912 148.936 127.772 149.131 127.564 149.202C125.559 149.885 123.507 150.238 121.387 150.238C111.904 150.238 103.438 142.999 97.3732 131.568C91.2963 120.116 87.5527 104.331 87.5527 86.9295C87.5527 69.5282 91.2963 53.7382 97.3731 42.2799Z" fill="black"/>
<path d="M146.678 46.0391H114.131H108.098H61.4237C58.9976 46.0391 57.0225 48.0128 57.0225 50.437V76.0739C57.0225 78.4982 58.9976 80.4719 61.4237 80.4719H73.2962L70.2905 95.0603L91.6309 80.4719H100.262H106.294H154.536C154.042 68.7368 151.466 57.2592 146.678 46.0391Z" fill="white"/>
<path fill-rule="evenodd" clip-rule="evenodd" d="M95.629 45.8258C101.774 32.3608 110.965 23.6211 121.388 23.6211C123.507 23.6211 125.56 23.9743 127.565 24.6568L127.566 24.6572C129.746 25.4053 131.831 26.5254 133.822 27.9903C134.051 28.1586 134.1 28.4804 133.932 28.7092C133.764 28.9379 133.442 28.9869 133.213 28.8186C131.297 27.4089 129.304 26.3408 127.233 25.63C125.33 24.9826 123.39 24.6494 121.388 24.6494C111.586 24.6494 102.657 32.9009 96.5645 46.2527C96.4466 46.511 96.1417 46.6248 95.8833 46.507C95.625 46.3891 95.5112 46.0841 95.629 45.8258Z" fill="black"/>
<path fill-rule="evenodd" clip-rule="evenodd" d="M137.59 32.0184C137.798 31.8249 138.123 31.8366 138.317 32.0445C141.777 35.7635 144.833 40.5987 147.362 46.2585C149.568 51.1853 151.382 56.7755 152.698 62.8128C153.907 68.3121 154.705 74.2176 155.049 80.3573C155.05 80.361 155.05 80.3647 155.05 80.3684C155.05 80.3743 155.05 80.3802 155.05 80.3862V80.416C155.158 82.5429 155.222 84.7142 155.222 86.908C155.222 89.6674 155.114 92.3819 154.942 95.0294C154.923 95.3127 154.679 95.5275 154.395 95.509C154.112 95.4906 153.897 95.2459 153.916 94.9626C154.087 92.3326 154.194 89.6408 154.194 86.908C154.194 84.7298 154.13 82.5718 154.023 80.455C154.022 80.4464 154.022 80.4377 154.022 80.4291V80.4008C153.68 74.3172 152.889 68.4711 151.694 63.0334L151.694 63.0326C150.391 57.0564 148.598 51.534 146.424 46.6783L146.424 46.678C143.929 41.0962 140.931 36.3631 137.564 32.745C137.371 32.5371 137.382 32.2118 137.59 32.0184Z" fill="black"/>
<path fill-rule="evenodd" clip-rule="evenodd" d="M88.1691 82.3179C88.4529 82.3269 88.6757 82.5643 88.6666 82.8481C88.6239 84.1941 88.6025 85.5617 88.6025 86.9294C88.6025 104.208 92.3195 119.82 98.303 131.094C104.298 142.391 112.493 149.21 121.409 149.21C123.39 149.21 125.35 148.876 127.25 148.209L127.254 148.207C132.933 146.264 138.148 141.507 142.456 134.647C146.76 127.793 150.133 118.877 152.142 108.691C152.197 108.412 152.467 108.231 152.746 108.286C153.024 108.341 153.206 108.611 153.151 108.89C151.123 119.171 147.712 128.211 143.327 135.194C138.946 142.171 133.567 147.133 127.589 149.18C125.581 149.885 123.506 150.238 121.409 150.238C111.925 150.238 103.46 143.004 97.3947 131.576C91.3178 120.126 87.5742 104.341 87.5742 86.9294C87.5742 85.551 87.5958 84.1726 87.6389 82.8154C87.6479 82.5316 87.8853 82.3089 88.1691 82.3179Z" fill="black"/>
<path fill-rule="evenodd" clip-rule="evenodd" d="M57.0439 75.5383C57.3279 75.5383 57.5581 75.7685 57.5581 76.0525C57.5581 78.1924 59.3027 79.9363 61.4451 79.9363H73.2962C73.4507 79.9363 73.5971 80.0058 73.6947 80.1256C73.7923 80.2454 73.8309 80.4028 73.7997 80.5542L71.0506 93.8971L91.3624 80.0259C91.4479 79.9675 91.5489 79.9363 91.6524 79.9363H123.04C123.324 79.9363 123.555 80.1665 123.555 80.4504C123.555 80.7344 123.324 80.9646 123.04 80.9646H91.8112L70.5804 95.4634C70.4074 95.5815 70.1799 95.5829 70.0055 95.4668C69.8311 95.3506 69.7446 95.1403 69.7869 94.935L72.6653 80.9646H61.4451C58.7355 80.9646 56.5298 78.761 56.5298 76.0525C56.5298 75.7685 56.76 75.5383 57.0439 75.5383Z" fill="black"/>
<path fill-rule="evenodd" clip-rule="evenodd" d="M56.5083 50.437C56.5083 47.7285 58.714 45.5249 61.4236 45.5249H66.8124C67.0964 45.5249 67.3266 45.7551 67.3266 46.039C67.3266 46.323 67.0964 46.5532 66.8124 46.5532H61.4236C59.2812 46.5532 57.5366 48.2971 57.5366 50.437V64.8966C57.5366 65.1806 57.3064 65.4108 57.0224 65.4108C56.7385 65.4108 56.5083 65.1806 56.5083 64.8966V50.437Z" fill="black"/>
<path fill-rule="evenodd" clip-rule="evenodd" d="M76.9258 46.039C76.9258 45.7551 77.156 45.5249 77.4399 45.5249H122.397C122.681 45.5249 122.911 45.7551 122.911 46.039C122.911 46.323 122.681 46.5532 122.397 46.5532H77.4399C77.156 46.5532 76.9258 46.323 76.9258 46.039Z" fill="black"/>
<path fill-rule="evenodd" clip-rule="evenodd" d="M140.861 80.4292C140.861 80.1452 141.092 79.915 141.375 79.915H154.536C154.82 79.915 155.05 80.1452 155.05 80.4292C155.05 80.7131 154.82 80.9433 154.536 80.9433H141.375C141.092 80.9433 140.861 80.7131 140.861 80.4292Z" fill="black"/>
<path fill-rule="evenodd" clip-rule="evenodd" d="M141.484 46.039C141.484 45.7551 141.714 45.5249 141.998 45.5249H146.678C146.962 45.5249 147.192 45.7551 147.192 46.039C147.192 46.323 146.962 46.5532 146.678 46.5532H141.998C141.714 46.5532 141.484 46.323 141.484 46.039Z" fill="black"/>
<path fill-rule="evenodd" clip-rule="evenodd" d="M192 86.4153C192.284 86.4153 192.514 86.6455 192.514 86.9294C192.514 107.033 187.644 125.261 179.745 138.48C171.851 151.689 160.875 159.978 148.653 159.978H121.387C121.103 159.978 120.873 159.748 120.873 159.464C120.873 159.18 121.103 158.949 121.387 158.949C126.414 158.949 131.241 157.479 135.745 154.796C135.989 154.65 136.304 154.73 136.449 154.974C136.595 155.218 136.515 155.534 136.271 155.679C133.859 157.116 131.349 158.22 128.759 158.949H148.653C160.37 158.949 171.066 150.998 178.862 137.953C186.651 124.919 191.485 106.879 191.485 86.9294C191.485 86.6455 191.716 86.4153 192 86.4153Z" fill="black"/>
<path fill-rule="evenodd" clip-rule="evenodd" d="M189.029 60.4699C189.305 60.4059 189.582 60.5783 189.646 60.8549C190.573 64.8657 191.285 69.069 191.76 73.379C191.791 73.6612 191.587 73.9152 191.305 73.9463C191.023 73.9774 190.769 73.7738 190.738 73.4915C190.267 69.2201 189.562 65.0566 188.644 61.0867C188.58 60.81 188.752 60.5339 189.029 60.4699Z" fill="black"/>
<path fill-rule="evenodd" clip-rule="evenodd" d="M120.873 14.3952C120.873 14.1113 121.103 13.8811 121.387 13.8811H148.653C160.864 13.8811 171.846 22.1588 179.731 35.3707C179.877 35.6145 179.797 35.9301 179.553 36.0757C179.309 36.2212 178.994 36.1415 178.848 35.8977C171.061 22.8505 160.359 14.9094 148.653 14.9094H128.777C139.021 17.794 148.006 26.5689 154.476 38.9574C154.608 39.2091 154.51 39.5197 154.258 39.6512C154.007 39.7826 153.696 39.6852 153.565 39.4335C145.663 24.3032 134.123 14.9094 121.387 14.9094C121.103 14.9094 120.873 14.6792 120.873 14.3952Z" fill="black"/>
<path fill-rule="evenodd" clip-rule="evenodd" d="M158.659 49.8663C158.927 49.7719 159.22 49.9125 159.315 50.1803C159.984 52.0802 160.589 54.0216 161.149 56.0037C161.227 56.2769 161.068 56.5611 160.795 56.6384C160.521 56.7156 160.237 56.5568 160.16 56.2836C159.604 54.3183 159.006 52.398 158.345 50.5221C158.25 50.2543 158.391 49.9607 158.659 49.8663Z" fill="black"/>
<path fill-rule="evenodd" clip-rule="evenodd" d="M163.791 71.7878C164.073 71.7532 164.329 71.9536 164.364 72.2355C164.946 76.9764 165.248 81.8888 165.248 86.9079C165.248 94.167 164.623 101.191 163.436 107.809C163.386 108.088 163.119 108.274 162.84 108.224C162.56 108.174 162.374 107.907 162.424 107.627C163.599 101.072 164.22 94.1085 164.22 86.9079C164.22 81.9298 163.92 77.0593 163.343 72.3608C163.308 72.079 163.509 71.8224 163.791 71.7878Z" fill="black"/>
<path fill-rule="evenodd" clip-rule="evenodd" d="M158.302 124.936C158.568 125.036 158.703 125.332 158.603 125.598C155.926 132.717 152.533 139.026 148.591 144.241C148.42 144.468 148.098 144.513 147.871 144.342C147.645 144.17 147.6 143.848 147.771 143.621C151.644 138.496 154.993 132.277 157.64 125.236C157.74 124.97 158.037 124.836 158.302 124.936Z" fill="black"/>
<path d="M192.944 41.6412C192.944 41.6412 205.504 41.3837 215.702 35.3124C230.301 26.6237 217.634 8.71009 206.405 17.6133C208.123 3.38963 186.224 1.9737 186.439 18.9434C186.589 30.8072 192.944 41.6412 192.944 41.6412Z" fill="#EBEBEB"/>
<path fill-rule="evenodd" clip-rule="evenodd" d="M201.899 7.25925C205.225 8.99247 207.532 12.5735 206.916 17.6749C206.882 17.9568 206.626 18.1578 206.344 18.1237C206.062 18.0897 205.861 17.8336 205.895 17.5517C206.461 12.8703 204.366 9.70424 201.424 8.17117C198.45 6.62208 194.581 6.72381 191.596 8.68905C191.359 8.84516 191.04 8.77945 190.884 8.54227C190.727 8.30508 190.793 7.98625 191.03 7.83013C194.335 5.65485 198.603 5.54205 201.899 7.25925Z" fill="black"/>
<path fill-rule="evenodd" clip-rule="evenodd" d="M216.982 16.2709C217.13 16.0291 217.447 15.9539 217.689 16.1028C220.691 17.9524 222.74 21.3956 222.791 25.1257C222.842 28.884 220.867 32.8629 215.964 35.7758C215.72 35.9209 215.405 35.8406 215.26 35.5964C215.115 35.3523 215.195 35.0369 215.439 34.8918C220.069 32.141 221.808 28.4825 221.763 25.1397C221.717 21.7687 219.858 18.6471 217.15 16.9783C216.908 16.8294 216.833 16.5126 216.982 16.2709Z" fill="black"/>
<path fill-rule="evenodd" clip-rule="evenodd" d="M187.255 26.2928C187.532 26.2332 187.806 26.4101 187.865 26.6877C188.757 30.8491 190.14 34.532 191.3 37.1761C191.88 38.4974 192.404 39.5573 192.782 40.2855C192.971 40.6496 193.124 40.9306 193.228 41.1198C193.232 41.126 193.235 41.132 193.238 41.138C193.39 41.1314 193.595 41.1212 193.85 41.1054C194.445 41.0683 195.308 41.0007 196.375 40.8784C198.508 40.6339 201.45 40.1713 204.683 39.2999C204.957 39.226 205.239 39.3883 205.313 39.6625C205.387 39.9367 205.225 40.2188 204.951 40.2927C201.657 41.1805 198.663 41.6512 196.492 41.9C195.406 42.0245 194.525 42.0936 193.914 42.1316C193.608 42.1507 193.37 42.1619 193.207 42.1684C193.126 42.1717 193.064 42.1738 193.021 42.175C193 42.1757 192.984 42.1761 192.973 42.1764L192.96 42.1767L192.956 42.1768L192.955 42.1768L192.955 42.1768C192.955 42.1768 192.955 42.1768 192.944 41.6628C192.501 41.9224 192.501 41.9223 192.501 41.9222L192.5 41.9206L192.497 41.9164L192.488 41.9011C192.481 41.8878 192.469 41.8682 192.455 41.8427C192.426 41.7916 192.383 41.7163 192.329 41.6179C192.22 41.4211 192.063 41.1319 191.869 40.7592C191.483 40.0139 190.949 38.9338 190.359 37.5894C189.179 34.9024 187.771 31.1516 186.86 26.9033C186.8 26.6257 186.977 26.3523 187.255 26.2928ZM192.944 41.6628L192.501 41.9224C192.595 42.0832 192.768 42.1805 192.955 42.1768L192.944 41.6628Z" fill="black"/>
<path d="M236.821 100.322C252.339 95.6016 261.09 79.2045 256.366 63.6977C251.643 48.1909 235.234 39.4464 219.715 44.1664C204.197 48.8864 195.446 65.2834 200.17 80.7902C204.893 96.297 221.302 105.041 236.821 100.322Z" fill="white"/>
<path fill-rule="evenodd" clip-rule="evenodd" d="M219.845 44.643C235.095 40.006 251.211 48.6056 255.873 63.8455L219.845 44.643ZM255.873 63.8455C257.624 69.579 257.497 75.4373 255.831 80.7691C255.746 81.0401 255.898 81.3285 256.169 81.4132C256.44 81.4979 256.728 81.3468 256.813 81.0758C258.539 75.5522 258.67 69.4823 256.857 63.5451L256.856 63.5449C252.029 47.7633 235.34 38.8569 219.546 43.6593L219.546 43.6593C215.243 44.9687 211.463 47.1518 208.317 49.9682C208.106 50.1576 208.088 50.4826 208.277 50.6942C208.466 50.9057 208.791 50.9237 209.003 50.7343C212.04 48.0157 215.688 45.9081 219.845 44.6431" fill="black"/>
<path fill-rule="evenodd" clip-rule="evenodd" d="M200.828 61.7319C201.095 61.8292 201.232 62.1243 201.135 62.3911C199.068 68.0612 198.751 74.4042 200.65 80.6221L200.65 80.6231C203.582 90.2966 211.153 97.2947 220.204 99.93C220.476 100.009 220.633 100.295 220.554 100.567C220.474 100.84 220.189 100.997 219.916 100.917C210.547 98.1892 202.703 90.9424 199.666 80.9219C197.7 74.4824 198.028 67.9105 200.169 62.0389C200.266 61.7721 200.561 61.6347 200.828 61.7319Z" fill="black"/>
<path fill-rule="evenodd" clip-rule="evenodd" d="M250.798 91.0892C251.012 91.2753 251.035 91.6 250.849 91.8145C247.288 95.9182 242.548 99.1271 236.956 100.83C233.526 101.877 230.032 102.27 226.646 102.096C226.363 102.081 226.145 101.839 226.159 101.556C226.174 101.272 226.416 101.054 226.699 101.069C229.969 101.237 233.345 100.858 236.656 99.8461L236.657 99.846C242.057 98.2017 246.634 95.1034 250.072 91.1406C250.259 90.9261 250.583 90.9031 250.798 91.0892Z" fill="black"/>
<path d="M244.191 67.3853C245.48 71.633 244.986 76.0095 243.139 79.6995C239.318 77.4469 234.616 76.739 230.043 78.1334C225.47 79.5279 221.949 82.7245 220.039 86.7148C216.453 84.6768 213.598 81.33 212.31 77.0822L244.191 67.3853Z" fill="black"/>
<path fill-rule="evenodd" clip-rule="evenodd" d="M244.434 66.932C244.554 66.9962 244.644 67.1057 244.684 67.2363C246.012 71.6153 245.502 76.1273 243.599 79.9298C243.536 80.0573 243.422 80.1525 243.285 80.1929C243.148 80.2332 243.001 80.215 242.878 80.1427C239.175 77.9599 234.622 77.2749 230.193 78.6255C225.763 79.9765 222.353 83.0723 220.502 86.9371C220.441 87.0658 220.328 87.163 220.192 87.2057C220.056 87.2483 219.909 87.2325 219.785 87.162C216.091 85.0625 213.146 81.6124 211.818 77.2316C211.735 76.9601 211.889 76.6731 212.16 76.5906L244.042 66.8936C244.172 66.8539 244.313 66.8677 244.434 66.932ZM212.959 77.4225C214.21 81.1223 216.705 84.0797 219.825 85.992C221.845 82.1104 225.371 79.0209 229.893 77.6419C234.418 76.2621 239.065 76.8785 242.914 78.9808C244.443 75.6548 244.857 71.8033 243.841 68.0294L212.959 77.4225Z" fill="black"/>
<path fill-rule="evenodd" clip-rule="evenodd" d="M242.455 79.9002C238.85 77.9109 234.456 77.326 230.215 78.6251L230.215 78.6253C225.952 79.9251 222.635 82.8397 220.741 86.5003C224.381 88.4121 228.72 88.9405 232.965 87.66C237.186 86.3803 240.504 83.5048 242.455 79.9002ZM229.915 77.6418C234.61 76.2033 239.483 76.9341 243.402 79.2573C243.634 79.3951 243.72 79.6893 243.599 79.9306C241.563 83.9764 237.934 87.2285 233.263 88.6443L233.262 88.6445C228.572 90.0594 223.768 89.3958 219.808 87.1627C219.572 87.0298 219.48 86.7369 219.596 86.4928C221.567 82.377 225.2 79.0797 229.915 77.6418Z" fill="black"/>
<path fill-rule="evenodd" clip-rule="evenodd" d="M210.359 60.2234C210.476 59.9645 210.78 59.8491 211.039 59.9656L217.523 62.8832C217.658 62.9442 217.761 63.0607 217.804 63.2029C217.847 63.345 217.827 63.4988 217.748 63.6247L213.991 69.6317C213.84 69.8724 213.523 69.9455 213.282 69.795C213.041 69.6444 212.968 69.3272 213.119 69.0864L216.564 63.5791L210.617 60.9033C210.358 60.7868 210.243 60.4824 210.359 60.2234Z" fill="black"/>
<path fill-rule="evenodd" clip-rule="evenodd" d="M236.435 52.2971C236.676 52.4479 236.748 52.7652 236.598 53.0058L233.133 58.533L239.077 61.1879C239.336 61.3037 239.452 61.6078 239.336 61.867C239.221 62.1263 238.917 62.2426 238.657 62.1268L232.174 59.2306C232.038 59.1699 231.935 59.0532 231.891 58.9108C231.848 58.7684 231.869 58.6142 231.948 58.4881L235.726 52.4597C235.877 52.2191 236.194 52.1463 236.435 52.2971Z" fill="black"/>
<path d="M243.376 15.2535L247.67 19.1794C247.884 19.3725 248.185 19.4583 248.464 19.394L254.132 18.0853C254.84 17.9137 255.42 18.6431 255.119 19.3082L252.715 24.6072C252.586 24.8646 252.607 25.165 252.758 25.4224L255.763 30.4211C256.128 31.0432 255.635 31.8155 254.905 31.7512L249.108 31.1076C248.829 31.0861 248.528 31.1934 248.357 31.4079L244.535 35.8059C244.063 36.3637 243.161 36.1277 243.011 35.3983L241.83 29.6916C241.765 29.4127 241.572 29.1768 241.315 29.0695L235.947 26.7954C235.282 26.5165 235.217 25.594 235.861 25.2293L240.928 22.3546C241.186 22.2044 241.336 21.9469 241.379 21.668L241.873 15.8756C241.959 15.1033 242.839 14.76 243.376 15.2535Z" fill="white"/>
<path fill-rule="evenodd" clip-rule="evenodd" d="M242.385 15.8986C242.385 15.8988 242.385 15.899 242.385 15.8992L241.891 21.6901C241.89 21.7017 241.889 21.7132 241.887 21.7247C241.824 22.133 241.598 22.5374 241.187 22.7772L241.182 22.7801L236.115 25.6551C235.844 25.8084 235.873 26.1852 236.146 26.2997L236.148 26.3004L241.512 28.5733C241.513 28.5735 241.513 28.5738 241.514 28.574C241.932 28.7487 242.231 29.1232 242.331 29.5544C242.332 29.5582 242.333 29.562 242.333 29.5659L243.514 35.2729C243.581 35.5972 243.957 35.6712 244.143 35.4521L244.147 35.4471L247.963 31.0559C248.26 30.692 248.734 30.5416 249.147 30.5734C249.153 30.5738 249.159 30.5744 249.165 30.575L254.955 31.2178C255.276 31.2428 255.466 30.9121 255.321 30.6615L252.317 25.6658L252.314 25.66C252.086 25.2702 252.04 24.7856 252.255 24.3555C252.382 24.1016 252.691 23.9987 252.945 24.1258C253.199 24.2529 253.302 24.5617 253.175 24.8157C253.132 24.8999 253.129 25.0151 253.2 25.1392L256.204 30.1345L256.207 30.1393C256.789 31.1316 255.994 32.3418 254.86 32.2417C254.856 32.2414 254.852 32.241 254.848 32.2406L249.062 31.5981C248.923 31.5898 248.804 31.65 248.758 31.7077C248.754 31.7131 248.749 31.7184 248.745 31.7236L244.925 36.1193C244.165 37.0122 242.741 36.6139 242.507 35.4804L241.328 29.7812C241.298 29.6574 241.212 29.5622 241.117 29.5225L241.114 29.5213L235.749 27.248C235.748 27.2479 235.748 27.2477 235.748 27.2476C234.691 26.8037 234.591 25.3366 235.608 24.7606M235.608 24.7603L240.671 21.8876C240.771 21.8287 240.843 21.7239 240.868 21.5828L241.361 15.8104L241.361 15.8088C241.463 14.6446 242.831 14.1487 243.672 14.8887C243.675 14.8909 243.677 14.8931 243.68 14.8953L247.972 18.8196C248.07 18.9075 248.201 18.9383 248.305 18.9143C248.305 18.9144 248.305 18.9143 248.305 18.9143L253.973 17.6057C254.25 17.5418 254.526 17.7143 254.59 17.991C254.654 18.2676 254.481 18.5437 254.205 18.6076L248.537 19.9163C248.083 20.0208 247.613 19.8804 247.283 19.583L247.28 19.5802L242.99 15.6583C242.758 15.4584 242.411 15.6057 242.385 15.8986" fill="black"/>
<path d="M54.3602 137.131H98.4581C106.595 137.131 113.186 130.544 113.186 122.413C113.186 114.283 106.595 107.696 98.4581 107.696H96.0321L99.0163 93.1509L77.7188 107.696H54.3602C46.2234 107.696 39.6323 114.283 39.6323 122.413C39.6323 130.544 46.2234 137.131 54.3602 137.131Z" fill="white"/>
<path fill-rule="evenodd" clip-rule="evenodd" d="M113.165 121.921C113.449 121.921 113.679 122.151 113.679 122.435C113.679 130.85 106.857 137.666 98.4369 137.666H95.4956C95.2116 137.666 94.9814 137.436 94.9814 137.152C94.9814 136.868 95.2116 136.638 95.4956 136.638H98.4369C106.29 136.638 112.651 130.282 112.651 122.435C112.651 122.151 112.881 121.921 113.165 121.921Z" fill="black"/>
<path fill-rule="evenodd" clip-rule="evenodd" d="M99.301 92.7443C99.4754 92.8603 99.562 93.0705 99.5199 93.2757L96.6623 107.204H98.458C103.013 107.204 107.102 109.203 109.9 112.376C110.088 112.589 110.068 112.914 109.855 113.102C109.642 113.29 109.317 113.269 109.129 113.057C106.517 110.094 102.705 108.232 98.458 108.232H96.032C95.8775 108.232 95.7312 108.162 95.6336 108.043C95.5359 107.923 95.4973 107.766 95.5284 107.614L98.2573 94.3133L78.0087 108.142C77.9232 108.201 77.8222 108.232 77.7187 108.232H68.6802C68.3962 108.232 68.166 108.002 68.166 107.718C68.166 107.434 68.3962 107.204 68.6802 107.204H77.5599L98.7263 92.7478C98.8992 92.6296 99.1266 92.6282 99.301 92.7443Z" fill="black"/>
<path fill-rule="evenodd" clip-rule="evenodd" d="M45.8781 134.47C46.0324 134.231 46.3508 134.163 46.5891 134.318C48.8284 135.768 51.4801 136.617 54.3391 136.617H82.4853C82.7693 136.617 82.9995 136.847 82.9995 137.131C82.9995 137.415 82.7693 137.645 82.4853 137.645H54.3391C51.2726 137.645 48.4281 136.734 46.0301 135.181C45.7918 135.026 45.7237 134.708 45.8781 134.47Z" fill="black"/>
<path fill-rule="evenodd" clip-rule="evenodd" d="M39.1182 122.435C39.1182 114.02 45.9398 107.204 54.3602 107.204C54.6442 107.204 54.8744 107.434 54.8744 107.718C54.8744 108.002 54.6442 108.232 54.3602 108.232C46.507 108.232 40.1464 114.589 40.1464 122.435C40.1464 125.064 40.8713 127.527 42.115 129.64C42.259 129.885 42.1774 130.2 41.9327 130.344C41.688 130.488 41.3729 130.406 41.2288 130.162C39.8962 127.898 39.1182 125.255 39.1182 122.435Z" fill="black"/>
<path d="M30.4651 66.5701C20.3316 66.5701 12.1089 74.7867 12.1089 84.9128C12.1089 88.3668 13.0535 91.5848 14.7067 94.3309L12.1089 103.256L21.5554 100.939C24.1961 102.419 27.2447 103.256 30.4866 103.256C40.6201 103.256 48.8428 95.0388 48.8428 84.9128C48.8428 74.7867 40.5986 66.5701 30.4651 66.5701Z" fill="#EBEBEB"/>
<path fill-rule="evenodd" clip-rule="evenodd" d="M14.8503 93.8373C15.123 93.9166 15.2797 94.202 15.2003 94.4746L12.8515 102.544L21.4329 100.439C21.5594 100.408 21.6931 100.426 21.8068 100.49C24.3719 101.928 27.3341 102.741 30.4866 102.741C32.6386 102.741 34.7244 102.366 36.6187 101.658C36.8847 101.559 37.1809 101.694 37.2802 101.96C37.3795 102.226 37.2444 102.522 36.9784 102.622C34.9652 103.373 32.7572 103.77 30.4866 103.77C27.228 103.77 24.1572 102.947 21.4825 101.486L12.2314 103.755C12.0529 103.799 11.8647 103.744 11.7376 103.611C11.6106 103.479 11.5639 103.288 11.6152 103.112L14.213 94.1872C14.2924 93.9146 14.5777 93.7579 14.8503 93.8373Z" fill="black"/>
<path fill-rule="evenodd" clip-rule="evenodd" d="M14.1112 75.4947C17.3767 69.8503 23.4682 66.0559 30.4649 66.0559C33.0445 66.0559 35.517 66.5627 37.7709 67.5122C38.0325 67.6224 38.1553 67.9239 38.0451 68.1856C37.9348 68.4473 37.6334 68.57 37.3717 68.4598C35.2458 67.5642 32.9091 67.0842 30.4649 67.0842C23.8502 67.0842 18.0906 70.6698 15.0012 76.0096C14.859 76.2554 14.5445 76.3394 14.2987 76.1972C14.053 76.055 13.969 75.7404 14.1112 75.4947Z" fill="black"/>
<path fill-rule="evenodd" clip-rule="evenodd" d="M45.1088 73.8537C45.3398 73.6886 45.6609 73.742 45.826 73.973C48.0328 77.0603 49.3355 80.8327 49.3355 84.9129C49.3355 85.1969 49.1053 85.427 48.8213 85.427C48.5374 85.427 48.3072 85.1969 48.3072 84.9129C48.3072 81.0554 47.0765 77.4907 44.9895 74.571C44.8243 74.34 44.8777 74.0188 45.1088 73.8537Z" fill="black"/>
<path d="M137.94 46.0392H118.339C120.7 40.6544 124.221 37.2647 128.129 37.2647C132.058 37.2433 135.557 40.6544 137.94 46.0392Z" fill="black"/>
<path fill-rule="evenodd" clip-rule="evenodd" d="M137.138 45.5251C134.797 40.6261 131.572 37.7601 128.132 37.7789L128.129 37.7789C124.706 37.7789 121.461 40.631 119.138 45.5251H137.138ZM128.127 36.7506C132.379 36.7282 136.007 40.4003 138.41 45.8311C138.481 45.9902 138.466 46.174 138.371 46.3197C138.276 46.4654 138.114 46.5533 137.94 46.5533H118.339C118.165 46.5533 118.003 46.4657 117.908 46.3204C117.813 46.1751 117.798 45.9917 117.868 45.8327C120.252 40.3972 123.901 36.7514 128.127 36.7506Z" fill="black"/>
<path d="M137.296 80.429C134.956 85.02 131.714 87.8733 128.129 87.8733C124.543 87.8733 121.302 85.02 118.961 80.429H137.296Z" fill="black"/>
<path fill-rule="evenodd" clip-rule="evenodd" d="M118.523 80.1606C118.616 80.008 118.783 79.915 118.961 79.915H137.296C137.475 79.915 137.641 80.008 137.735 80.1606C137.828 80.3131 137.835 80.5033 137.754 80.6627C135.384 85.3119 132.009 88.3877 128.129 88.3877C124.249 88.3877 120.873 85.3119 118.503 80.6627C118.422 80.5033 118.43 80.3131 118.523 80.1606ZM119.817 80.9433C122.081 85.0165 125.023 87.3594 128.129 87.3594C131.234 87.3594 134.177 85.0165 136.44 80.9433H119.817Z" fill="black"/>
<path fill-rule="evenodd" clip-rule="evenodd" d="M140.213 71.7307C140.491 71.7886 140.67 72.0609 140.612 72.3389C139.959 75.4678 138.979 78.2785 137.776 80.6609C137.648 80.9144 137.339 81.0161 137.086 80.8881C136.832 80.7601 136.731 80.4509 136.859 80.1974C138.017 77.903 138.969 75.1787 139.605 72.129C139.663 71.8511 139.935 71.6727 140.213 71.7307Z" fill="black"/>
<path fill-rule="evenodd" clip-rule="evenodd" d="M137.733 45.5686C137.993 45.4542 138.296 45.5722 138.411 45.8321C140.397 50.3482 141.589 56.1915 141.589 62.5798C141.589 63.3612 141.567 64.1648 141.523 64.9261C141.507 65.2096 141.264 65.4263 140.981 65.4101C140.697 65.3939 140.481 65.1509 140.497 64.8674C140.539 64.127 140.56 63.343 140.56 62.5798C140.56 56.3105 139.39 50.6119 137.469 46.2462C137.355 45.9863 137.473 45.6829 137.733 45.5686Z" fill="black"/>
<path d="M20.5676 88.088C22.3224 88.088 23.745 86.6665 23.745 84.9129C23.745 83.1593 22.3224 81.7378 20.5676 81.7378C18.8127 81.7378 17.3901 83.1593 17.3901 84.9129C17.3901 86.6665 18.8127 88.088 20.5676 88.088Z" fill="black"/>
<path d="M30.465 88.088C32.2199 88.088 33.6425 86.6665 33.6425 84.9129C33.6425 83.1593 32.2199 81.7378 30.465 81.7378C28.7102 81.7378 27.2876 83.1593 27.2876 84.9129C27.2876 86.6665 28.7102 88.088 30.465 88.088Z" fill="black"/>
<path d="M40.362 88.088C42.1169 88.088 43.5395 86.6665 43.5395 84.9129C43.5395 83.1593 42.1169 81.7378 40.362 81.7378C38.6072 81.7378 37.1846 83.1593 37.1846 84.9129C37.1846 86.6665 38.6072 88.088 40.362 88.088Z" fill="black"/>
<path fill-rule="evenodd" clip-rule="evenodd" d="M273.695 48.5838C273.795 48.7881 273.71 49.0343 273.505 49.1336L262.255 54.6042C262.051 54.7036 261.805 54.6185 261.706 54.4142C261.606 54.2099 261.691 53.9638 261.896 53.8644L273.145 48.3938C273.35 48.2945 273.596 48.3795 273.695 48.5838Z" fill="black"/>
<path fill-rule="evenodd" clip-rule="evenodd" d="M262.867 60.9494C262.879 60.7225 263.073 60.5483 263.3 60.5601L269.44 60.8819C269.667 60.8938 269.841 61.0874 269.829 61.3142C269.817 61.5411 269.624 61.7153 269.397 61.7034L263.256 61.3816C263.03 61.3697 262.855 61.1762 262.867 60.9494Z" fill="black"/>
<path fill-rule="evenodd" clip-rule="evenodd" d="M261.304 43.7723C261.489 43.9033 261.534 44.1599 261.403 44.3455L257.86 49.3656C257.729 49.5512 257.473 49.5955 257.287 49.4645C257.101 49.3336 257.057 49.0769 257.188 48.8913L260.731 43.8712C260.861 43.6856 261.118 43.6413 261.304 43.7723Z" fill="black"/>
<path fill-rule="evenodd" clip-rule="evenodd" d="M64.2939 0.0825493C64.4598 -0.0234418 64.6775 0.00294888 64.8132 0.145501L80.9137 17.0533L86.6149 8.98765C86.7117 8.85073 86.8819 8.78626 87.0451 8.82472C87.2083 8.86318 87.3318 8.99686 87.3573 9.16259L89.0611 20.2498L94.511 16.5021C94.6369 16.4156 94.8004 16.4059 94.9355 16.477C95.0707 16.5481 95.1554 16.6883 95.1554 16.841V20.9601C95.1554 21.1873 94.9712 21.3714 94.7441 21.3714C94.5169 21.3714 94.3328 21.1873 94.3328 20.9601V17.6231L88.9872 21.299C88.8706 21.3792 88.7209 21.3938 88.591 21.3377C88.4611 21.2815 88.3691 21.1625 88.3476 21.0226L86.6989 10.294L81.2967 17.9366C81.2257 18.0371 81.1134 18.1005 80.9907 18.1094C80.8681 18.1184 80.7478 18.0719 80.663 17.9828L65.6739 2.2422L70.4155 14.2442C70.499 14.4555 70.3954 14.6944 70.1841 14.7779C69.9728 14.8614 69.7339 14.7578 69.6504 14.5465L64.1328 0.580273C64.0605 0.397197 64.128 0.18854 64.2939 0.0825493Z" fill="black"/>
<path fill-rule="evenodd" clip-rule="evenodd" d="M71.8133 18.8615C72.0244 18.7775 72.2635 18.8806 72.3475 19.0916L74.473 24.4336C74.5291 24.5746 74.503 24.7351 74.405 24.8511C74.307 24.967 74.1531 25.0196 74.0047 24.9878L57.2428 21.3986L70.13 32.5123C70.2296 32.5982 70.2821 32.7266 70.2713 32.8577C70.2604 32.9888 70.1875 33.1068 70.075 33.1752L63.7097 37.0452L74.2192 40.4995C74.435 40.5704 74.5525 40.8029 74.4816 41.0187C74.4106 41.2345 74.1782 41.3519 73.9624 41.281L62.6051 37.5481C62.4527 37.498 62.3433 37.3637 62.3249 37.2043C62.3066 37.0448 62.3827 36.8893 62.5199 36.8059L69.1646 32.766L55.4874 20.9711C55.3451 20.8484 55.3041 20.6448 55.3877 20.4766C55.4714 20.3083 55.6584 20.2181 55.8422 20.2574L73.424 24.0222L71.5832 19.3958C71.4992 19.1847 71.6022 18.9455 71.8133 18.8615Z" fill="black"/>
<path d="M130.233 122.971C137.086 122.971 142.642 117.42 142.642 110.571C142.642 103.723 137.086 98.1711 130.233 98.1711C123.38 98.1711 117.824 103.723 117.824 110.571C117.824 117.42 123.38 122.971 130.233 122.971Z" fill="#EBEBEB"/>
<path fill-rule="evenodd" clip-rule="evenodd" d="M142.621 109.688C142.848 109.688 143.032 109.872 143.032 110.099V110.571C143.032 117.642 137.287 123.383 130.211 123.383C125.974 123.383 122.226 121.321 119.898 118.174C119.762 117.992 119.801 117.734 119.984 117.599C120.166 117.464 120.424 117.503 120.559 117.685C122.739 120.632 126.247 122.56 130.211 122.56C136.833 122.56 142.209 117.187 142.209 110.571V110.099C142.209 109.872 142.394 109.688 142.621 109.688Z" fill="black"/>
<path fill-rule="evenodd" clip-rule="evenodd" d="M129.821 98.1711C129.821 97.9439 130.005 97.7598 130.233 97.7598C134.401 97.7598 138.107 99.7325 140.437 102.814C140.574 102.996 140.538 103.254 140.356 103.391C140.175 103.528 139.917 103.492 139.78 103.311C137.602 100.428 134.136 98.5824 130.233 98.5824C130.005 98.5824 129.821 98.3982 129.821 98.1711Z" fill="black"/>
<path fill-rule="evenodd" clip-rule="evenodd" d="M130.233 107.7C128.645 107.7 127.359 108.986 127.359 110.571C127.359 112.157 128.645 113.442 130.233 113.442C131.82 113.442 133.106 112.157 133.106 110.571C133.106 108.986 131.82 107.7 130.233 107.7ZM126.537 110.571C126.537 108.531 128.192 106.877 130.233 106.877C132.274 106.877 133.929 108.531 133.929 110.571C133.929 112.611 132.274 114.265 130.233 114.265C128.192 114.265 126.537 112.611 126.537 110.571Z" fill="black"/>
<path fill-rule="evenodd" clip-rule="evenodd" d="M129.789 104.224C133.52 103.962 136.606 106.903 136.606 110.571L129.789 104.224ZM129.731 103.403C133.944 103.107 137.428 106.431 137.428 110.571C137.428 111.231 137.337 111.868 137.178 112.459L137.177 112.461C136.891 113.503 135.954 114.196 134.88 114.222L134.878 114.222C133.435 114.249 132.48 112.811 132.959 111.483C133.036 111.269 133.271 111.158 133.485 111.235C133.699 111.312 133.81 111.548 133.733 111.762C133.438 112.579 134.029 113.415 134.861 113.399C135.59 113.382 136.198 112.917 136.384 112.244C136.525 111.72 136.606 111.155 136.606 110.571M129.731 103.403L129.731 103.403L129.731 103.403ZM129.789 104.224C126.644 104.445 124.102 106.986 123.88 110.128C123.88 110.136 123.879 110.143 123.878 110.15C123.841 110.449 123.858 110.776 123.88 111.125C123.894 111.352 123.722 111.547 123.495 111.561C123.269 111.575 123.073 111.403 123.059 111.176C123.038 110.842 123.014 110.444 123.06 110.059C123.316 106.513 126.182 103.653 129.731 103.403" fill="black"/>
<path fill-rule="evenodd" clip-rule="evenodd" d="M124.992 114.905C125.158 114.75 125.418 114.758 125.573 114.924C126.743 116.174 128.396 116.939 130.233 116.939C130.46 116.939 130.644 117.123 130.644 117.351C130.644 117.578 130.46 117.762 130.233 117.762C128.162 117.762 126.293 116.897 124.973 115.486C124.818 115.321 124.826 115.06 124.992 114.905Z" fill="black"/>
<path fill-rule="evenodd" clip-rule="evenodd" d="M112.109 56.3368C112.109 56.1097 112.294 55.9255 112.521 55.9255H137.661C137.888 55.9255 138.073 56.1097 138.073 56.3368C138.073 56.564 137.888 56.7482 137.661 56.7482H112.521C112.294 56.7482 112.109 56.564 112.109 56.3368Z" fill="black"/>
<path fill-rule="evenodd" clip-rule="evenodd" d="M91.8853 56.3368C91.8853 56.1097 92.0694 55.9255 92.2966 55.9255H107.733C107.96 55.9255 108.144 56.1097 108.144 56.3368C108.144 56.564 107.96 56.7482 107.733 56.7482H92.2966C92.0694 56.7482 91.8853 56.564 91.8853 56.3368Z" fill="black"/>
<path fill-rule="evenodd" clip-rule="evenodd" d="M68.269 56.3368C68.269 56.1097 68.4532 55.9255 68.6804 55.9255H82.0986C82.3258 55.9255 82.51 56.1097 82.51 56.3368C82.51 56.564 82.3258 56.7482 82.0986 56.7482H68.6804C68.4532 56.7482 68.269 56.564 68.269 56.3368Z" fill="black"/>
<path fill-rule="evenodd" clip-rule="evenodd" d="M106.248 62.8373C106.248 62.6102 106.432 62.426 106.659 62.426H137.94C138.167 62.426 138.351 62.6102 138.351 62.8373C138.351 63.0645 138.167 63.2486 137.94 63.2486H106.659C106.432 63.2486 106.248 63.0645 106.248 62.8373Z" fill="black"/>
<path fill-rule="evenodd" clip-rule="evenodd" d="M68.269 62.8373C68.269 62.6102 68.4532 62.426 68.6804 62.426H100.09C100.317 62.426 100.501 62.6102 100.501 62.8373C100.501 63.0645 100.317 63.2486 100.09 63.2486H68.6804C68.4532 63.2486 68.269 63.0645 68.269 62.8373Z" fill="black"/>
<path fill-rule="evenodd" clip-rule="evenodd" d="M91.8853 69.3591C91.8853 69.1319 92.0694 68.9478 92.2966 68.9478H117.824C118.051 68.9478 118.235 69.1319 118.235 69.3591C118.235 69.5862 118.051 69.7704 117.824 69.7704H92.2966C92.0694 69.7704 91.8853 69.5862 91.8853 69.3591Z" fill="black"/>
<path fill-rule="evenodd" clip-rule="evenodd" d="M68.269 69.3591C68.269 69.1319 68.4532 68.9478 68.6804 68.9478H86.1778C86.405 68.9478 86.5891 69.1319 86.5891 69.3591C86.5891 69.5862 86.405 69.7704 86.1778 69.7704H68.6804C68.4532 69.7704 68.269 69.5862 68.269 69.3591Z" fill="black"/>
<path fill-rule="evenodd" clip-rule="evenodd" d="M92.3359 119.26C92.3359 119.033 92.5201 118.849 92.7472 118.849H101.678C101.906 118.849 102.09 119.033 102.09 119.26C102.09 119.487 101.906 119.671 101.678 119.671H92.7472C92.5201 119.671 92.3359 119.487 92.3359 119.26Z" fill="black"/>
<path fill-rule="evenodd" clip-rule="evenodd" d="M50.7285 119.26C50.7285 119.033 50.9127 118.849 51.1398 118.849H82.5064C82.7336 118.849 82.9177 119.033 82.9177 119.26C82.9177 119.487 82.7336 119.671 82.5064 119.671H51.1398C50.9127 119.671 50.7285 119.487 50.7285 119.26Z" fill="black"/>
<path fill-rule="evenodd" clip-rule="evenodd" d="M71.4033 125.782C71.4033 125.555 71.5875 125.371 71.8146 125.371H85.7267C85.9539 125.371 86.138 125.555 86.138 125.782C86.138 126.009 85.9539 126.193 85.7267 126.193H71.8146C71.5875 126.193 71.4033 126.009 71.4033 125.782Z" fill="black"/>
<path fill-rule="evenodd" clip-rule="evenodd" d="M50.7285 125.782C50.7285 125.555 50.9127 125.371 51.1398 125.371H66.8124C67.0396 125.371 67.2237 125.555 67.2237 125.782C67.2237 126.009 67.0396 126.193 66.8124 126.193H51.1398C50.9127 126.193 50.7285 126.009 50.7285 125.782Z" fill="black"/>
<path fill-rule="evenodd" clip-rule="evenodd" d="M16.876 113.875C16.876 113.591 17.1062 113.361 17.3901 113.361H37.1848C37.4687 113.361 37.6989 113.591 37.6989 113.875C37.6989 114.159 37.4687 114.389 37.1848 114.389H17.3901C17.1062 114.389 16.876 114.159 16.876 113.875Z" fill="black"/>
<path fill-rule="evenodd" clip-rule="evenodd" d="M31.7329 117.78C31.7329 117.496 31.9631 117.265 32.247 117.265H35.2742C35.5582 117.265 35.7884 117.496 35.7884 117.78C35.7884 118.063 35.5582 118.294 35.2742 118.294H32.247C31.9631 118.294 31.7329 118.063 31.7329 117.78Z" fill="black"/>
<path fill-rule="evenodd" clip-rule="evenodd" d="M24.7554 129.901C24.7554 129.617 24.9856 129.387 25.2695 129.387H37.185C37.4689 129.387 37.6991 129.617 37.6991 129.901C37.6991 130.185 37.4689 130.415 37.185 130.415H25.2695C24.9856 130.415 24.7554 130.185 24.7554 129.901Z" fill="black"/>
<path fill-rule="evenodd" clip-rule="evenodd" d="M6.52783 69.3591C6.52783 69.0752 6.75802 68.845 7.04197 68.845H13.7619C14.0458 68.845 14.276 69.0752 14.276 69.3591C14.276 69.6431 14.0458 69.8732 13.7619 69.8732H7.04197C6.75802 69.8732 6.52783 69.6431 6.52783 69.3591Z" fill="black"/>
<path fill-rule="evenodd" clip-rule="evenodd" d="M0.967285 74.272C0.967285 73.988 1.19747 73.7578 1.48142 73.7578H10.6917C10.9757 73.7578 11.2059 73.988 11.2059 74.272C11.2059 74.5559 10.9757 74.7861 10.6917 74.7861H1.48142C1.19747 74.7861 0.967285 74.5559 0.967285 74.272Z" fill="black"/>
<path fill-rule="evenodd" clip-rule="evenodd" d="M39.8481 62.8371C39.8481 62.5532 40.0783 62.323 40.3623 62.323H52.2563C52.5402 62.323 52.7704 62.5532 52.7704 62.8371C52.7704 63.1211 52.5402 63.3513 52.2563 63.3513H40.3623C40.0783 63.3513 39.8481 63.1211 39.8481 62.8371Z" fill="black"/>
<path fill-rule="evenodd" clip-rule="evenodd" d="M36.752 51.0807C36.752 50.8536 36.9361 50.6694 37.1633 50.6694H52.2562C52.4833 50.6694 52.6675 50.8536 52.6675 51.0807C52.6675 51.3079 52.4833 51.4921 52.2562 51.4921H37.1633C36.9361 51.4921 36.752 51.3079 36.752 51.0807Z" fill="black"/>
<path fill-rule="evenodd" clip-rule="evenodd" d="M31.02 54.3845C31.02 54.1573 31.2042 53.9731 31.4313 53.9731H44.7208C44.948 53.9731 45.1321 54.1573 45.1321 54.3845C45.1321 54.6116 44.948 54.7958 44.7208 54.7958H31.4313C31.2042 54.7958 31.02 54.6116 31.02 54.3845Z" fill="black"/>
<path d="M271.908 117.651C271.114 117.007 270.169 116.707 269.225 116.707C268.28 116.707 267.335 117.029 266.541 117.651L253.423 128.142L253.273 127.927C253.187 127.798 253.08 127.691 252.994 127.562L260.358 112.652C260.658 112.052 260.809 111.387 260.809 110.743C260.809 109.477 260.25 108.233 259.198 107.396C257.073 105.701 253.917 106.366 252.693 108.791L245.845 122.135L247.39 119.045C248.464 116.9 247.605 114.261 245.437 113.189C244.814 112.867 244.148 112.717 243.483 112.717C241.894 112.717 240.348 113.596 239.576 115.098L236.055 122.049L238.631 116.9C239.704 114.755 238.846 112.116 236.677 111.043C236.055 110.721 235.389 110.571 234.723 110.571C233.135 110.571 231.589 111.451 230.816 112.953L228.197 118.123C227.445 119.582 227.617 121.255 228.454 122.521L223.967 133.14C221.112 139.662 222.98 147.278 228.519 151.741C231.396 154.057 234.895 155.216 238.395 155.216C241.658 155.216 244.9 154.208 247.669 152.191L258.64 144.21L258.662 144.189C260.852 142.601 261.345 139.555 259.757 137.367L258.426 135.436L271.887 124.28C274.055 122.564 274.034 119.346 271.908 117.651Z" fill="#EBEBEB"/>
<path fill-rule="evenodd" clip-rule="evenodd" d="M269.225 117.221C268.394 117.221 267.542 117.505 266.863 118.051L266.862 118.052L254.119 128.243L258.913 135.165C259.074 135.398 259.016 135.718 258.783 135.88C258.549 136.042 258.229 135.984 258.067 135.75L253.001 128.434C252.847 128.212 252.891 127.909 253.102 127.74L266.219 117.25C266.219 117.25 266.219 117.25 266.219 117.25C267.086 116.552 268.167 116.193 269.225 116.193C270.283 116.193 271.363 116.552 272.23 117.25C274.611 119.15 274.632 122.754 272.279 124.698C272.279 124.698 272.279 124.698 272.279 124.698L263.799 131.734C263.581 131.915 263.257 131.885 263.075 131.667C262.894 131.448 262.924 131.124 263.143 130.943L271.623 123.906L271.624 123.905C273.478 122.374 273.456 119.543 271.588 118.053L271.586 118.051C270.907 117.505 270.056 117.221 269.225 117.221Z" fill="black"/>
<path fill-rule="evenodd" clip-rule="evenodd" d="M243.504 113.231C242.077 113.231 240.736 113.989 240.055 115.331L236.535 122.281C236.535 122.281 236.535 122.281 236.535 122.281C235.567 124.197 236.328 126.522 238.236 127.466C238.266 127.481 238.294 127.498 238.32 127.518C240.202 128.418 242.495 127.637 243.431 125.766L245.363 121.905L246.908 118.817C246.908 118.817 246.908 118.816 246.909 118.816C247.857 116.901 247.076 114.59 245.225 113.647L245.222 113.645C244.676 113.363 244.092 113.231 243.504 113.231ZM239.138 114.865C240.004 113.16 241.711 112.202 243.504 112.202C244.248 112.202 244.994 112.37 245.693 112.731C248.048 113.933 249.027 116.856 247.83 119.274L247.829 119.275L244.351 126.226C243.15 128.626 240.201 129.608 237.8 128.408C237.77 128.393 237.741 128.375 237.715 128.355C235.334 127.133 234.407 124.212 235.617 121.817L239.138 114.865Z" fill="black"/>
<path fill-rule="evenodd" clip-rule="evenodd" d="M236.217 110.813C236.344 110.559 236.653 110.456 236.907 110.583C239.308 111.783 240.291 114.73 239.091 117.13L236.514 122.279C236.499 122.309 236.481 122.338 236.46 122.365C235.252 124.693 232.382 125.651 230.017 124.519C229.982 124.509 229.948 124.496 229.915 124.48C229.128 124.074 228.505 123.5 228.051 122.831L228.047 122.826C227.111 121.411 226.944 119.542 227.759 117.914C227.886 117.66 228.194 117.557 228.448 117.684C228.702 117.811 228.805 118.12 228.678 118.374C228.033 119.663 228.166 121.139 228.903 122.256C229.251 122.768 229.722 123.208 230.317 123.529C230.346 123.538 230.375 123.549 230.402 123.562C232.295 124.508 234.627 123.731 235.573 121.84C235.588 121.81 235.606 121.782 235.626 121.756L238.171 116.67C239.117 114.779 238.34 112.449 236.447 111.503C236.193 111.376 236.09 111.067 236.217 110.813Z" fill="black"/>
<path fill-rule="evenodd" clip-rule="evenodd" d="M258.099 107.303C256.303 106.453 254.052 107.155 253.109 109.003L253.108 109.004L246.262 122.343L244.331 126.203C244.33 126.204 244.33 126.204 244.33 126.204C243.128 128.629 240.176 129.585 237.779 128.387C237.748 128.372 237.719 128.353 237.692 128.332C236.02 127.458 235.063 125.764 235.065 124.002C233.655 125.061 231.717 125.304 230.019 124.498C229.985 124.489 229.952 124.477 229.921 124.461C229.432 124.217 228.991 123.894 228.616 123.511L224.463 133.34C224.462 133.343 224.461 133.345 224.46 133.348C223.381 135.795 223.006 138.43 223.256 140.963C223.284 141.246 223.077 141.498 222.794 141.525C222.512 141.553 222.26 141.347 222.232 141.064C221.967 138.364 222.365 135.552 223.517 132.937L228.003 122.321C228.077 122.146 228.241 122.026 228.43 122.009C228.619 121.992 228.802 122.08 228.906 122.239C229.25 122.763 229.736 123.204 230.313 123.507C230.343 123.515 230.372 123.526 230.4 123.54C232.319 124.49 234.628 123.728 235.573 121.821C235.598 121.771 235.63 121.725 235.67 121.685L235.691 121.664C235.87 121.485 236.152 121.463 236.357 121.611C236.561 121.759 236.628 122.034 236.514 122.259C235.547 124.173 236.304 126.481 238.219 127.447C238.247 127.461 238.274 127.478 238.299 127.497C240.184 128.398 242.474 127.634 243.409 125.747L243.41 125.745L245.342 121.883L245.345 121.879L252.193 108.535C252.193 108.535 252.193 108.535 252.193 108.534C253.397 106.178 256.255 105.293 258.539 106.374C258.795 106.495 258.905 106.802 258.783 107.058C258.662 107.315 258.355 107.425 258.099 107.303Z" fill="black"/>
<path fill-rule="evenodd" clip-rule="evenodd" d="M228.139 151.419C228.316 151.198 228.64 151.162 228.862 151.339C230.317 152.503 231.895 153.353 233.577 153.913C233.846 154.003 233.992 154.294 233.902 154.563C233.812 154.833 233.521 154.978 233.252 154.889C231.455 154.29 229.769 153.381 228.219 152.142C227.998 151.965 227.962 151.641 228.139 151.419Z" fill="black"/>
<path fill-rule="evenodd" clip-rule="evenodd" d="M259.212 114.894C259.466 115.02 259.571 115.328 259.445 115.583L253.579 127.473C253.613 127.521 253.643 127.566 253.67 127.606C253.672 127.609 253.674 127.612 253.676 127.615L253.823 127.825C253.986 128.058 253.93 128.378 253.697 128.541C253.464 128.704 253.144 128.648 252.981 128.415L252.831 128.201C252.828 128.197 252.826 128.194 252.824 128.191C252.733 128.054 252.674 127.97 252.609 127.905C252.453 127.749 252.414 127.511 252.512 127.313L258.523 115.128C258.649 114.873 258.957 114.769 259.212 114.894Z" fill="black"/>
<path fill-rule="evenodd" clip-rule="evenodd" d="M252.586 127.901C251.106 126.211 248.57 125.904 246.725 127.228C245.531 128.095 244.899 129.419 244.899 130.78C244.899 131.661 245.167 132.542 245.724 133.31C245.725 133.312 245.727 133.314 245.728 133.316C245.729 133.317 245.73 133.319 245.731 133.321L249.424 138.684C249.568 138.893 249.538 139.175 249.354 139.349C249.17 139.523 248.886 139.537 248.686 139.382C245.24 136.713 242.327 136.125 239.958 136.584C237.569 137.046 235.627 138.591 234.179 140.392C234.002 140.613 233.678 140.648 233.457 140.47C233.235 140.292 233.2 139.969 233.378 139.748C234.915 137.837 237.052 136.099 239.762 135.575C241.907 135.159 244.346 135.516 247.049 137.047L244.888 133.909C244.203 132.962 243.87 131.871 243.87 130.78C243.87 129.096 244.655 127.459 246.122 126.395L246.124 126.394C248.402 124.758 251.533 125.138 253.359 127.224C253.546 127.437 253.525 127.762 253.311 127.949C253.097 128.136 252.773 128.115 252.586 127.901Z" fill="black"/>
</g>
<defs>
<clipPath id="clip0_13502_154318">
<rect width="273.111" height="160" fill="white" transform="translate(0.944824)"/>
</clipPath>
</defs>
</svg>
