<svg xmlns="http://www.w3.org/2000/svg" xmlns:xlink="http://www.w3.org/1999/xlink" width="500" zoomAndPan="magnify" viewBox="0 0 375 374.999991" height="500" preserveAspectRatio="xMidYMid meet" version="1.2"><defs><clipPath id="23ccbcc3bb"><path d="M 102.617188 75 L 135.683594 75 L 135.683594 127.464844 L 102.617188 127.464844 Z M 102.617188 75 "/></clipPath><clipPath id="142e0def70"><path d="M 0.617188 0 L 33.683594 0 L 33.683594 52.464844 L 0.617188 52.464844 Z M 0.617188 0 "/></clipPath><clipPath id="da75be175b"><rect x="0" width="34" y="0" height="53"/></clipPath></defs><g id="2a22d7b782"><path style=" stroke:none;fill-rule:nonzero;fill:#0096ff;fill-opacity:1;" d="M 197.667969 18.019531 L 219.894531 40.117188 C 223.464844 43.664062 228.660156 45.054688 233.53125 43.765625 L 263.832031 35.738281 C 271.378906 33.734375 279.117188 38.210938 281.160156 45.734375 L 289.351562 75.988281 C 290.675781 80.851562 294.46875 84.644531 299.332031 85.96875 L 329.585938 94.160156 C 337.117188 96.203125 341.585938 103.941406 339.582031 111.488281 L 331.554688 141.789062 C 330.265625 146.660156 331.65625 151.847656 335.203125 155.425781 L 357.300781 177.652344 C 362.804688 183.183594 362.804688 192.117188 357.300781 197.660156 L 335.203125 219.882812 C 331.65625 223.453125 330.265625 228.652344 331.554688 233.523438 L 339.582031 263.824219 C 341.585938 271.367188 337.109375 279.109375 329.585938 281.148438 L 299.332031 289.34375 C 294.46875 290.664062 290.675781 294.460938 289.351562 299.320312 L 281.160156 329.574219 C 279.117188 337.109375 271.378906 341.574219 263.832031 339.574219 L 233.53125 331.546875 C 228.660156 330.253906 223.472656 331.644531 219.894531 335.195312 L 197.667969 357.292969 C 192.136719 362.796875 183.203125 362.796875 177.660156 357.292969 L 155.433594 335.195312 C 151.867188 331.644531 146.667969 330.253906 141.796875 331.546875 L 111.496094 339.574219 C 103.953125 341.574219 96.210938 337.097656 94.171875 329.574219 L 85.976562 299.320312 C 84.65625 294.460938 80.859375 290.664062 76 289.34375 L 45.746094 281.148438 C 38.210938 279.109375 33.746094 271.367188 35.746094 263.824219 L 43.773438 233.523438 C 45.066406 228.652344 43.675781 223.464844 40.125 219.882812 L 18.027344 197.660156 C 12.523438 192.128906 12.523438 183.191406 18.027344 177.652344 L 40.125 155.425781 C 43.675781 151.855469 45.066406 146.660156 43.773438 141.789062 L 35.746094 111.488281 C 33.746094 103.941406 38.222656 96.203125 45.746094 94.160156 L 76 85.96875 C 80.859375 84.644531 84.65625 80.851562 85.976562 75.988281 L 94.171875 45.734375 C 96.210938 38.203125 103.953125 33.734375 111.496094 35.738281 L 141.796875 43.765625 C 146.667969 45.054688 151.855469 43.664062 155.433594 40.117188 L 177.660156 18.019531 C 183.191406 12.515625 192.128906 12.515625 197.667969 18.019531 Z M 197.667969 18.019531 "/><path style=" stroke:none;fill-rule:nonzero;fill:#ffffff;fill-opacity:1;" d="M 154.527344 255.3125 C 151.105469 255.3125 147.683594 254.011719 145.082031 251.398438 L 102.789062 209.105469 C 97.574219 203.890625 97.574219 195.429688 102.789062 190.203125 C 108.003906 184.976562 116.464844 184.988281 121.683594 190.203125 L 154.527344 223.050781 L 253.648438 123.929688 C 258.863281 118.714844 267.324219 118.714844 272.550781 123.929688 C 277.765625 129.148438 277.765625 137.609375 272.550781 142.832031 L 163.984375 251.398438 C 161.371094 254.011719 157.960938 255.3125 154.539062 255.3125 Z M 154.527344 255.3125 "/><g clip-rule="nonzero" clip-path="url(#23ccbcc3bb)"><g transform="matrix(1,0,0,1,102,75)"><g clip-path="url(#da75be175b)"><g clip-rule="nonzero" clip-path="url(#142e0def70)"><path style=" stroke:none;fill-rule:nonzero;fill:#0096ff;fill-opacity:1;" d="M 0.617188 0 L 33.683594 0 L 33.683594 52.441406 L 0.617188 52.441406 Z M 0.617188 0 "/></g></g></g></g></g></svg>