<svg xmlns="http://www.w3.org/2000/svg" xmlns:xlink="http://www.w3.org/1999/xlink" width="500" zoomAndPan="magnify" viewBox="0 0 375 374.999991" height="500" preserveAspectRatio="xMidYMid meet" version="1.2"><defs><clipPath id="aa8e361ac8"><path d="M 285.5 187.5 L 292.886719 187.5 L 292.886719 194.890625 L 285.5 194.890625 Z M 285.5 187.5 "/></clipPath><clipPath id="5d9812d594"><path d="M 289.191406 187.5 C 287.152344 187.5 285.5 189.152344 285.5 191.195312 C 285.5 193.234375 287.152344 194.890625 289.191406 194.890625 C 291.234375 194.890625 292.886719 193.234375 292.886719 191.195312 C 292.886719 189.152344 291.234375 187.5 289.191406 187.5 Z M 289.191406 187.5 "/></clipPath><clipPath id="33f854ffe1"><path d="M 0.5 0.5 L 7.886719 0.5 L 7.886719 7.890625 L 0.5 7.890625 Z M 0.5 0.5 "/></clipPath><clipPath id="883e10bd69"><path d="M 4.191406 0.5 C 2.152344 0.5 0.5 2.152344 0.5 4.195312 C 0.5 6.234375 2.152344 7.890625 4.191406 7.890625 C 6.234375 7.890625 7.886719 6.234375 7.886719 4.195312 C 7.886719 2.152344 6.234375 0.5 4.191406 0.5 Z M 4.191406 0.5 "/></clipPath><clipPath id="b9d74c5178"><rect x="0" width="8" y="0" height="8"/></clipPath><clipPath id="76311ad735"><path d="M 138 55.78125 L 237 55.78125 L 237 100 L 138 100 Z M 138 55.78125 "/></clipPath><clipPath id="9d19021f56"><path d="M 152 55.78125 L 223 55.78125 L 223 100 L 152 100 Z M 152 55.78125 "/></clipPath><clipPath id="1a17fb1baa"><path d="M 172 55.78125 L 203 55.78125 L 203 100 L 172 100 Z M 172 55.78125 "/></clipPath><clipPath id="61da60f2d8"><path d="M 127 316 L 248 316 L 248 319.03125 L 127 319.03125 Z M 127 316 "/></clipPath></defs><g id="471323a38f"><g clip-rule="nonzero" clip-path="url(#aa8e361ac8)"><g clip-rule="nonzero" clip-path="url(#5d9812d594)"><g transform="matrix(1,0,0,1,285,187)"><g clip-path="url(#b9d74c5178)"><g clip-rule="nonzero" clip-path="url(#33f854ffe1)"><g clip-rule="nonzero" clip-path="url(#883e10bd69)"><path style=" stroke:none;fill-rule:nonzero;fill:#c2473a;fill-opacity:1;" d="M 0.5 0.5 L 7.886719 0.5 L 7.886719 7.890625 L 0.5 7.890625 Z M 0.5 0.5 "/></g></g></g></g></g></g><path style=" stroke:none;fill-rule:nonzero;fill:#c0b2a8;fill-opacity:1;" d="M 13.5625 159.484375 L 361.4375 159.484375 L 361.4375 312.890625 L 13.5625 312.890625 Z M 13.5625 159.484375 "/><path style=" stroke:none;fill-rule:nonzero;fill:#f3c899;fill-opacity:1;" d="M 8.496094 158.421875 L 137.746094 158.421875 L 137.746094 162.585938 L 8.496094 162.585938 Z M 366.503906 158.421875 L 240.441406 158.421875 L 240.441406 162.585938 L 366.503906 162.585938 Z M 366.503906 158.421875 "/><path style=" stroke:none;fill-rule:nonzero;fill:#e09479;fill-opacity:1;" d="M 6.371094 161.851562 L 134.558594 161.851562 L 134.558594 166.261719 L 6.371094 166.261719 Z M 368.628906 161.851562 L 240.441406 161.851562 L 240.441406 166.261719 L 368.628906 166.261719 Z M 368.628906 161.851562 "/><path style=" stroke:none;fill-rule:nonzero;fill:#c0b2a8;fill-opacity:1;" d="M 128.269531 103.804688 L 246.730469 103.804688 L 246.730469 170.015625 L 128.269531 170.015625 Z M 128.269531 103.804688 "/><path style=" stroke:none;fill-rule:nonzero;fill:#e8dbd4;fill-opacity:1;" d="M 171.828125 119.074219 C 175.75 119.074219 178.855469 122.257812 178.855469 126.09375 L 178.855469 151.648438 L 164.722656 151.648438 L 164.722656 126.09375 C 164.804688 122.175781 167.910156 119.074219 171.828125 119.074219 Z M 203.121094 119.074219 C 199.199219 119.074219 196.09375 122.257812 196.09375 126.09375 L 196.09375 151.648438 L 210.230469 151.648438 L 210.230469 126.09375 C 210.230469 122.175781 207.042969 119.074219 203.121094 119.074219 Z M 203.121094 119.074219 "/><path style=" stroke:none;fill-rule:nonzero;fill:#1c4b5b;fill-opacity:1;" d="M 171.828125 120.296875 C 168.5625 120.296875 166.03125 122.828125 166.03125 126.09375 L 166.03125 150.339844 L 177.628906 150.339844 L 177.628906 126.09375 C 177.628906 122.910156 175.097656 120.296875 171.828125 120.296875 Z M 203.121094 120.296875 C 206.390625 120.296875 208.921875 122.828125 208.921875 126.09375 L 208.921875 150.339844 L 197.320312 150.339844 L 197.320312 126.09375 C 197.320312 122.910156 199.933594 120.296875 203.121094 120.296875 Z M 203.121094 120.296875 "/><path style=" stroke:none;fill-rule:nonzero;fill:#e8dbd4;fill-opacity:1;" d="M 149.265625 119.074219 C 153.1875 119.074219 156.289062 122.257812 156.289062 126.09375 L 156.289062 151.648438 L 142.15625 151.648438 L 142.15625 126.09375 C 142.238281 122.175781 145.34375 119.074219 149.265625 119.074219 Z M 225.734375 119.074219 C 221.8125 119.074219 218.710938 122.257812 218.710938 126.09375 L 218.710938 151.648438 L 232.84375 151.648438 L 232.84375 126.09375 C 232.761719 122.175781 229.65625 119.074219 225.734375 119.074219 Z M 225.734375 119.074219 "/><path style=" stroke:none;fill-rule:nonzero;fill:#1c4b5b;fill-opacity:1;" d="M 149.265625 120.296875 C 145.996094 120.296875 143.464844 122.828125 143.464844 126.09375 L 143.464844 150.339844 L 155.066406 150.339844 L 155.066406 126.09375 C 155.066406 122.910156 152.53125 120.296875 149.265625 120.296875 Z M 225.734375 120.296875 C 229.003906 120.296875 231.535156 122.828125 231.535156 126.09375 L 231.535156 150.339844 L 219.933594 150.339844 L 219.933594 126.09375 C 219.933594 122.910156 222.46875 120.296875 225.734375 120.296875 Z M 225.734375 120.296875 "/><path style=" stroke:none;fill-rule:nonzero;fill:#e09479;fill-opacity:1;" d="M 6.371094 184.058594 L 187.5 184.058594 L 187.5 188.46875 L 6.371094 188.46875 Z M 368.628906 184.058594 L 187.5 184.058594 L 187.5 188.46875 L 368.628906 188.46875 Z M 368.628906 184.058594 "/><path style=" stroke:none;fill-rule:nonzero;fill:#f3c899;fill-opacity:1;" d="M 6.371094 235.167969 L 368.710938 235.167969 L 368.710938 239.085938 L 6.371094 239.085938 Z M 6.371094 235.167969 "/><path style=" stroke:none;fill-rule:nonzero;fill:#e09479;fill-opacity:1;" d="M 6.371094 239.085938 L 368.710938 239.085938 L 368.710938 243.492188 L 6.371094 243.492188 Z M 6.371094 239.085938 "/><path style=" stroke:none;fill-rule:nonzero;fill:#e9c9aa;fill-opacity:1;" d="M 121.324219 145.523438 L 253.59375 145.523438 L 253.59375 154.503906 L 121.324219 154.503906 Z M 121.324219 145.523438 "/><path style=" stroke:none;fill-rule:nonzero;fill:#f3c899;fill-opacity:1;" d="M 6.371094 184.058594 L 187.5 184.058594 L 187.5 180.140625 L 6.371094 180.140625 Z M 368.628906 184.058594 L 187.5 184.058594 L 187.5 180.140625 L 368.628906 180.140625 Z M 368.628906 184.058594 "/><path style=" stroke:none;fill-rule:nonzero;fill:#e09479;fill-opacity:1;" d="M 279.738281 188.46875 L 95.261719 188.46875 L 187.5 145.605469 Z M 279.738281 188.46875 "/><path style=" stroke:none;fill-rule:nonzero;fill:#e8dbd4;fill-opacity:1;" d="M 45.832031 195.570312 C 50.164062 195.570312 53.59375 199.082031 53.59375 203.328125 L 53.59375 231.492188 L 38.070312 231.492188 L 38.070312 203.328125 C 38.070312 199 41.503906 195.570312 45.832031 195.570312 Z M 329.167969 195.570312 C 324.835938 195.570312 321.40625 199.082031 321.40625 203.328125 L 321.40625 231.492188 L 337.011719 231.492188 L 337.011719 203.328125 C 336.929688 199 333.496094 195.570312 329.167969 195.570312 Z M 329.167969 195.570312 "/><path style=" stroke:none;fill-rule:nonzero;fill:#e8dbd4;fill-opacity:1;" d="M 70.914062 195.570312 C 75.246094 195.570312 78.675781 199.082031 78.675781 203.328125 L 78.675781 231.492188 L 63.070312 231.492188 L 63.070312 203.328125 C 63.070312 199 66.585938 195.570312 70.914062 195.570312 Z M 304.085938 195.570312 C 299.753906 195.570312 296.324219 199.082031 296.324219 203.328125 L 296.324219 231.492188 L 311.929688 231.492188 L 311.929688 203.328125 C 311.929688 199 308.414062 195.570312 304.085938 195.570312 Z M 304.085938 195.570312 "/><path style=" stroke:none;fill-rule:nonzero;fill:#e8dbd4;fill-opacity:1;" d="M 95.914062 195.570312 C 100.246094 195.570312 103.675781 199.082031 103.675781 203.328125 L 103.675781 231.492188 L 88.070312 231.492188 L 88.070312 203.328125 C 88.152344 199 91.585938 195.570312 95.914062 195.570312 Z M 279.085938 195.570312 C 274.753906 195.570312 271.324219 199.082031 271.324219 203.328125 L 271.324219 231.492188 L 286.929688 231.492188 L 286.929688 203.328125 C 286.847656 199 283.414062 195.570312 279.085938 195.570312 Z M 279.085938 195.570312 "/><path style=" stroke:none;fill-rule:nonzero;fill:#e8dbd4;fill-opacity:1;" d="M 45.832031 255.820312 C 50.164062 255.820312 53.59375 259.332031 53.59375 263.578125 L 53.59375 291.742188 L 38.070312 291.742188 L 38.070312 263.578125 C 38.070312 259.332031 41.503906 255.820312 45.832031 255.820312 Z M 329.167969 255.820312 C 324.835938 255.820312 321.40625 259.332031 321.40625 263.578125 L 321.40625 291.742188 L 337.011719 291.742188 L 337.011719 263.578125 C 336.929688 259.332031 333.496094 255.820312 329.167969 255.820312 Z M 329.167969 255.820312 "/><path style=" stroke:none;fill-rule:nonzero;fill:#e8dbd4;fill-opacity:1;" d="M 70.914062 255.820312 C 75.246094 255.820312 78.675781 259.332031 78.675781 263.578125 L 78.675781 291.742188 L 63.070312 291.742188 L 63.070312 263.578125 C 63.070312 259.332031 66.585938 255.820312 70.914062 255.820312 Z M 304.085938 255.820312 C 299.753906 255.820312 296.324219 259.332031 296.324219 263.578125 L 296.324219 291.742188 L 311.929688 291.742188 L 311.929688 263.578125 C 311.929688 259.332031 308.414062 255.820312 304.085938 255.820312 Z M 304.085938 255.820312 "/><path style=" stroke:none;fill-rule:nonzero;fill:#e8dbd4;fill-opacity:1;" d="M 95.914062 255.820312 C 100.246094 255.820312 103.675781 259.332031 103.675781 263.578125 L 103.675781 291.742188 L 88.070312 291.742188 L 88.070312 263.578125 C 88.152344 259.332031 91.585938 255.820312 95.914062 255.820312 Z M 279.085938 255.820312 C 274.753906 255.820312 271.324219 259.332031 271.324219 263.578125 L 271.324219 291.742188 L 286.929688 291.742188 L 286.929688 263.578125 C 286.847656 259.332031 283.414062 255.820312 279.085938 255.820312 Z M 279.085938 255.820312 "/><path style=" stroke:none;fill-rule:nonzero;fill:#f1d5bf;fill-opacity:1;" d="M 118.871094 204.550781 L 130.964844 204.550781 L 130.964844 288.152344 L 118.871094 288.152344 Z M 256.128906 204.550781 L 244.035156 204.550781 L 244.035156 288.152344 L 256.128906 288.152344 Z M 256.128906 204.550781 "/><path style=" stroke:none;fill-rule:nonzero;fill:#eac0a6;fill-opacity:1;" d="M 115.359375 294.683594 L 134.394531 294.683594 L 130.964844 288.152344 L 118.871094 288.152344 Z M 259.640625 294.683594 L 240.605469 294.683594 L 244.035156 288.152344 L 256.128906 288.152344 Z M 259.640625 294.683594 "/><path style=" stroke:none;fill-rule:nonzero;fill:#d98e6e;fill-opacity:1;" d="M 115.359375 294.683594 L 134.394531 294.683594 L 134.394531 300.316406 L 115.359375 300.316406 Z M 259.640625 294.683594 L 240.605469 294.683594 L 240.605469 300.316406 L 259.640625 300.316406 Z M 259.640625 294.683594 "/><path style=" stroke:none;fill-rule:nonzero;fill:#e09479;fill-opacity:1;" d="M 114.542969 200.0625 L 260.539062 200.0625 L 260.539062 204.46875 L 114.542969 204.46875 Z M 114.542969 200.0625 "/><path style=" stroke:none;fill-rule:nonzero;fill:#f1d5bf;fill-opacity:1;" d="M 116.828125 195 L 258.25 195 L 258.25 200.0625 L 116.828125 200.0625 Z M 116.828125 195 "/><path style=" stroke:none;fill-rule:nonzero;fill:#e9b69e;fill-opacity:1;" d="M 112.253906 188.46875 L 262.828125 188.46875 L 262.828125 194.917969 L 112.253906 194.917969 Z M 112.253906 188.46875 "/><path style=" stroke:none;fill-rule:nonzero;fill:#eac9b2;fill-opacity:1;" d="M 121.078125 204.550781 L 121.078125 288.152344 L 122.710938 288.152344 L 122.710938 204.550781 Z M 124.101562 204.550781 L 124.101562 288.152344 L 125.734375 288.152344 L 125.734375 204.550781 Z M 127.042969 204.550781 L 127.042969 288.152344 L 128.675781 288.152344 L 128.675781 204.550781 Z M 253.921875 204.550781 L 253.921875 288.152344 L 252.289062 288.152344 L 252.289062 204.550781 Z M 250.898438 204.550781 L 250.898438 288.152344 L 249.265625 288.152344 L 249.265625 204.550781 Z M 247.957031 204.550781 L 247.957031 288.152344 L 246.324219 288.152344 L 246.324219 204.550781 Z M 247.957031 204.550781 "/><path style=" stroke:none;fill-rule:nonzero;fill:#f1d5bf;fill-opacity:1;" d="M 144.769531 204.550781 L 156.863281 204.550781 L 156.863281 288.152344 L 144.769531 288.152344 Z M 230.230469 204.550781 L 218.136719 204.550781 L 218.136719 288.152344 L 230.230469 288.152344 Z M 230.230469 204.550781 "/><path style=" stroke:none;fill-rule:nonzero;fill:#e5a88f;fill-opacity:1;" d="M 216.585938 300.316406 L 158.332031 300.316406 L 158.660156 235.328125 C 158.742188 219.492188 171.570312 206.671875 187.5 206.671875 C 203.351562 206.671875 216.257812 219.492188 216.339844 235.328125 Z M 216.585938 300.316406 "/><path style=" stroke:none;fill-rule:nonzero;fill:#eac0a6;fill-opacity:1;" d="M 141.339844 294.683594 L 160.375 294.683594 L 156.945312 288.152344 L 144.851562 288.152344 Z M 233.660156 294.683594 L 214.625 294.683594 L 218.054688 288.152344 L 230.148438 288.152344 Z M 233.660156 294.683594 "/><path style=" stroke:none;fill-rule:nonzero;fill:#1e4b58;fill-opacity:1;" d="M 214.214844 300.316406 L 160.867188 300.316406 L 161.109375 236.71875 C 161.191406 222.183594 172.957031 210.429688 187.5 210.429688 C 202.042969 210.429688 213.808594 222.183594 213.890625 236.71875 Z M 214.214844 300.316406 "/><path style=" stroke:none;fill-rule:nonzero;fill:#d98e6e;fill-opacity:1;" d="M 141.339844 294.683594 L 160.375 294.683594 L 160.375 300.316406 L 141.339844 300.316406 Z M 233.660156 294.683594 L 214.625 294.683594 L 214.625 300.316406 L 233.660156 300.316406 Z M 233.660156 294.683594 "/><path style=" stroke:none;fill-rule:nonzero;fill:#eac9b2;fill-opacity:1;" d="M 146.976562 204.550781 L 146.976562 288.152344 L 148.609375 288.152344 L 148.609375 204.550781 Z M 150 204.550781 L 150 288.152344 L 151.632812 288.152344 L 151.632812 204.550781 Z M 153.023438 204.550781 L 153.023438 288.152344 L 154.65625 288.152344 L 154.65625 204.550781 Z M 228.023438 204.550781 L 228.023438 288.152344 L 226.390625 288.152344 L 226.390625 204.550781 Z M 225 204.550781 L 225 288.152344 L 223.367188 288.152344 L 223.367188 204.550781 Z M 221.976562 204.550781 L 221.976562 288.152344 L 220.34375 288.152344 L 220.34375 204.550781 Z M 221.976562 204.550781 "/><path style=" stroke:none;fill-rule:nonzero;fill:#5a7f8a;fill-opacity:1;" d="M 166.910156 240.960938 L 208.007812 240.960938 L 208.007812 300.070312 L 166.910156 300.070312 Z M 166.910156 240.960938 "/><path style=" stroke:none;fill-rule:nonzero;fill:#5a7f8a;fill-opacity:1;" d="M 207.761719 237.289062 L 167.238281 237.289062 C 167.238281 226.105469 176.308594 217.042969 187.5 217.042969 C 198.691406 217.042969 207.761719 226.105469 207.761719 237.289062 Z M 207.761719 237.289062 "/><path style=" stroke:none;fill-rule:nonzero;fill:#122d34;fill-opacity:1;" d="M 170.507812 244.308594 L 204.410156 244.308594 L 204.410156 300.070312 L 170.507812 300.070312 Z M 170.507812 244.308594 "/><path style=" stroke:none;fill-rule:nonzero;fill:#122d34;fill-opacity:1;" d="M 203.839844 234.59375 L 171.160156 234.59375 C 171.160156 226.511719 178.511719 219.898438 187.5 219.898438 C 196.570312 219.898438 203.839844 226.429688 203.839844 234.59375 Z M 203.839844 234.59375 "/><path style=" stroke:none;fill-rule:nonzero;fill:#885e57;fill-opacity:1;" d="M 249.589844 183.40625 L 125.410156 183.40625 L 187.5 154.503906 Z M 249.589844 183.40625 "/><path style=" stroke:none;fill-rule:nonzero;fill:#f3c899;fill-opacity:1;" d="M 219.769531 177.609375 L 155.230469 177.609375 L 187.5 162.585938 Z M 219.769531 177.609375 "/><path style=" stroke:none;fill-rule:nonzero;fill:#e09479;fill-opacity:1;" d="M 6.371094 300.316406 L 187.5 300.316406 L 187.5 306.359375 L 6.371094 306.359375 Z M 368.628906 300.316406 L 187.5 300.316406 L 187.5 306.359375 L 368.628906 306.359375 Z M 368.628906 300.316406 "/><path style=" stroke:none;fill-rule:nonzero;fill:#1c4b5b;fill-opacity:1;" d="M 45.832031 196.957031 C 42.238281 196.957031 39.460938 199.816406 39.460938 203.328125 L 39.460938 230.105469 L 52.207031 230.105469 L 52.207031 203.328125 C 52.207031 199.734375 49.429688 196.957031 45.832031 196.957031 Z M 329.167969 196.957031 C 332.761719 196.957031 335.539062 199.816406 335.539062 203.328125 L 335.539062 230.105469 L 322.792969 230.105469 L 322.792969 203.328125 C 322.792969 199.734375 325.570312 196.957031 329.167969 196.957031 Z M 329.167969 196.957031 "/><path style=" stroke:none;fill-rule:nonzero;fill:#1c4b5b;fill-opacity:1;" d="M 45.832031 257.210938 C 42.238281 257.210938 39.460938 260.066406 39.460938 263.578125 L 39.460938 290.355469 L 52.207031 290.355469 L 52.207031 263.578125 C 52.207031 260.066406 49.429688 257.210938 45.832031 257.210938 Z M 329.167969 257.210938 C 332.761719 257.210938 335.539062 260.066406 335.539062 263.578125 L 335.539062 290.355469 L 322.792969 290.355469 L 322.792969 263.578125 C 322.792969 260.066406 325.570312 257.210938 329.167969 257.210938 Z M 329.167969 257.210938 "/><path style=" stroke:none;fill-rule:nonzero;fill:#1c4b5b;fill-opacity:1;" d="M 70.914062 257.210938 C 67.320312 257.210938 64.542969 260.066406 64.542969 263.578125 L 64.542969 290.355469 L 77.289062 290.355469 L 77.289062 263.578125 C 77.289062 260.066406 74.429688 257.210938 70.914062 257.210938 Z M 304.085938 257.210938 C 307.679688 257.210938 310.457031 260.066406 310.457031 263.578125 L 310.457031 290.355469 L 297.710938 290.355469 L 297.710938 263.578125 C 297.710938 260.066406 300.570312 257.210938 304.085938 257.210938 Z M 304.085938 257.210938 "/><path style=" stroke:none;fill-rule:nonzero;fill:#1c4b5b;fill-opacity:1;" d="M 95.914062 257.210938 C 92.320312 257.210938 89.542969 260.066406 89.542969 263.578125 L 89.542969 290.355469 L 102.289062 290.355469 L 102.289062 263.578125 C 102.289062 260.066406 99.511719 257.210938 95.914062 257.210938 Z M 279.085938 257.210938 C 282.679688 257.210938 285.457031 260.066406 285.457031 263.578125 L 285.457031 290.355469 L 272.710938 290.355469 L 272.710938 263.578125 C 272.710938 260.066406 275.488281 257.210938 279.085938 257.210938 Z M 279.085938 257.210938 "/><path style=" stroke:none;fill-rule:nonzero;fill:#1c4b5b;fill-opacity:1;" d="M 95.914062 196.957031 C 92.320312 196.957031 89.542969 199.816406 89.542969 203.328125 L 89.542969 230.105469 L 102.289062 230.105469 L 102.289062 203.328125 C 102.289062 199.734375 99.511719 196.957031 95.914062 196.957031 Z M 279.085938 196.957031 C 282.679688 196.957031 285.457031 199.816406 285.457031 203.328125 L 285.457031 230.105469 L 272.710938 230.105469 L 272.710938 203.328125 C 272.710938 199.734375 275.488281 196.957031 279.085938 196.957031 Z M 279.085938 196.957031 "/><path style=" stroke:none;fill-rule:nonzero;fill:#1c4b5b;fill-opacity:1;" d="M 70.914062 196.957031 C 67.320312 196.957031 64.542969 199.816406 64.542969 203.328125 L 64.542969 230.105469 L 77.289062 230.105469 L 77.289062 203.328125 C 77.289062 199.734375 74.429688 196.957031 70.914062 196.957031 Z M 304.085938 196.957031 C 307.679688 196.957031 310.457031 199.816406 310.457031 203.328125 L 310.457031 230.105469 L 297.710938 230.105469 L 297.710938 203.328125 C 297.710938 199.734375 300.570312 196.957031 304.085938 196.957031 Z M 304.085938 196.957031 "/><path style=" stroke:none;fill-rule:nonzero;fill:#e9c9aa;fill-opacity:1;" d="M 121.324219 99.804688 L 253.59375 99.804688 L 253.59375 110.09375 L 121.324219 110.09375 Z M 121.324219 99.804688 "/><g clip-rule="nonzero" clip-path="url(#76311ad735)"><path style=" stroke:none;fill-rule:nonzero;fill:#50b0c1;fill-opacity:1;" d="M 236.519531 99.804688 L 138.480469 99.804688 C 138.480469 75.476562 160.375 55.800781 187.5 55.800781 C 214.625 55.800781 236.519531 75.476562 236.519531 99.804688 Z M 236.519531 99.804688 "/></g><g clip-rule="nonzero" clip-path="url(#9d19021f56)"><path style=" stroke:none;fill-rule:nonzero;fill:#358a97;fill-opacity:1;" d="M 222.550781 99.804688 L 152.449219 99.804688 C 152.449219 75.476562 168.054688 55.800781 187.5 55.800781 C 206.945312 55.800781 222.550781 75.476562 222.550781 99.804688 Z M 222.550781 99.804688 "/></g><g clip-rule="nonzero" clip-path="url(#1a17fb1baa)"><path style=" stroke:none;fill-rule:nonzero;fill:#2c7381;fill-opacity:1;" d="M 202.859375 99.804688 L 172.140625 99.804688 C 172.140625 75.476562 178.921875 55.800781 187.5 55.800781 C 195.996094 55.800781 202.859375 75.476562 202.859375 99.804688 Z M 202.859375 99.804688 "/></g><path style=" stroke:none;fill-rule:nonzero;fill:#1c4b5b;fill-opacity:1;" d="M 0 306.359375 L 375 306.359375 L 375 315.09375 L 0 315.09375 Z M 0 306.359375 "/><path style=" stroke:none;fill-rule:nonzero;fill:#e3e0d8;fill-opacity:1;" d="M 132.925781 300.234375 L 242.15625 300.234375 L 242.15625 302.03125 L 132.925781 302.03125 Z M 132.925781 300.234375 "/><path style=" stroke:none;fill-rule:nonzero;fill:#a8b6c0;fill-opacity:1;" d="M 132.925781 304.96875 L 242.15625 304.96875 L 242.15625 302.03125 L 132.925781 302.03125 Z M 132.925781 304.96875 "/><path style=" stroke:none;fill-rule:nonzero;fill:#e3e0d8;fill-opacity:1;" d="M 131.210938 304.96875 L 243.710938 304.96875 L 243.710938 306.765625 L 131.210938 306.765625 Z M 131.210938 304.96875 "/><path style=" stroke:none;fill-rule:nonzero;fill:#a8b6c0;fill-opacity:1;" d="M 131.210938 309.625 L 243.710938 309.625 L 243.710938 306.683594 L 131.210938 306.683594 Z M 131.210938 309.625 "/><path style=" stroke:none;fill-rule:nonzero;fill:#e3e0d8;fill-opacity:1;" d="M 129.574219 309.625 L 245.507812 309.625 L 245.507812 311.417969 L 129.574219 311.417969 Z M 129.574219 309.625 "/><path style=" stroke:none;fill-rule:nonzero;fill:#a8b6c0;fill-opacity:1;" d="M 129.574219 314.359375 L 245.507812 314.359375 L 245.507812 311.417969 L 129.574219 311.417969 Z M 129.574219 314.359375 "/><path style=" stroke:none;fill-rule:nonzero;fill:#e3e0d8;fill-opacity:1;" d="M 127.777344 314.359375 L 247.140625 314.359375 L 247.140625 317.949219 L 127.777344 317.949219 Z M 127.777344 314.359375 "/><g clip-rule="nonzero" clip-path="url(#61da60f2d8)"><path style=" stroke:none;fill-rule:nonzero;fill:#a8b6c0;fill-opacity:1;" d="M 127.777344 319.011719 L 247.140625 319.011719 L 247.140625 316.074219 L 127.777344 316.074219 Z M 127.777344 319.011719 "/></g></g></svg>